<?xml version="1.0" standalone="no"?>
<!DOCTYPE svg PUBLIC "-//W3C//DTD SVG 1.1//EN" "http://www.w3.org/Graphics/SVG/1.1/DTD/svg11.dtd" >
<svg xmlns="http://www.w3.org/2000/svg">
<metadata>
Created by FontPrep 20130207 at Sat Jul 19 12:30:01 2014
 By Chakkrisn Talawat
Copyright (c) 2010-2011 by Software Industry Promotion Agency (Public Organization) (SIPA). All rights reserved.
Created by : Suppakit CHALERMLARP.
</metadata>
<defs>
<font id="259a658649c8798d3b47d149c6ab8165" horiz-adv-x='1024' >
  <font-face 
    font-family="THSarabunNew-Bold"
    font-weight="700"
    font-stretch="normal"
    units-per-em="2048"
    panose-1="2 11 5 0 4 2 0 2 0 3"
    ascent="1638"
    descent="-410"
    x-height="696"
    cap-height="975"
    bbox="-954 -936 1939 1729"
    underline-thickness="61"
    underline-position="-41"
    unicode-range="U+0020-FB02"
  />
<missing-glyph horiz-adv-x="1429" 
d="M1247 63v1530h-1065v-1530h1065zM1321 0h-1212v1657h1212v-1657z" />
    <glyph glyph-name="Agrave" unicode="A&#x300;" horiz-adv-x="923" 
d="M606 436l-143 406l-152 -406h295zM926 0h-142l-129 326h-391l-127 -326h-139l410 989h110zM596 1067h-98l-172 199l116 37z" />
    <glyph glyph-name="Aacute" unicode="A&#x301;" horiz-adv-x="923" 
d="M606 436l-143 406l-152 -406h295zM926 0h-142l-129 326h-391l-127 -326h-139l410 989h110zM479 1303l117 -37l-172 -199h-98z" />
    <glyph glyph-name="Atilde" unicode="A&#x303;" horiz-adv-x="923" 
d="M606 436l-143 406l-152 -406h295zM926 0h-142l-129 326h-391l-127 -326h-139l410 989h110zM371 1116q-25 0 -25 -49h-90q0 61 30 103t74 42t101 -28q56 -28 78 -27q39 0 39 55h88q-4 -155 -121 -155q-27 0 -137 50q-23 9 -37 9z" />
    <glyph glyph-name="Egrave" unicode="E&#x300;" horiz-adv-x="733" 
d="M682 0h-580v975h580v-111h-451v-295h402v-110h-402v-348h451v-111zM502 1067h-99l-172 199l117 37z" />
    <glyph glyph-name="Eacute" unicode="E&#x301;" horiz-adv-x="733" 
d="M682 0h-580v975h580v-111h-451v-295h402v-110h-402v-348h451v-111zM385 1303l117 -37l-172 -199h-99z" />
    <glyph glyph-name="Igrave" unicode="I&#x300;" horiz-adv-x="333" 
d="M231 0h-129v975h129v-975zM301 1067h-98l-172 199l116 37z" />
    <glyph glyph-name="Iacute" unicode="I&#x301;" horiz-adv-x="333" 
d="M231 0h-129v975h129v-975zM184 1303l117 -37l-172 -199h-98z" />
    <glyph glyph-name="Ograve" unicode="O&#x300;" horiz-adv-x="1060" 
d="M1008 485q0 -215 -134 -360t-344 -145q-211 0 -344 145t-133 360t133 361t344 147q210 -1 344 -147t134 -361zM881 487q-1 168 -97 282t-254 114t-254 -114t-96 -282q0 -167 96 -281t254 -114t254 114t97 281zM666 1067h-99l-172 199l117 37z" />
    <glyph glyph-name="Oacute" unicode="O&#x301;" horiz-adv-x="1060" 
d="M1008 485q0 -215 -134 -360t-344 -145q-211 0 -344 145t-133 360t133 361t344 147q210 -1 344 -147t134 -361zM881 487q-1 168 -97 282t-254 114t-254 -114t-96 -282q0 -167 96 -281t254 -114t254 114t97 281zM549 1303l117 -37l-172 -199h-99z" />
    <glyph glyph-name="Otilde" unicode="O&#x303;" horiz-adv-x="1060" 
d="M1008 485q0 -215 -134 -360t-344 -145q-211 0 -344 145t-133 360t133 361t344 147q210 -1 344 -147t134 -361zM881 487q-1 168 -97 282t-254 114t-254 -114t-96 -282q0 -167 96 -281t254 -114t254 114t97 281zM440 1116q-24 0 -24 -49h-90q0 61 29 103q31 42 75 42
t100 -28t78 -27q39 0 39 55h88q-4 -155 -121 -155q-27 0 -137 50q-23 9 -37 9z" />
    <glyph glyph-name="Ugrave" unicode="U&#x300;" horiz-adv-x="987" 
d="M885 416q0 -434 -391 -434t-392 434v559h131v-559q1 -324 261 -324t260 324v559h131v-559zM629 1067h-99l-172 199l117 37z" />
    <glyph glyph-name="Uacute" unicode="U&#x301;" horiz-adv-x="987" 
d="M885 416q0 -434 -391 -434t-392 434v559h131v-559q1 -324 261 -324t260 324v559h131v-559zM512 1303l117 -37l-172 -199h-99z" />
    <glyph glyph-name="Yacute" unicode="Y&#x301;" horiz-adv-x="811" 
d="M471 0h-127v426l-356 549h149l271 -438l268 438h147l-352 -547v-428zM424 1303l117 -37l-172 -199h-99z" />
    <glyph glyph-name="agrave" unicode="a&#x300;" horiz-adv-x="751" 
d="M518 221v123q-334 -6 -334 -141q0 -109 121 -109q69 0 141 36t72 91zM313 -18q-118 0 -188 56t-72 152q0 260 465 267q-20 154 -168 153q-111 0 -244 -51l-14 117q139 41 264 41q291 0 291 -299v-232q0 -78 29 -180l-121 -24l-20 90q-104 -90 -222 -90zM510 788h-98
l-172 199l116 37z" />
    <glyph glyph-name="aacute" unicode="a&#x301;" horiz-adv-x="751" 
d="M518 221v123q-334 -6 -334 -141q0 -109 121 -109q69 0 141 36t72 91zM313 -18q-118 0 -188 56t-72 152q0 260 465 267q-20 154 -168 153q-111 0 -244 -51l-14 117q139 41 264 41q291 0 291 -299v-232q0 -78 29 -180l-121 -24l-20 90q-104 -90 -222 -90zM393 1024l117 -37
l-172 -199h-98z" />
    <glyph glyph-name="atilde" unicode="a&#x303;" horiz-adv-x="751" 
d="M518 221v123q-334 -6 -334 -141q0 -109 121 -109q69 0 141 36t72 91zM313 -18q-118 0 -188 56t-72 152q0 260 465 267q-20 154 -168 153q-111 0 -244 -51l-14 117q139 41 264 41q291 0 291 -299v-232q0 -78 29 -180l-121 -24l-20 90q-104 -90 -222 -90zM260 788h-90
q0 62 30 104t76 42t98 -28q52 -27 79 -27q39 0 39 55h88q-4 -156 -121 -156q-26 0 -90 29q-63 29 -86 30t-23 -49z" />
    <glyph glyph-name="egrave" unicode="e&#x300;" horiz-adv-x="800" 
d="M416 616q-84 0 -149 -50t-79 -130h433q-9 80 -65 130t-140 50zM418 -18q-150 0 -258 99t-107 265q-1 166 105 272t268 105q315 0 322 -395h-568q8 -111 79 -171q140 -119 446 -7l14 -113q-151 -55 -301 -55zM535 788h-99l-172 199l117 37z" />
    <glyph glyph-name="eacute" unicode="e&#x301;" horiz-adv-x="800" 
d="M416 616q-84 0 -149 -50t-79 -130h433q-9 80 -65 130t-140 50zM418 -18q-150 0 -258 99t-107 265q-1 166 105 272t268 105q315 0 322 -395h-568q8 -111 79 -171q140 -119 446 -7l14 -113q-151 -55 -301 -55zM418 1024l117 -37l-173 -199h-98z" />
    <glyph glyph-name="igrave" unicode="i&#x300;" horiz-adv-x="333" 
d="M231 0h-129v696h129v-696zM301 788h-98l-172 199l116 37z" />
    <glyph glyph-name="iacute" unicode="i&#x301;" horiz-adv-x="333" 
d="M231 0h-129v696h129v-696zM184 1024l117 -37l-172 -199h-98z" />
    <glyph glyph-name="ograve" unicode="o&#x300;" horiz-adv-x="843" 
d="M664 352q0 111 -68 186q-68 74 -174 74t-174 -74t-68 -186t68 -186t174 -74t174 74t68 186zM791 352q-1 -156 -105 -262t-264 -106t-264 106t-105 262q1 156 105 264t264 107q160 1 264 -107t105 -264zM557 788h-98l-172 199l116 37z" />
    <glyph glyph-name="oacute" unicode="o&#x301;" horiz-adv-x="843" 
d="M664 352q0 111 -68 186q-68 74 -174 74t-174 -74t-68 -186t68 -186t174 -74t174 74t68 186zM791 352q-1 -156 -105 -262t-264 -106t-264 106t-105 262q1 156 105 264t264 107q160 1 264 -107t105 -264zM440 1024l117 -37l-172 -199h-98z" />
    <glyph glyph-name="otilde" unicode="o&#x303;" horiz-adv-x="843" 
d="M664 352q0 111 -68 186q-68 74 -174 74t-174 -74t-68 -186t68 -186t174 -74t174 74t68 186zM791 352q-1 -156 -105 -262t-264 -106t-264 106t-105 262q1 156 105 264t264 107q160 1 264 -107t105 -264zM307 788h-90q0 62 30 104t76 42t98 -28t79 -27q39 0 39 55h88
q-4 -156 -121 -156q-27 0 -90 29t-86 30t-23 -49z" />
    <glyph glyph-name="ugrave" unicode="u&#x300;" horiz-adv-x="856" 
d="M102 315v381h129v-368q0 -231 177 -232q74 0 146 56t71 133v411h129v-510q0 -69 43 -178l-125 -24q-20 49 -37 118q-123 -121 -244 -120q-289 0 -289 333zM563 788h-98l-172 199l117 37z" />
    <glyph glyph-name="uacute" unicode="u&#x301;" horiz-adv-x="856" 
d="M102 315v381h129v-368q0 -231 177 -232q74 0 146 56t71 133v411h129v-510q0 -69 43 -178l-125 -24q-20 49 -37 118q-123 -121 -244 -120q-289 0 -289 333zM446 1024l117 -37l-172 -199h-98z" />
    <glyph glyph-name="yacute" unicode="y&#x301;" horiz-adv-x="739" 
d="M66 -309l-33 106q182 41 268 254l-309 645h141l242 -516l229 516h141l-319 -682q-129 -272 -360 -323zM387 1024l117 -37l-172 -199h-99z" />
    <glyph glyph-name="Itilde" unicode="I&#x303;" horiz-adv-x="333" 
d="M231 0h-129v975h129v-975zM78 1116q-25 0 -25 -49h-90q0 61 30 103q31 42 75 42t100 -28t78 -27q39 0 39 55h88q-4 -155 -121 -155q-27 0 -137 50q-23 9 -37 9z" />
    <glyph glyph-name="itilde" unicode="i&#x303;" horiz-adv-x="333" 
d="M231 0h-129v696h129v-696zM51 788h-90q0 62 30 104t76 42t98 -28t79 -27q39 0 39 55h88q-4 -156 -121 -156q-27 0 -90 29t-86 30t-23 -49z" />
    <glyph glyph-name="Utilde" unicode="U&#x303;" horiz-adv-x="987" 
d="M885 416q0 -434 -391 -434t-392 434v559h131v-559q1 -324 261 -324t260 324v559h131v-559zM403 1116q-24 0 -24 -49h-90q0 61 29 103q30 42 74 42t101 -28q58 -28 78 -27q39 0 39 55h88q-4 -155 -120 -155q-28 0 -138 50q-23 9 -37 9z" />
    <glyph glyph-name="utilde" unicode="u&#x303;" horiz-adv-x="856" 
d="M102 315v381h129v-368q0 -231 177 -232q74 0 146 56t71 133v411h129v-510q0 -69 43 -178l-125 -24q-20 49 -37 118q-123 -121 -244 -120q-289 0 -289 333zM313 788h-90q0 62 30 104t76 42t98 -28q52 -27 79 -27q39 0 39 55h88q-4 -156 -121 -156q-27 0 -90 29t-86 30
t-23 -49z" />
    <glyph glyph-name="uni1EA0" unicode="A&#x323;" horiz-adv-x="923" 
d="M606 436l-143 406l-152 -406h295zM926 0h-142l-129 326h-391l-127 -326h-139l410 989h110zM557 -197q0 -41 -29 -69q-30 -28 -68 -29q-38 0 -67 29q-29 30 -29 70t29 69t68 29t67 -29t29 -70z" />
    <glyph glyph-name="uni1EA1" unicode="a&#x323;" horiz-adv-x="751" 
d="M518 221v123q-334 -6 -334 -141q0 -109 121 -109q69 0 141 36t72 91zM313 -18q-118 0 -188 56t-72 152q0 260 465 267q-20 154 -168 153q-111 0 -244 -51l-14 117q139 41 264 41q291 0 291 -299v-232q0 -78 29 -180l-121 -24l-20 90q-104 -90 -222 -90zM471 -197
q0 -41 -29 -69q-30 -28 -68 -29q-38 0 -67 29q-29 30 -29 70t29 69t68 29t67 -29t29 -70z" />
    <glyph glyph-name="uni1EA2" unicode="A&#x309;" horiz-adv-x="923" 
d="M606 436l-143 406l-152 -406h295zM926 0h-142l-129 326h-391l-127 -326h-139l410 989h110zM623 1270q-1 -50 -19 -78t-40 -52t-39 -48t-17 -50h-92q0 51 59 110q23 24 41 46t18 52t-14 41q-16 11 -47 11t-57 -22q-26 -23 -35 -35l-53 45q16 33 55 63q39 29 101 29
t101 -30q38 -32 38 -82z" />
    <glyph glyph-name="uni1EA3" unicode="a&#x309;" horiz-adv-x="751" 
d="M518 221v123q-334 -6 -334 -141q0 -109 121 -109q69 0 141 36t72 91zM313 -18q-118 0 -188 56t-72 152q0 260 465 267q-20 154 -168 153q-111 0 -244 -51l-14 117q139 41 264 41q291 0 291 -299v-232q0 -78 29 -180l-121 -24l-20 90q-104 -90 -222 -90zM384 1104
q62 0 100 -30t38 -82q0 -50 -18 -78t-57 -71t-39 -79h-93q-1 49 59 110t60 94q0 34 -15 45t-46 11t-58 -23t-34 -34l-54 45q15 32 55 62t102 30z" />
    <glyph glyph-name="uni1EA4" unicode="&#xc2;&#x301;" horiz-adv-x="923" 
d="M606 436l-143 406l-152 -406h295zM926 0h-142l-129 326h-391l-127 -326h-139l410 989h110zM655 1067h-110l-84 145l-82 -145h-113l160 236h72zM756 1475l116 -37l-172 -199h-98z" />
    <glyph glyph-name="uni1EA5" unicode="&#xe2;&#x301;" horiz-adv-x="751" 
d="M518 221v123q-334 -6 -334 -141q0 -109 121 -109q69 0 141 36t72 91zM313 -18q-118 0 -188 56t-72 152q0 260 465 267q-20 154 -168 153q-111 0 -244 -51l-14 117q139 41 264 41q291 0 291 -299v-232q0 -78 29 -180l-121 -24l-20 90q-104 -90 -222 -90zM569 788h-110
l-84 146l-82 -146h-113l160 236h72zM676 1212l117 -36l-172 -199h-99z" />
    <glyph glyph-name="uni1EA6" unicode="&#xc2;&#x300;" horiz-adv-x="923" 
d="M606 436l-143 406l-152 -406h295zM926 0h-142l-129 326h-391l-127 -326h-139l410 989h110zM655 1067h-110l-84 145l-82 -145h-113l160 236h72zM821 1239h-98l-172 199l117 37z" />
    <glyph glyph-name="uni1EA7" unicode="&#xe2;&#x300;" horiz-adv-x="751" 
d="M518 221v123q-334 -6 -334 -141q0 -109 121 -109q69 0 141 36t72 91zM313 -18q-118 0 -188 56t-72 152q0 260 465 267q-20 154 -168 153q-111 0 -244 -51l-14 117q139 41 264 41q291 0 291 -299v-232q0 -78 29 -180l-121 -24l-20 90q-104 -90 -222 -90zM569 788h-110
l-84 146l-82 -146h-113l160 236h72zM698 977h-98l-172 199l117 36z" />
    <glyph glyph-name="uni1EA8" unicode="&#xc2;&#x309;" horiz-adv-x="923" 
d="M606 436l-143 406l-152 -406h295zM926 0h-142l-129 326h-391l-127 -326h-139l410 989h110zM655 1067h-110l-84 145l-82 -145h-113l160 236h72zM728 1563q62 -1 100 -31t38 -80t-18 -79q-18 -28 -57 -71t-39 -79h-93q0 49 60 109q23 24 41 46t18 52t-15 41t-46 11t-58 -22
q-27 -23 -34 -35l-54 45q15 33 55 63t102 30z" />
    <glyph glyph-name="uni1EA9" unicode="&#xe2;&#x309;" horiz-adv-x="751" 
d="M518 221v123q-334 -6 -334 -141q0 -109 121 -109q69 0 141 36t72 91zM313 -18q-118 0 -188 56t-72 152q0 260 465 267q-20 154 -168 153q-111 0 -244 -51l-14 117q139 41 264 41q291 0 291 -299v-232q0 -78 29 -180l-121 -24l-20 90q-104 -90 -222 -90zM569 788h-110
l-84 146l-82 -146h-113l160 236h72zM760 1184q0 -50 -18 -78t-57 -70q-38 -43 -40 -80h-92q0 51 59 110q23 24 41 46q19 22 19 52t-16 41t-46 11q-32 0 -58 -22q-26 -23 -34 -35l-53 45q16 33 55 63q40 29 102 29t100 -30q38 -32 38 -82z" />
    <glyph glyph-name="uni1EAA" unicode="&#xc2;&#x303;" horiz-adv-x="923" 
d="M606 436l-143 406l-152 -406h295zM926 0h-142l-129 326h-391l-127 -326h-139l410 989h110zM655 1067h-110l-84 145l-82 -145h-113l160 236h72zM346 1386h-90q0 62 30 104t76 42t98 -28t79 -27q39 0 39 55h88q-4 -156 -121 -156q-26 0 -90 29q-63 29 -86 30t-23 -49z" />
    <glyph glyph-name="uni1EAB" unicode="&#xe2;&#x303;" horiz-adv-x="751" 
d="M518 221v123q-334 -6 -334 -141q0 -109 121 -109q69 0 141 36t72 91zM313 -18q-118 0 -188 56t-72 152q0 260 465 267q-20 154 -168 153q-111 0 -244 -51l-14 117q139 41 264 41q291 0 291 -299v-232q0 -78 29 -180l-121 -24l-20 90q-104 -90 -222 -90zM569 788h-110
l-84 146l-82 -146h-113l160 236h72zM260 1083h-90q0 61 30 103t76 43t98 -27t79 -28q39 0 39 55h88q-4 -156 -121 -156q-26 0 -90 29q-63 29 -86 30t-23 -49z" />
    <glyph glyph-name="uni1EAC" unicode="&#xc2;&#x323;" horiz-adv-x="923" 
d="M606 436l-143 406l-152 -406h295zM926 0h-142l-129 326h-391l-127 -326h-139l410 989h110zM557 -197q0 -41 -29 -69q-30 -28 -68 -29q-38 0 -67 29q-29 30 -29 70t29 69t68 29t67 -29t29 -70zM655 1067h-110l-84 145l-82 -145h-113l160 236h72z" />
    <glyph glyph-name="uni1EAD" unicode="&#xe2;&#x323;" horiz-adv-x="751" 
d="M518 221v123q-334 -6 -334 -141q0 -109 121 -109q69 0 141 36t72 91zM313 -18q-118 0 -188 56t-72 152q0 260 465 267q-20 154 -168 153q-111 0 -244 -51l-14 117q139 41 264 41q291 0 291 -299v-232q0 -78 29 -180l-121 -24l-20 90q-104 -90 -222 -90zM471 -197
q0 -41 -29 -69q-30 -28 -68 -29q-38 0 -67 29q-29 30 -29 70t29 69t68 29t67 -29t29 -70zM569 788h-110l-84 146l-82 -146h-113l160 236h72z" />
    <glyph glyph-name="uni1EAE" unicode="&#x102;&#x301;" horiz-adv-x="923" 
d="M606 436l-143 406l-152 -406h295zM926 0h-142l-129 326h-391l-127 -326h-139l410 989h110zM461 1153q57 0 90 40t43 91h108q-39 -229 -241 -229q-201 0 -242 229h111q10 -51 42 -91t89 -40zM559 1561l117 -37l-172 -199h-98z" />
    <glyph glyph-name="uni1EAF" unicode="&#x103;&#x301;" horiz-adv-x="751" 
d="M518 221v123q-334 -6 -334 -141q0 -109 121 -109q69 0 141 36t72 91zM313 -18q-118 0 -188 56t-72 152q0 260 465 267q-20 154 -168 153q-111 0 -244 -51l-14 117q139 41 264 41q291 0 291 -299v-232q0 -78 29 -180l-121 -24l-20 90q-104 -90 -222 -90zM375 874
q57 0 90 40t43 92h108q-39 -228 -240 -229t-243 229h111q10 -52 42 -92t89 -40zM471 1282l117 -37l-172 -198h-99z" />
    <glyph glyph-name="uni1EB0" unicode="&#x102;&#x300;" horiz-adv-x="923" 
d="M606 436l-143 406l-152 -406h295zM926 0h-142l-129 326h-391l-127 -326h-139l410 989h110zM461 1153q57 0 90 40t43 91h108q-39 -229 -241 -229q-201 0 -242 229h111q10 -51 42 -91t89 -40zM518 1303h-98l-172 198l117 37z" />
    <glyph glyph-name="uni1EB1" unicode="&#x103;&#x300;" horiz-adv-x="751" 
d="M518 221v123q-334 -6 -334 -141q0 -109 121 -109q69 0 141 36t72 91zM313 -18q-118 0 -188 56t-72 152q0 260 465 267q-20 154 -168 153q-111 0 -244 -51l-14 117q139 41 264 41q291 0 291 -299v-232q0 -78 29 -180l-121 -24l-20 90q-104 -90 -222 -90zM375 874
q57 0 90 40t43 92h108q-39 -228 -240 -229t-243 229h111q10 -52 42 -92t89 -40zM434 1028h-98l-172 199l117 37z" />
    <glyph glyph-name="uni1EB2" unicode="&#x102;&#x309;" horiz-adv-x="923" 
d="M606 436l-143 406l-152 -406h295zM926 0h-142l-129 326h-391l-127 -326h-139l410 989h110zM461 1153q57 0 90 40t43 91h108q-39 -229 -241 -229q-201 0 -242 229h111q10 -51 42 -91t89 -40zM616 1505q0 -51 -57 -114t-57 -99h-92q0 51 59 110q23 24 41 46t18 52
q0 52 -57 52q-35 0 -61 -22t-35 -35l-53 45q16 33 55 63t104 29q135 0 135 -127z" />
    <glyph glyph-name="uni1EB3" unicode="&#x103;&#x309;" horiz-adv-x="751" 
d="M518 221v123q-334 -6 -334 -141q0 -109 121 -109q69 0 141 36t72 91zM313 -18q-118 0 -188 56t-72 152q0 260 465 267q-20 154 -168 153q-111 0 -244 -51l-14 117q139 41 264 41q291 0 291 -299v-232q0 -78 29 -180l-121 -24l-20 90q-104 -90 -222 -90zM375 874
q57 0 90 40t43 92h108q-39 -228 -240 -229t-243 229h111q10 -52 42 -92t89 -40zM537 1230q-1 -50 -19 -78t-40 -52t-39 -48t-17 -51h-92q0 51 59 110q23 25 41 47t18 52t-14 40q-16 12 -47 12t-57 -23t-35 -35l-53 45q16 33 55 63t101 30t101 -31q38 -31 38 -81z" />
    <glyph glyph-name="uni1EB4" unicode="&#x102;&#x303;" horiz-adv-x="923" 
d="M606 436l-143 406l-152 -406h295zM926 0h-142l-129 326h-391l-127 -326h-139l410 989h110zM461 1153q57 0 90 40t43 91h108q-39 -229 -241 -229q-201 0 -242 229h111q10 -51 42 -91t89 -40zM346 1386h-90q0 62 30 104t76 42t98 -28t79 -27q39 0 39 55h88
q-4 -156 -121 -156q-26 0 -90 29q-63 29 -86 30t-23 -49z" />
    <glyph glyph-name="uni1EB5" unicode="&#x103;&#x303;" horiz-adv-x="751" 
d="M518 221v123q-334 -6 -334 -141q0 -109 121 -109q69 0 141 36t72 91zM313 -18q-118 0 -188 56t-72 152q0 260 465 267q-20 154 -168 153q-111 0 -244 -51l-14 117q139 41 264 41q291 0 291 -299v-232q0 -78 29 -180l-121 -24l-20 90q-104 -90 -222 -90zM375 874
q57 0 90 40t43 92h108q-39 -228 -240 -229t-243 229h111q10 -52 42 -92t89 -40zM283 1124q-23 0 -23 -49h-90q0 61 30 103t74 43q44 0 98 -27q55 -27 81 -29q39 0 39 56h88q-4 -156 -121 -156q-26 -1 -90 29q-63 30 -86 30z" />
    <glyph glyph-name="uni1EB6" unicode="&#x102;&#x323;" horiz-adv-x="923" 
d="M606 436l-143 406l-152 -406h295zM926 0h-142l-129 326h-391l-127 -326h-139l410 989h110zM557 -197q0 -41 -29 -69q-30 -28 -68 -29q-38 0 -67 29q-29 30 -29 70t29 69t68 29t67 -29t29 -70zM461 1153q57 0 90 40t43 91h108q-39 -229 -241 -229q-201 0 -242 229h111
q10 -51 42 -91t89 -40z" />
    <glyph glyph-name="uni1EB7" unicode="&#x103;&#x323;" horiz-adv-x="751" 
d="M518 221v123q-334 -6 -334 -141q0 -109 121 -109q69 0 141 36t72 91zM313 -18q-118 0 -188 56t-72 152q0 260 465 267q-20 154 -168 153q-111 0 -244 -51l-14 117q139 41 264 41q291 0 291 -299v-232q0 -78 29 -180l-121 -24l-20 90q-104 -90 -222 -90zM471 -197
q0 -41 -29 -69q-30 -28 -68 -29q-38 0 -67 29q-29 30 -29 70t29 69t68 29t67 -29t29 -70zM375 874q57 0 90 40t43 92h108q-39 -228 -240 -229t-243 229h111q10 -52 42 -92t89 -40z" />
    <glyph glyph-name="uni1EB8" unicode="E&#x323;" horiz-adv-x="733" 
d="M682 0h-580v975h580v-111h-451v-295h402v-110h-402v-348h451v-111zM463 -197q0 -41 -29 -69q-30 -28 -68 -29q-38 0 -67 29q-29 30 -29 70t29 69t68 29t67 -29t29 -70z" />
    <glyph glyph-name="uni1EB9" unicode="e&#x323;" horiz-adv-x="800" 
d="M416 616q-84 0 -149 -50t-79 -130h433q-9 80 -65 130t-140 50zM418 -18q-150 0 -258 99t-107 265q-1 166 105 272t268 105q315 0 322 -395h-568q8 -111 79 -171q140 -119 446 -7l14 -113q-151 -55 -301 -55zM496 -197q0 -41 -29 -69t-68 -29q-39 0 -67 29q-28 30 -29 70
q0 40 29 69q30 29 68 29t67 -29t29 -70z" />
    <glyph glyph-name="uni1EBA" unicode="E&#x309;" horiz-adv-x="733" 
d="M682 0h-580v975h580v-111h-451v-295h402v-110h-402v-348h451v-111zM532 1255q0 -51 -58 -114q-22 -25 -39 -49t-17 -50h-92q0 51 59 110q23 24 41 46t18 52t-15 41t-46 11t-57 -22q-26 -23 -35 -35l-53 45q16 33 55 63t104 29q135 0 135 -127z" />
    <glyph glyph-name="uni1EBB" unicode="e&#x309;" horiz-adv-x="800" 
d="M416 616q-84 0 -149 -50t-79 -130h433q-9 80 -65 130t-140 50zM418 -18q-150 0 -258 99t-107 265q-1 166 105 272t268 105q315 0 322 -395h-568q8 -111 79 -171q140 -119 446 -7l14 -113q-151 -55 -301 -55zM429 1104q62 0 100 -30t38 -82q0 -50 -18 -78t-57 -71t-39 -79
h-93q0 49 60 110t59 94q0 34 -15 45t-46 11t-58 -23t-34 -34l-54 45q16 32 56 62t101 30z" />
    <glyph glyph-name="uni1EBC" unicode="E&#x303;" horiz-adv-x="733" 
d="M682 0h-580v975h580v-111h-451v-295h402v-110h-402v-348h451v-111zM276 1116q-24 0 -24 -49h-90q0 61 29 103q30 42 74 42t101 -28q58 -28 78 -27q39 0 39 55h88q-4 -155 -120 -155q-28 0 -138 50q-23 9 -37 9z" />
    <glyph glyph-name="uni1EBD" unicode="e&#x303;" horiz-adv-x="800" 
d="M416 616q-84 0 -149 -50t-79 -130h433q-9 80 -65 130t-140 50zM418 -18q-150 0 -258 99t-107 265q-1 166 105 272t268 105q315 0 322 -395h-568q8 -111 79 -171q140 -119 446 -7l14 -113q-151 -55 -301 -55zM285 788h-90q0 61 29 104q30 42 76 42t98 -28t79 -27
q39 0 39 55h88q-4 -156 -121 -156q-26 0 -90 29q-63 29 -85 30q-23 1 -23 -49z" />
    <glyph glyph-name="uni1EBE" unicode="&#xca;&#x301;" horiz-adv-x="733" 
d="M682 0h-580v975h580v-111h-451v-295h402v-110h-402v-348h451v-111zM561 1067h-110l-84 145l-82 -145h-113l160 236h71zM659 1505l117 -37l-172 -198h-98z" />
    <glyph glyph-name="uni1EBF" unicode="&#xea;&#x301;" horiz-adv-x="800" 
d="M416 616q-84 0 -149 -50t-79 -130h433q-9 80 -65 130t-140 50zM418 -18q-150 0 -258 99t-107 265q-1 166 105 272t268 105q315 0 322 -395h-568q8 -111 79 -171q140 -119 446 -7l14 -113q-151 -55 -301 -55zM594 788h-111l-84 146l-82 -146h-112l160 236h71zM692 1233
l117 -37l-172 -199h-98z" />
    <glyph glyph-name="uni1EC0" unicode="&#xca;&#x300;" horiz-adv-x="733" 
d="M682 0h-580v975h580v-111h-451v-295h402v-110h-402v-348h451v-111zM561 1067h-110l-84 145l-82 -145h-113l160 236h71zM682 1303h-98l-172 198l116 37z" />
    <glyph glyph-name="uni1EC1" unicode="&#xea;&#x300;" horiz-adv-x="800" 
d="M416 616q-84 0 -149 -50t-79 -130h433q-9 80 -65 130t-140 50zM418 -18q-150 0 -258 99t-107 265q-1 166 105 272t268 105q315 0 322 -395h-568q8 -111 79 -171q140 -119 446 -7l14 -113q-151 -55 -301 -55zM594 788h-111l-84 146l-82 -146h-112l160 236h71zM748 975h-99
l-172 199l117 36z" />
    <glyph glyph-name="uni1EC2" unicode="&#xca;&#x309;" horiz-adv-x="733" 
d="M682 0h-580v975h580v-111h-451v-295h402v-110h-402v-348h451v-111zM561 1067h-110l-84 145l-82 -145h-113l160 236h71zM611 1561q63 -1 101 -31t38 -80t-18 -79q-18 -28 -58 -71q-39 -43 -39 -79h-92q0 50 59 109q23 24 41 46q19 22 19 52t-16 41t-46 11q-32 0 -58 -22
q-26 -23 -34 -35l-53 45q16 33 55 63t101 30z" />
    <glyph glyph-name="uni1EC3" unicode="&#xea;&#x309;" horiz-adv-x="800" 
d="M416 616q-84 0 -149 -50t-79 -130h433q-9 80 -65 130t-140 50zM418 -18q-150 0 -258 99t-107 265q-1 166 105 272t268 105q315 0 322 -395h-568q8 -111 79 -171q140 -119 446 -7l14 -113q-151 -55 -301 -55zM594 788h-111l-84 146l-82 -146h-112l160 236h71zM676 1272
q62 0 101 -30q38 -30 38 -82q0 -50 -18 -78t-57 -71t-40 -79h-92q0 49 60 109q23 25 41 47t18 52t-15 41t-46 11t-58 -23t-35 -34l-53 45q16 32 55 62t101 30z" />
    <glyph glyph-name="uni1EC4" unicode="&#xca;&#x303;" horiz-adv-x="733" 
d="M682 0h-580v975h580v-111h-451v-295h402v-110h-402v-348h451v-111zM561 1067h-110l-84 145l-82 -145h-113l160 236h71zM252 1384h-90q0 61 29 104q30 42 75 42t99 -28t79 -27q39 0 39 55h88q-4 -156 -120 -156q-25 0 -90 29t-87 30t-22 -49z" />
    <glyph glyph-name="uni1EC5" unicode="&#xea;&#x303;" horiz-adv-x="800" 
d="M416 616q-84 0 -149 -50t-79 -130h433q-9 80 -65 130t-140 50zM418 -18q-150 0 -258 99t-107 265q-1 166 105 272t268 105q315 0 322 -395h-568q8 -111 79 -171q140 -119 446 -7l14 -113q-151 -55 -301 -55zM594 788h-111l-84 146l-82 -146h-112l160 236h71zM307 1118
q-22 0 -22 -49h-90q0 61 29 103q30 42 74 42t101 -28q56 -28 78 -27q39 0 39 55h88q-4 -155 -121 -155q-26 -1 -90 29t-86 30z" />
    <glyph glyph-name="uni1EC6" unicode="&#xca;&#x323;" horiz-adv-x="733" 
d="M682 0h-580v975h580v-111h-451v-295h402v-110h-402v-348h451v-111zM463 -197q0 -41 -29 -69q-30 -28 -68 -29q-38 0 -67 29q-29 30 -29 70t29 69t68 29t67 -29t29 -70zM561 1067h-110l-84 145l-82 -145h-113l160 236h71z" />
    <glyph glyph-name="uni1EC7" unicode="&#xea;&#x323;" horiz-adv-x="800" 
d="M416 616q-84 0 -149 -50t-79 -130h433q-9 80 -65 130t-140 50zM418 -18q-150 0 -258 99t-107 265q-1 166 105 272t268 105q315 0 322 -395h-568q8 -111 79 -171q140 -119 446 -7l14 -113q-151 -55 -301 -55zM496 -197q0 -41 -29 -69t-68 -29q-39 0 -67 29q-28 30 -29 70
q0 40 29 69q30 29 68 29t67 -29t29 -70zM594 788h-111l-84 146l-82 -146h-112l160 236h71z" />
    <glyph glyph-name="uni1EC8" unicode="I&#x309;" horiz-adv-x="333" 
d="M231 0h-129v975h129v-975zM324 1270q0 -50 -18 -78t-41 -52q-22 -24 -39 -48t-17 -50h-92q0 51 59 110q23 24 41 46q19 22 19 52t-16 41t-46 11q-32 0 -58 -22q-26 -23 -34 -35l-53 45q16 33 55 63q39 29 101 29t101 -30q38 -32 38 -82z" />
    <glyph glyph-name="uni1EC9" unicode="i&#x309;" horiz-adv-x="333" 
d="M187 1104q63 0 101 -30t38 -82q0 -50 -18 -78t-58 -71q-39 -43 -39 -79h-92q0 50 59 110t59 94q1 34 -15 45t-46 11q-32 0 -58 -23t-34 -34l-53 45q16 32 55 62t101 30zM231 0h-129v696h129v-696z" />
    <glyph glyph-name="uni1ECA" unicode="I&#x323;" horiz-adv-x="333" 
d="M231 0h-129v975h129v-975zM276 -197q0 -41 -28 -69t-68 -29q-40 0 -68 29q-28 30 -28 70t29 69t67 29t68 -29q28 -29 28 -70z" />
    <glyph glyph-name="uni1ECB" unicode="i&#x323;" horiz-adv-x="333" 
d="M262 901q0 -41 -29 -70t-69 -29t-70 30q-29 28 -28 69q0 41 28 70q29 29 70 29q42 0 70 -30q28 -28 28 -69zM231 0h-129v696h129v-696zM276 -197q0 -41 -28 -69t-68 -29q-40 0 -68 29q-28 30 -28 70t29 69t67 29t68 -29q28 -29 28 -70z" />
    <glyph glyph-name="uni1ECC" unicode="O&#x323;" horiz-adv-x="1060" 
d="M1008 485q0 -215 -134 -360t-344 -145q-211 0 -344 145t-133 360t133 361t344 147q210 -1 344 -147t134 -361zM881 487q-1 168 -97 282t-254 114t-254 -114t-96 -282q0 -167 96 -281t254 -114t254 114t97 281zM627 -197q0 -41 -29 -69t-68 -29q-40 0 -68 29
q-28 30 -28 70t29 69t67 29t68 -29q29 -29 29 -70z" />
    <glyph glyph-name="uni1ECD" unicode="o&#x323;" horiz-adv-x="843" 
d="M664 352q0 111 -68 186q-68 74 -174 74t-174 -74t-68 -186t68 -186t174 -74t174 74t68 186zM791 352q-1 -156 -105 -262t-264 -106t-264 106t-105 262q1 156 105 264t264 107q160 1 264 -107t105 -264zM518 -197q0 -41 -29 -69t-67 -29q-38 0 -68 29q-28 30 -28 70t28 69
q29 29 68 29q40 0 68 -29t28 -70z" />
    <glyph glyph-name="uni1ECE" unicode="O&#x309;" horiz-adv-x="1060" 
d="M1008 485q0 -215 -134 -360t-344 -145q-211 0 -344 145t-133 360t133 361t344 147q210 -1 344 -147t134 -361zM881 487q-1 168 -97 282t-254 114t-254 -114t-96 -282q0 -167 96 -281t254 -114t254 114t97 281zM678 1270q0 -50 -18 -78t-40 -52t-39 -48t-18 -50h-92
q0 51 59 110q23 24 41 46q19 22 19 52t-16 41t-46 11q-32 0 -58 -22q-26 -23 -34 -35l-53 45q16 33 55 63q40 29 102 29t100 -30q38 -32 38 -82z" />
    <glyph glyph-name="uni1ECF" unicode="o&#x309;" horiz-adv-x="843" 
d="M664 352q0 111 -68 186q-68 74 -174 74t-174 -74t-68 -186t68 -186t174 -74t174 74t68 186zM791 352q-1 -156 -105 -262t-264 -106t-264 106t-105 262q1 156 105 264t264 107q160 1 264 -107t105 -264zM431 1104q62 0 100 -30t38 -82q0 -50 -18 -78t-57 -71t-39 -79h-93
q0 49 60 110t59 94q0 34 -15 45t-46 11t-58 -23t-34 -34l-54 45q16 32 56 62t101 30z" />
    <glyph glyph-name="uni1ED0" unicode="&#xd4;&#x301;" horiz-adv-x="1060" 
d="M1008 485q0 -215 -134 -360t-344 -145q-211 0 -344 145t-133 360t133 361t344 147q210 -1 344 -147t134 -361zM881 487q-1 168 -97 282t-254 114t-254 -114t-96 -282q0 -167 96 -281t254 -114t254 114t97 281zM725 1067h-111l-84 145l-81 -145h-113l160 236h71zM891 1446
l117 -37l-172 -199h-99z" />
    <glyph glyph-name="uni1ED1" unicode="&#xf4;&#x301;" horiz-adv-x="884" 
d="M684 352q0 111 -68 186q-68 74 -174 74t-174 -74t-68 -186t68 -186t174 -74t174 74t68 186zM811 352q0 -156 -104 -262q-105 -106 -265 -106t-264 106t-104 262t104 264t264 107q160 1 264 -107t105 -264zM637 788h-111l-84 146l-82 -146h-112l160 236h71zM762 1200
l117 -37l-172 -198h-99z" />
    <glyph glyph-name="uni1ED2" unicode="&#xd4;&#x300;" horiz-adv-x="1060" 
d="M1008 485q0 -215 -134 -360t-344 -145q-211 0 -344 145t-133 360t133 361t344 147q210 -1 344 -147t134 -361zM881 487q-1 168 -97 282t-254 114t-254 -114t-96 -282q0 -167 96 -281t254 -114t254 114t97 281zM725 1067h-111l-84 145l-81 -145h-113l160 236h71zM922 1210
h-99l-172 199l117 37z" />
    <glyph glyph-name="uni1ED3" unicode="&#xf4;&#x300;" horiz-adv-x="884" 
d="M684 352q0 111 -68 186q-68 74 -174 74t-174 -74t-68 -186t68 -186t174 -74t174 74t68 186zM811 352q0 -156 -104 -262q-105 -106 -265 -106t-264 106t-104 262t104 264t264 107q160 1 264 -107t105 -264zM637 788h-111l-84 146l-82 -146h-112l160 236h71zM811 965h-98
l-172 198l116 37z" />
    <glyph glyph-name="uni1ED4" unicode="&#xd4;&#x309;" horiz-adv-x="1060" 
d="M1008 485q0 -215 -134 -360t-344 -145q-211 0 -344 145t-133 360t133 361t344 147q210 -1 344 -147t134 -361zM881 487q-1 168 -97 282t-254 114t-254 -114t-96 -282q0 -167 96 -281t254 -114t254 114t97 281zM725 1067h-111l-84 145l-81 -145h-113l160 236h71zM800 1563
q62 -1 100 -31t38 -80t-18 -79q-18 -28 -57 -71t-40 -79h-92q0 49 59 109t59 94q1 34 -14 45t-46 11t-58 -22q-27 -23 -35 -35l-53 45q16 33 55 63q40 30 102 30z" />
    <glyph glyph-name="uni1ED5" unicode="&#xf4;&#x309;" horiz-adv-x="884" 
d="M684 352q0 111 -68 186q-68 74 -174 74t-174 -74t-68 -186t68 -186t174 -74t174 74t68 186zM811 352q0 -156 -104 -262q-105 -106 -265 -106t-264 106t-104 262t104 264t264 107q160 1 264 -107t105 -264zM637 788h-111l-84 146l-82 -146h-112l160 236h71zM844 1184
q0 -50 -18 -78t-41 -52q-22 -24 -39 -48t-17 -50h-92q0 51 59 110q23 24 41 46q19 22 19 52t-16 41t-46 11q-32 0 -58 -22q-26 -23 -34 -35l-53 45q16 33 55 63q40 29 102 29t100 -30q38 -32 38 -82z" />
    <glyph glyph-name="uni1ED6" unicode="&#xd4;&#x303;" horiz-adv-x="1060" 
d="M1008 485q0 -215 -134 -360t-344 -145q-211 0 -344 145t-133 360t133 361t344 147q210 -1 344 -147t134 -361zM881 487q-1 168 -97 282t-254 114t-254 -114t-96 -282q0 -167 96 -281t254 -114t254 114t97 281zM725 1067h-111l-84 145l-81 -145h-113l160 236h71zM416 1386
h-90q0 61 29 104q30 42 76 42t98 -28t79 -27q39 0 39 55h88q-4 -156 -121 -156q-26 0 -90 29q-63 29 -85 30q-23 1 -23 -49z" />
    <glyph glyph-name="uni1ED7" unicode="&#xf4;&#x303;" horiz-adv-x="884" 
d="M684 352q0 111 -68 186q-68 74 -174 74t-174 -74t-68 -186t68 -186t174 -74t174 74t68 186zM811 352q0 -156 -104 -262q-105 -106 -265 -106t-264 106t-104 262t104 264t264 107q160 1 264 -107t105 -264zM637 788h-111l-84 146l-82 -146h-112l160 236h71zM328 1083h-90
q0 61 29 104q30 42 76 42q46 1 98 -27t79 -28q39 0 39 55h88q-4 -156 -121 -156q-26 0 -90 29q-63 29 -85 30q-23 1 -23 -49z" />
    <glyph glyph-name="uni1ED8" unicode="&#xd4;&#x323;" horiz-adv-x="1060" 
d="M1008 485q0 -215 -134 -360t-344 -145q-211 0 -344 145t-133 360t133 361t344 147q210 -1 344 -147t134 -361zM881 487q-1 168 -97 282t-254 114t-254 -114t-96 -282q0 -167 96 -281t254 -114t254 114t97 281zM627 -197q0 -41 -29 -69t-68 -29q-40 0 -68 29
q-28 30 -28 70t29 69t67 29t68 -29q29 -29 29 -70zM725 1067h-111l-84 145l-81 -145h-113l160 236h71z" />
    <glyph glyph-name="uni1ED9" unicode="&#xf4;&#x323;" horiz-adv-x="843" 
d="M664 352q0 111 -68 186q-68 74 -174 74t-174 -74t-68 -186t68 -186t174 -74t174 74t68 186zM791 352q-1 -156 -105 -262t-264 -106t-264 106t-105 262q1 156 105 264t264 107q160 1 264 -107t105 -264zM518 -197q0 -41 -29 -69t-67 -29q-38 0 -68 29q-28 30 -28 70t28 69
q29 29 68 29q40 0 68 -29t28 -70zM616 788h-110l-84 146l-82 -146h-113l160 236h72z" />
    <glyph glyph-name="uni1EDA" unicode="&#x1a0;&#x301;" horiz-adv-x="1060" 
d="M881 487q-1 168 -97 282t-254 114t-254 -114t-96 -282q0 -167 96 -281t254 -114t254 114t97 281zM1008 488q0 -218 -134 -363t-344 -145q-211 0 -344 145t-133 360t133 361t344 147q147 0 263 -75q53 68 53 161h110q0 -119 -88 -227q140 -146 140 -364zM549 1303l117 -37
l-172 -199h-99z" />
    <glyph glyph-name="uni1EDB" unicode="&#x1a1;&#x301;" horiz-adv-x="884" 
d="M664 352q0 111 -68 186q-68 74 -174 74t-174 -74t-68 -186t68 -186t174 -74t174 74t68 186zM791 352q-1 -156 -105 -262t-264 -106t-264 106t-105 262q1 156 105 264t256 107q152 0 254 -92q41 68 41 145h110q0 -113 -86 -223q58 -90 58 -201zM461 1024l117 -37
l-172 -199h-99z" />
    <glyph glyph-name="uni1EDC" unicode="&#x1a0;&#x300;" horiz-adv-x="1060" 
d="M881 487q-1 168 -97 282t-254 114t-254 -114t-96 -282q0 -167 96 -281t254 -114t254 114t97 281zM1008 488q0 -218 -134 -363t-344 -145q-211 0 -344 145t-133 360t133 361t344 147q147 0 263 -75q53 68 53 161h110q0 -119 -88 -227q140 -146 140 -364zM666 1067h-99
l-172 199l117 37z" />
    <glyph glyph-name="uni1EDD" unicode="&#x1a1;&#x300;" horiz-adv-x="884" 
d="M664 352q0 111 -68 186q-68 74 -174 74t-174 -74t-68 -186t68 -186t174 -74t174 74t68 186zM791 352q-1 -156 -105 -262t-264 -106t-264 106t-105 262q1 156 105 264t256 107q152 0 254 -92q41 68 41 145h110q0 -113 -86 -223q58 -90 58 -201zM578 788h-99l-172 199
l117 37z" />
    <glyph glyph-name="uni1EDE" unicode="&#x1a0;&#x309;" horiz-adv-x="1060" 
d="M881 487q-1 168 -97 282t-254 114t-254 -114t-96 -282q0 -167 96 -281t254 -114t254 114t97 281zM1008 488q0 -218 -134 -363t-344 -145q-211 0 -344 145t-133 360t133 361t344 147q147 0 263 -75q53 68 53 161h110q0 -119 -88 -227q140 -146 140 -364zM540 1391
q62 -1 100 -31t38 -80t-18 -79q-18 -28 -57 -72q-38 -44 -40 -78h-92q0 50 59 109q23 24 41 46q19 22 19 52t-16 41t-46 11q-32 0 -58 -22q-26 -23 -34 -35l-53 45q16 33 55 63q40 30 102 30z" />
    <glyph glyph-name="uni1EDF" unicode="&#x1a1;&#x309;" horiz-adv-x="884" 
d="M664 352q0 111 -68 186q-68 74 -174 74t-174 -74t-68 -186t68 -186t174 -74t174 74t68 186zM791 352q-1 -156 -105 -262t-264 -106t-264 106t-105 262q1 156 105 264t256 107q152 0 254 -92q41 68 41 145h110q0 -113 -86 -223q58 -90 58 -201zM452 1112q62 0 100 -30
t38 -82q0 -50 -18 -78t-57 -71q-38 -44 -40 -79h-92q0 48 59 110q23 24 41 46q19 22 19 52q1 51 -58 52q-36 0 -62 -22t-34 -35l-53 45q16 32 55 62q40 30 102 30z" />
    <glyph glyph-name="uni1EE0" unicode="&#x1a0;&#x303;" horiz-adv-x="1060" 
d="M881 487q-1 168 -97 282t-254 114t-254 -114t-96 -282q0 -167 96 -281t254 -114t254 114t97 281zM1008 488q0 -218 -134 -363t-344 -145q-211 0 -344 145t-133 360t133 361t344 147q147 0 263 -75q53 68 53 161h110q0 -119 -88 -227q140 -146 140 -364zM440 1116
q-24 0 -24 -49h-90q0 61 29 103q31 42 75 42t100 -28t78 -27q39 0 39 55h88q-4 -155 -121 -155q-27 0 -137 50q-23 9 -37 9z" />
    <glyph glyph-name="uni1EE1" unicode="&#x1a1;&#x303;" horiz-adv-x="884" 
d="M664 352q0 111 -68 186q-68 74 -174 74t-174 -74t-68 -186t68 -186t174 -74t174 74t68 186zM791 352q-1 -156 -105 -262t-264 -106t-264 106t-105 262q1 156 105 264t256 107q152 0 254 -92q41 68 41 145h110q0 -113 -86 -223q58 -90 58 -201zM328 788h-90q0 61 29 104
q30 42 76 42t98 -28q52 -27 79 -27q39 0 39 55h88q-4 -156 -121 -156q-26 0 -90 29q-63 29 -85 30q-23 1 -23 -49z" />
    <glyph glyph-name="uni1EE2" unicode="&#x1a0;&#x323;" horiz-adv-x="1060" 
d="M881 487q-1 168 -97 282t-254 114t-254 -114t-96 -282q0 -167 96 -281t254 -114t254 114t97 281zM1008 488q0 -218 -134 -363t-344 -145q-211 0 -344 145t-133 360t133 361t344 147q147 0 263 -75q53 68 53 161h110q0 -119 -88 -227q140 -146 140 -364zM627 -197
q0 -41 -29 -69t-68 -29q-40 0 -68 29q-28 30 -28 70t29 69t67 29t68 -29q29 -29 29 -70z" />
    <glyph glyph-name="uni1EE3" unicode="&#x1a1;&#x323;" horiz-adv-x="884" 
d="M664 352q0 111 -68 186q-68 74 -174 74t-174 -74t-68 -186t68 -186t174 -74t174 74t68 186zM791 352q-1 -156 -105 -262t-264 -106t-264 106t-105 262q1 156 105 264t256 107q152 0 254 -92q41 68 41 145h110q0 -113 -86 -223q58 -90 58 -201zM539 -197q0 -41 -29 -69
t-68 -29q-40 0 -68 29q-28 30 -28 70t29 69t67 29t68 -29q29 -29 29 -70z" />
    <glyph glyph-name="uni1EE4" unicode="U&#x323;" horiz-adv-x="987" 
d="M885 416q0 -434 -391 -434t-392 434v559h131v-559q1 -324 261 -324t260 324v559h131v-559zM590 -197q0 -41 -29 -69t-67 -29q-38 0 -68 29q-29 30 -29 70t29 69t68 29q40 0 68 -29t28 -70z" />
    <glyph glyph-name="uni1EE5" unicode="u&#x323;" horiz-adv-x="856" 
d="M102 315v381h129v-368q0 -231 177 -232q74 0 146 56t71 133v411h129v-510q0 -69 43 -178l-125 -24q-20 49 -37 118q-123 -121 -244 -120q-289 0 -289 333zM524 -197q0 -41 -28 -69t-68 -29q-39 0 -68 29q-28 30 -28 70t28 69q29 29 68 29q40 0 68 -29t28 -70z" />
    <glyph glyph-name="uni1EE6" unicode="U&#x309;" horiz-adv-x="987" 
d="M885 416q0 -434 -391 -434t-392 434v559h131v-559q1 -324 261 -324t260 324v559h131v-559zM641 1270q0 -50 -18 -78t-57 -70q-39 -43 -40 -80h-92q0 50 60 110q23 24 41 46t18 52t-15 41t-46 11t-58 -22q-27 -23 -35 -35l-53 45q16 33 55 63q39 29 101 29t101 -30
q38 -32 38 -82z" />
    <glyph glyph-name="uni1EE7" unicode="u&#x309;" horiz-adv-x="856" 
d="M102 315v381h129v-368q0 -231 177 -232q74 0 146 56t71 133v411h129v-510q0 -69 43 -178l-125 -24q-20 49 -37 118q-123 -121 -244 -120q-289 0 -289 333zM437 1104q62 0 100 -30t38 -82q0 -50 -18 -78t-57 -71t-39 -79h-92q0 50 59 110t59 94t-15 45t-46 11
q-32 0 -58 -23t-34 -34l-53 45q16 32 55 62t101 30z" />
    <glyph glyph-name="uni1EE8" unicode="&#x1af;&#x301;" horiz-adv-x="987" 
d="M885 416q0 -434 -391 -434t-392 434v559h131v-559q1 -324 261 -324t260 324v559h131v-82q45 25 72 79q28 54 28 107h111q-6 -96 -66 -185t-145 -120v-358zM512 1303l117 -37l-172 -199h-99z" />
    <glyph glyph-name="uni1EE9" unicode="&#x1b0;&#x301;" horiz-adv-x="847" 
d="M385 -18q-289 0 -289 333v381h129v-368q0 -231 176 -232q74 0 146 56t71 133v411h130v-125q41 23 72 79q32 56 32 110h111q0 -80 -63 -176t-152 -129v-269q0 -69 43 -178l-125 -24q-18 39 -31 98q-129 -100 -250 -100zM442 1024l117 -37l-172 -199h-98z" />
    <glyph glyph-name="uni1EEA" unicode="&#x1af;&#x300;" horiz-adv-x="987" 
d="M885 416q0 -434 -391 -434t-392 434v559h131v-559q1 -324 261 -324t260 324v559h131v-82q45 25 72 79q28 54 28 107h111q-6 -96 -66 -185t-145 -120v-358zM629 1067h-99l-172 199l117 37z" />
    <glyph glyph-name="uni1EEB" unicode="&#x1b0;&#x300;" horiz-adv-x="847" 
d="M385 -18q-289 0 -289 333v381h129v-368q0 -231 176 -232q74 0 146 56t71 133v411h130v-125q41 23 72 79q32 56 32 110h111q0 -80 -63 -176t-152 -129v-269q0 -69 43 -178l-125 -24q-18 39 -31 98q-129 -100 -250 -100zM559 788h-98l-172 199l117 37z" />
    <glyph glyph-name="uni1EEC" unicode="&#x1af;&#x309;" horiz-adv-x="987" 
d="M885 416q0 -434 -391 -434t-392 434v559h131v-559q1 -324 261 -324t260 324v559h131v-82q45 25 72 79q28 54 28 107h111q-6 -96 -66 -185t-145 -120v-358zM641 1270q0 -50 -18 -78t-57 -70q-39 -43 -40 -80h-92q0 50 60 110q23 24 41 46t18 52t-15 41t-46 11t-58 -22
q-27 -23 -35 -35l-53 45q16 33 55 63q39 29 101 29t101 -30q38 -32 38 -82z" />
    <glyph glyph-name="uni1EED" unicode="&#x1b0;&#x309;" horiz-adv-x="847" 
d="M385 -18q-289 0 -289 333v381h129v-368q0 -231 176 -232q74 0 146 56t71 133v411h130v-125q41 23 72 79q32 56 32 110h111q0 -80 -63 -176t-152 -129v-269q0 -69 43 -178l-125 -24q-18 39 -31 98q-129 -100 -250 -100zM433 1104q62 0 100 -30t38 -82q0 -50 -18 -78
t-57 -71t-39 -79h-92q0 50 59 110t59 94t-15 45t-46 11q-32 0 -58 -23t-34 -34l-54 45q16 32 56 62t101 30z" />
    <glyph glyph-name="uni1EEE" unicode="&#x1af;&#x303;" horiz-adv-x="987" 
d="M885 416q0 -434 -391 -434t-392 434v559h131v-559q1 -324 261 -324t260 324v559h131v-82q45 25 72 79q28 54 28 107h111q-6 -96 -66 -185t-145 -120v-358zM403 1116q-24 0 -24 -49h-90q0 61 29 103q30 42 74 42t101 -28q58 -28 78 -27q39 0 39 55h88q-4 -155 -120 -155
q-28 0 -138 50q-23 9 -37 9z" />
    <glyph glyph-name="uni1EEF" unicode="&#x1b0;&#x303;" horiz-adv-x="847" 
d="M385 -18q-289 0 -289 333v381h129v-368q0 -231 176 -232q74 0 146 56t71 133v411h130v-125q41 23 72 79q32 56 32 110h111q0 -80 -63 -176t-152 -129v-269q0 -69 43 -178l-125 -24q-18 39 -31 98q-129 -100 -250 -100zM309 788h-90q0 62 30 104t76 42t98 -28t79 -27
q39 0 39 55h88q-4 -156 -121 -156q-26 0 -90 29q-63 29 -86 30t-23 -49z" />
    <glyph glyph-name="uni1EF0" unicode="&#x1af;&#x323;" horiz-adv-x="987" 
d="M885 416q0 -434 -391 -434t-392 434v559h131v-559q1 -324 261 -324t260 324v559h131v-82q45 25 72 79q28 54 28 107h111q-6 -96 -66 -185t-145 -120v-358zM590 -197q0 -41 -29 -69t-67 -29q-38 0 -68 29q-29 30 -29 70t29 69t68 29q40 0 68 -29t28 -70z" />
    <glyph glyph-name="uni1EF1" unicode="&#x1b0;&#x323;" horiz-adv-x="847" 
d="M385 -18q-289 0 -289 333v381h129v-368q0 -231 176 -232q74 0 146 56t71 133v411h130v-125q41 23 72 79q32 56 32 110h111q0 -80 -63 -176t-152 -129v-269q0 -69 43 -178l-125 -24q-18 39 -31 98q-129 -100 -250 -100zM520 -197q0 -41 -28 -69t-68 -29q-39 0 -68 29
q-28 30 -28 70t28 69q29 29 68 29q40 0 68 -29t28 -70z" />
    <glyph glyph-name="Ygrave" unicode="Y&#x300;" horiz-adv-x="811" 
d="M471 0h-127v426l-356 549h149l271 -438l268 438h147l-352 -547v-428zM541 1067h-99l-172 199l117 37z" />
    <glyph glyph-name="ygrave" unicode="y&#x300;" horiz-adv-x="739" 
d="M66 -309l-33 106q182 41 268 254l-309 645h141l242 -516l229 516h141l-319 -682q-129 -272 -360 -323zM504 788h-98l-173 199l117 37z" />
    <glyph glyph-name="uni1EF4" unicode="Y&#x323;" horiz-adv-x="811" 
d="M471 0h-127v426l-356 549h149l271 -438l268 438h147l-352 -547v-428zM502 -197q0 -41 -29 -69t-67 -29q-38 0 -68 29q-29 30 -29 70t29 69t68 29q40 0 68 -29t28 -70z" />
    <glyph glyph-name="uni1EF5" unicode="y&#x323;" horiz-adv-x="739" 
d="M66 -309l-33 106q182 41 268 254l-309 645h141l242 -516l229 516h141l-319 -682q-129 -272 -360 -323zM688 -197q0 -41 -29 -69t-67 -29q-38 0 -68 29q-28 30 -28 70t28 69q29 29 68 29q40 0 68 -29t28 -70z" />
    <glyph glyph-name="uni1EF6" unicode="Y&#x309;" horiz-adv-x="811" 
d="M471 0h-127v426l-356 549h149l271 -438l268 438h147l-352 -547v-428zM553 1270q0 -50 -18 -78t-57 -70q-39 -43 -40 -80h-92q0 50 59 110t59 94q1 34 -14 45t-46 11t-58 -22q-27 -23 -35 -35l-53 45q16 33 55 63q39 29 101 29t101 -30q38 -32 38 -82z" />
    <glyph glyph-name="uni1EF7" unicode="y&#x309;" horiz-adv-x="739" 
d="M66 -309l-33 106q182 41 268 254l-309 645h141l242 -516l229 516h141l-319 -682q-129 -272 -360 -323zM378 1104q62 0 100 -30t38 -82q0 -50 -18 -78t-57 -71t-40 -79h-92q-1 49 59 110t60 94q0 34 -15 45t-46 11t-58 -23t-35 -34l-53 45q16 32 55 62q40 30 102 30z" />
    <glyph glyph-name="uni1EF8" unicode="Y&#x303;" horiz-adv-x="811" 
d="M471 0h-127v426l-356 549h149l271 -438l268 438h147l-352 -547v-428zM315 1116q-24 0 -24 -49h-90q0 61 29 103q30 42 74 42t101 -28q56 -28 78 -27q39 0 39 55h88q-4 -155 -121 -155q-27 0 -137 50q-23 9 -37 9z" />
    <glyph glyph-name="uni1EF9" unicode="y&#x303;" horiz-adv-x="739" 
d="M66 -309l-33 106q182 41 268 254l-309 645h141l242 -516l229 516h141l-319 -682q-129 -272 -360 -323zM254 788h-90q0 62 30 104t76 42t98 -28t78 -27q39 0 39 55h88q-4 -156 -120 -156q-26 0 -89 29t-87 30q-23 1 -23 -49z" />
    <glyph glyph-name="uni0E4F.liga" unicode="&#xe4f;&#x22;" horiz-adv-x="919" 
d="M115 334q0 144 101 244q100 102 242 102t246 -104t103 -244q0 -140 -101 -242q-100 -102 -244 -102t-246 101q-101 101 -101 245zM461 57q113 0 193 82t81 196q0 113 -80 193q-79 80 -193 80t-195 -80t-81 -194t81 -196q81 -81 194 -81zM664 334q0 -84 -60 -144t-143 -61
q-84 0 -144 60q-59 61 -59 145t59 143t143 59t144 -58q60 -60 60 -144zM592 333q0 54 -38 93t-93 39t-93 -39t-38 -93t38 -92t93 -38t93 38t38 92zM351 709h-73l-22 317h117zM551 709h-75l-21 317h116z" />
    <glyph glyph-name="uni0E24.liga" unicode="&#xe24;&#xe32;" horiz-adv-x="1224" 
d="M338 137q0 29 -20 49t-50 20q-29 0 -49 -20t-20 -49t20 -49t49 -20q30 0 50 20t20 49zM833 834q131 0 209 -58t78 -178v-885h-127v883q0 57 -39 93q-38 36 -106 36q-68 1 -108 -41t-46 -98q3 -22 2 -45v-828h-127v830q0 84 -51 133t-135 49q-123 0 -186 -104
q96 -18 137 -93q-104 -61 -105 -147v-96q14 8 39 8q64 0 108 -44t44 -110q0 -67 -45 -111t-112 -44t-113 47t-48 119v239q0 86 84 135q-51 35 -125 25q5 127 95 206t230 79t225 -79l18 -18q74 97 204 97z" />
    <glyph glyph-name="uni0E26.liga" unicode="&#xe26;&#xe32;" horiz-adv-x="1288" 
d="M461 834q148 0 232 -95q9 12 21 22q76 73 194 73t197 -58t79 -178v-885h-127v883q0 57 -39 93t-107 36q-68 -1 -104 -39t-47 -82q6 -30 6 -63v-828h-127v830q0 12 -1 22h-5l2 22q-11 52 -57 95t-129 43q-125 0 -183 -104q100 -20 137 -93q-55 -32 -77 -58t-23 -76
q0 -50 10 -135q11 -85 11 -135t-44 -96q-44 -44 -109 -44t-110 45t-45 109t45 110t107 45q25 0 31 -6l-13 127q0 72 70 110q-55 35 -125 25q2 127 92 206t238 79zM242 139q0 29 -20 49t-50 20q-29 0 -49 -20q-21 -20 -21 -49t20 -49t50 -20t50 20t20 49z" />
    <glyph glyph-name="fi" unicode="fi" horiz-adv-x="829" 
d="M733 696v-696h-129v590h-323v-590h-129v590h-117v106h119q0 166 88 258.5t232 92.5t239 -111l-68 -92q-80 92 -166 92t-142 -65t-56 -175h452z" />
    <glyph glyph-name="fl" unicode="fl" horiz-adv-x="931" 
d="M604 358v527q-61 51 -136 51t-131 -65t-56 -175h241v-106h-241v-590h-129v590h-117v106h119q0 166 88 258.5t240 92.5t251 -132v-528q1 -159 47 -219t144 -68l-15 -116q-305 14 -305 374z" />
    <glyph glyph-name="PSK" unicode="PSK&#x2e;Design&#x28;c&#x29;" horiz-adv-x="1953" 
d="M582 0h-66v88h21v-70h45v-18zM1470 0q0 33 -18 35h-14v-35h-21v88h43q31 0 31 -22q0 -16 -16 -23q12 -4 20 -43h-25zM1438 53h14q14 0 14 9t-14 10h-14v-19zM1145 0q0 33 -19 35h-14v-35h-25v88h46q32 1 32 -22q0 -16 -16 -23q12 -4 20 -43h-24zM1126 53q15 0 15 9
t-15 10h-14v-19h14zM1921 1380q0 43 -30.5 73t-72.5 30t-71 -30t-29 -73t29 -71.5t71 -28.5t72.5 28.5t30.5 71.5zM1939 1382.5q0 -53.5 -34.5 -86t-86.5 -32.5t-86 32.5t-34 86t34 87t86 33.5t86.5 -33.5t34.5 -87zM1151 831q0 -162 -119 -237q-94 -62 -230 -62t-207 53.5
t-71 149.5q0 33 8 64h78q-2 -14 -2 -35q0 -162 203 -162q90 0 162 43q92 55 92 158q0 78 -107 119q-96 33 -194 65q-106 45 -107 131q1 140 101 208t226 68t186.5 -42.5t60.5 -120.5q0 -31 -10 -68h-74q4 29 4 39q0 123 -129 123t-201.5 -47t-72.5 -127q0 -53 36.5 -80
t154.5 -60.5t165 -73.5t47 -106zM1776 408h-1657v51h1657v-51zM224 162q-89 0 -89 87t101 87q76 0 83 -62h-53q-2 27 -35 27q-47 0 -47 -51t45 -51q35 0 37 24h53q-6 -61 -95 -61zM1245 18v-18h-69v88h67v-18h-45v-17h43v-16h-43v-19h47zM1657 0h-68v88h68v-18h-43v-17h41
v-16h-41v-19h43v-18zM1331 27q0 -29 -39 -29t-39 33h23q0 -15 15 -15t16 9q0 2 -26 11t-26 25q0 29 37 29t37 -29h-22q0 12 -14.5 12.5t-14.5 -9.5t26.5 -15.5t26.5 -21.5zM997 231h-28v-61h-47v162h92q70 0 69 -43q0 -27 -34 -39q31 -6 30 -39l8 -41h-45l-10 41
q-2 20 -35 20zM1036 281q0 16 -37 16h-30v-39h30q37 0 37 23zM1769 295h-67v-125h-47v125h-64v37h178v-37zM1573 170h-47v66h-82v-66h-49v162h49v-64h82v64h47v-162zM1284 166q-104 0 -104 84t91 84t97 -55h-53q-4 23 -37 22q-49 0 -49 -51t55 -51l33 4v28h-39v27h90v-82
q-37 -10 -84 -10zM1157 170h-51v162h51v-162zM1036 70h-28v-70h-25v70h-31v18h84v-18zM946 0h-22v37h-45v-37h-23v88h23v-35h45v35h22v-88zM805 -2q-53 0 -53 46t51 46q39 0 41 -33h-23q-2 14 -18 15q-27 0 -27 -28t29 -28q10 0 16 2v15h-18v16h41v-43q-18 -8 -39 -8z
M739 88v-88h-18v88h18zM684 0q0 33 -20 35h-13v-35h-22v88h43q35 1 35 -22q0 -16 -17 -23q12 -4 21 -43h-27zM664 53q16 0 16 9t-16 10h-13v-19h13zM510 0h-66v88h21v-70h45v-18zM1708 88q49 0 49 -44t-49 -44h-41v88h41zM1708 20q27 0 27 25t-27 25h-16v-50h16zM1585 88
l-35 -88h-24l-37 88h24l25 -65l25 65h22zM1411 0h-70v88h70v-18h-47v-17h43v-16h-43v-19h47v-18zM440 0h-26l-8 18h-41l-9 -18h-24l41 88h30zM401 35l-14 35l-16 -35h30zM827 170h-47v57l-73 105h53l49 -70q6 8 45 70h47l-74 -107v-55zM713 276.5q0 -55.5 -78 -55.5h-35v-51
h-43v162h84q72 0 72 -55.5zM666 274q0 22 -35 23h-31v-43h31q35 -2 35 20zM535 247q1 -85 -101 -85t-102 85t102 85t101 -85zM379 248q0 -51 53 -51t53 51t-53 51t-53 -51zM1815 1311q-63 0 -63.5 73.5t63.5 73.5q55 0 59 -49h-33q-6 20 -26 21q-27 0 -27 -46t29 -47
q23 0 24 27h35q-10 -53 -61 -53zM1427 750h-122v460h122v-196l168 196h144l-183 -204l197 -256h-158l-168 233v-233zM373 1210q182 0 182 -148t-205 -149h-84v-163h-119v460h226zM344 1006q90 0 90 58t-90 58h-78v-116h78z" />
    <glyph glyph-name=".notdef" horiz-adv-x="1429" 
d="M1247 63v1530h-1065v-1530h1065zM1321 0h-1212v1657h1212v-1657z" />
    <glyph glyph-name=".null" 
 />
    <glyph glyph-name="glyph2" horiz-adv-x="442" 
 />
    <glyph glyph-name="space" unicode=" " horiz-adv-x="462" 
 />
    <glyph glyph-name="exclam" unicode="!" horiz-adv-x="344" 
d="M270 80q0 -41 -28.5 -69.5t-69.5 -28.5t-69.5 28.5t-28.5 69.5t28.5 69.5t69.5 28.5t69.5 -28.5t28.5 -69.5zM227 285h-114l-15 690h148z" />
    <glyph glyph-name="quotedbl" unicode="&#x22;" horiz-adv-x="595" 
d="M219 682h-92l-27 395h146zM469 682h-94l-27 395h146z" />
    <glyph glyph-name="numbersign" unicode="#" horiz-adv-x="946" 
d="M590 399l24 183h-262l-22 -183h260zM68 291v108h141l24 183h-139v110h152l39 281h116l-34 -281h260l35 281h120l-34 -281h129v-110h-146l-22 -183h137v-108h-148l-39 -291h-120l41 291h-265l-34 -291h-121l35 291h-127z" />
    <glyph glyph-name="dollar" unicode="$" horiz-adv-x="751" 
d="M664 286q0 -89 -61.5 -159t-166.5 -92v-148h-121v144q-135 12 -227 84l55 98q90 -72 215 -72q82 0 131.5 38t49.5 100q0 96 -166 165q-260 111 -260 261q0 88 58 151.5t161 83.5v152h119v-150q96 -12 196 -68l-61 -100q-70 59 -191 60q-68 0 -112.5 -32t-44.5 -87
q0 -78 180 -158q135 -59 190.5 -120.5t55.5 -150.5z" />
    <glyph glyph-name="percent" unicode="%" horiz-adv-x="1409" 
d="M1206 286q0 192 -123 191q-121 0 -121 -191t121 -192q123 0 123 192zM1329 284q0 -300 -245 -300q-244 0 -244 300t244 300t245 -300zM444 694q0 190 -120 191q-120 -1 -121 -191q1 -190 121 -190t120 190zM565 693q-1 -300 -243 -300t-242 300t242 300t243 -300z
M444 -18h-125l625 993h125z" />
    <glyph glyph-name="ampersand" unicode="&#x26;" horiz-adv-x="995" 
d="M201 283q0 -84 59 -137.5t150 -53.5q135 0 229 82l-297 303q-141 -80 -141 -194zM567 786q0 117 -116 117q-61 0 -98.5 -41t-37.5 -100.5t76 -151.5q176 88 176 176zM72 274q0 182 194 289q-76 97 -76 197t75 174t183 74t173 -60.5t65 -154.5q0 -162 -233 -271
q92 -102 260 -264q100 131 114 287h109q-29 -221 -137 -363q96 -88 172 -153l-111 -58l-139 127q-163 -116 -315 -116t-243 86t-91 206z" />
    <glyph glyph-name="quotesingle" unicode="'" horiz-adv-x="346" 
d="M219 682h-92l-27 395h146z" />
    <glyph glyph-name="parenleft" unicode="(" horiz-adv-x="499" 
d="M90 470q0 333 236 615h151q-260 -285 -260 -596t258 -602h-143q-242 250 -242 583z" />
    <glyph glyph-name="parenright" unicode=")" horiz-adv-x="499" 
d="M408 488q0 -337 -242 -601h-141q256 305 256 601t-258 597h141q244 -260 244 -597z" />
    <glyph glyph-name="asterisk" unicode="*" horiz-adv-x="702" 
d="M545 567l-105 -61l-90 176l-90 -176l-104 61l127 158l-203 -18v106l203 -16l-127 157l104 62l90 -176l90 176l105 -62l-127 -157l203 16v-104l-203 16z" />
    <glyph glyph-name="plus" unicode="+" horiz-adv-x="854" 
d="M492 0h-130v322h-303v112h303v309h130v-309h303v-112h-303v-322z" />
    <glyph glyph-name="comma" unicode="," horiz-adv-x="352" 
d="M281 76q0 -203 -187 -295l-43 59q109 66 125 144q-98 6 -98 102q0 43 29.5 72.5t71.5 29.5t72 -31.5t30 -80.5z" />
    <glyph glyph-name="hyphen" unicode="-" horiz-adv-x="462" 
d="M436 322h-409v110h409v-110z" />
    <glyph glyph-name="hyphen" unicode="&#xad;" horiz-adv-x="462" 
d="M436 322h-409v110h409v-110z" />
    <glyph glyph-name="period" unicode="." horiz-adv-x="352" 
d="M274 80q0 -41 -28.5 -69.5t-69.5 -28.5t-69.5 28.5t-28.5 69.5t28.5 69.5t69.5 28.5t69.5 -28.5t28.5 -69.5z" />
    <glyph glyph-name="slash" unicode="/" horiz-adv-x="565" 
d="M70 -57h-131l546 1065h131z" />
    <glyph glyph-name="zero" unicode="0" horiz-adv-x="774" 
d="M584 481q0 172 -49.5 279.5t-148.5 107.5t-148.5 -107.5t-49.5 -279.5t49.5 -279.5t148.5 -107.5t148.5 107.5t49.5 279.5zM715 481q0 -207 -86 -353t-243 -146t-243 146t-86 353t86 353.5t243 146.5t243 -146.5t86 -353.5z" />
    <glyph glyph-name="one" unicode="1" horiz-adv-x="774" 
d="M629 0h-432v104h151v680l-129 -108l-76 84l260 219q76 0 76 -98v-777h150v-104z" />
    <glyph glyph-name="two" unicode="2" horiz-adv-x="774" 
d="M578 725q0 135 -159 135t-190 -182l-120 31q14 131 99 201t211 69q126 0 208 -74t82 -180t-107 -233q-66 -76 -211 -204t-176 -173h522l-24 -115h-664q16 90 35 147q53 66 326 320q168 158 168 258z" />
    <glyph glyph-name="three" unicode="3" horiz-adv-x="774" 
d="M707 338q0 -160 -114 -257t-298 -97q-139 0 -242 86l58 104q92 -66 201 -66t187.5 68t78.5 146t-42 122.5t-112 44.5t-139 -59l-56 90q99 57 185 136t86 132q0 80 -113 80q-74 0 -136.5 -47t-88.5 -110l-92 47q39 102 126 161.5t191 59.5t170 -51t66 -136t-127 -194
q96 -18 153.5 -88t57.5 -172z" />
    <glyph glyph-name="four" unicode="4" horiz-adv-x="774" 
d="M600 0h-131v217h-412q0 256 162 511t381 273v-673h131l-14 -111h-117v-217zM469 328v499q-98 -63 -177 -206.5t-106 -292.5h283z" />
    <glyph glyph-name="five" unicode="5" horiz-adv-x="774" 
d="M709 330q0 -146 -113 -246t-278 -100t-265 88l56 94q115 -72 215 -72t177 71t77 168t-57.5 145t-154 48t-124.5 -67l-82 -4l35 520h487l-23 -111h-340l-14 -237q37 16 88 16q135 0 225.5 -83.5t90.5 -229.5z" />
    <glyph glyph-name="six" unicode="6" horiz-adv-x="774" 
d="M580 307q0 82 -53.5 145.5t-129.5 63.5t-130 -60.5t-54 -147.5t54.5 -148.5t130.5 -61.5t129 63.5t53 145.5zM698 306q0 -136 -83 -229t-219 -93t-229 100t-93 266q0 236 155.5 416t405.5 229l12 -102q-129 -35 -245.5 -126t-168.5 -204q63 63 181 63t201 -92t83 -228z
" />
    <glyph glyph-name="seven" unicode="7" horiz-adv-x="774" 
d="M403 0h-133q16 571 289 864h-502l31 111h637l-18 -111q-158 -197 -231 -390t-73 -474z" />
    <glyph glyph-name="eight" unicode="8" horiz-adv-x="774" 
d="M711 274q0 -135 -88.5 -212.5t-236.5 -77.5t-235.5 77.5t-87.5 212.5q0 82 46.5 152t117.5 102q-133 72 -133 189t83 190.5t210 73.5t210 -73.5t83 -190.5t-133 -189q72 -33 118 -102.5t46 -151.5zM557 727q0 61 -47 102t-123 41t-123 -41t-47 -102q0 -100 168 -147
q172 47 172 147zM586 266q0 78 -51.5 139.5t-147.5 67.5q-96 -6 -147.5 -67.5t-51.5 -139.5t55.5 -125t143.5 -47t143.5 47t55.5 125z" />
    <glyph glyph-name="nine" unicode="9" horiz-adv-x="774" 
d="M559 654q0 87 -54 148.5t-130 61.5t-129 -63.5t-53 -145.5t53 -145.5t129 -63.5t130 60.5t54 147.5zM698 612q0 -236 -155.5 -416t-405.5 -229l-12 103q125 33 249 131t173 200q-59 -66 -182 -65.5t-207 92.5t-84 228t83 229.5t219 93.5t229 -100.5t93 -266.5z" />
    <glyph glyph-name="colon" unicode=":" horiz-adv-x="352" 
d="M274 584q0 -41 -28.5 -70t-69.5 -29t-69.5 29t-28.5 70t28.5 69.5t69.5 28.5t69.5 -28.5t28.5 -69.5zM274 80q0 -41 -28.5 -69.5t-69.5 -28.5t-69.5 28.5t-28.5 69.5t28.5 69.5t69.5 28.5t69.5 -28.5t28.5 -69.5z" />
    <glyph glyph-name="semicolon" unicode=";" horiz-adv-x="352" 
d="M281 76q0 -203 -187 -295l-43 59q109 66 125 144q-98 6 -98 102q0 43 29.5 72.5t71.5 29.5t72 -31.5t30 -80.5zM274 584q0 -41 -28.5 -70t-69.5 -29t-69.5 29t-28.5 70t28.5 69.5t69.5 28.5t69.5 -28.5t28.5 -69.5z" />
    <glyph glyph-name="less" unicode="&#x3c;" horiz-adv-x="854" 
d="M780 -20l-706 368v84l706 367v-129l-542 -281l542 -280v-129z" />
    <glyph glyph-name="equal" unicode="=" horiz-adv-x="854" 
d="M760 199h-666v108h666v-108zM760 457h-666v106h666v-106z" />
    <glyph glyph-name="greater" unicode="&#x3e;" horiz-adv-x="854" 
d="M780 348l-706 -368v129l544 282l-544 279v129l706 -367v-84z" />
    <glyph glyph-name="question" unicode="?" horiz-adv-x="591" 
d="M375 80q0 -41 -29 -69.5t-69.5 -28.5t-69.5 28.5t-29 69.5t29 69.5t69.5 28.5t69.5 -28.5t29 -69.5zM543 756q0 -108 -135 -244q-92 -92 -95 -186q0 -31 15 -86h-117q-20 61 -21 92q0 100 112 229t112 195q0 117 -144 116q-88 0 -170 -59l-51 100q121 76 237 76
t186.5 -62.5t70.5 -170.5z" />
    <glyph glyph-name="at" unicode="@" horiz-adv-x="1171" 
d="M709 219v115q-311 -12 -312 -146q0 -96 113 -96q76 0 138 35t61 92zM1106 378q0 -180 -112 -272t-255 -92l-12 74q-96 -86 -219 -86q-88 0 -150.5 50t-62.5 126q0 223 407 234q0 156 -147 155q-80 0 -147 -43l-35 72q98 57 211 57t171 -71.5t58 -194.5v-213q0 -47 2 -65
h25q72 20 121 92.5t49 156.5q0 158 -106.5 263.5t-296.5 105.5t-315.5 -128t-125.5 -308t111.5 -291t275.5 -111q125 0 250 66l39 -82q-143 -68 -295 -68q-201 0 -340 132q-145 133 -145 349t162 370.5t388 154.5t360 -126.5t134 -306.5z" />
    <glyph glyph-name="A" unicode="A" horiz-adv-x="923" 
d="M606 436l-143 406l-152 -406h295zM926 0h-142l-129 326h-391l-127 -326h-139l410 989h110z" />
    <glyph glyph-name="B" unicode="B" horiz-adv-x="811" 
d="M623 286q0 93 -95 140q-72 35 -178 35h-119v-357q35 -6 103 -6q133 0 211 47.5t78 140.5zM582 727q0 147 -246 147q-43 0 -105 -6v-299h146q90 0 147.5 42t57.5 116zM750 283q0 -295 -435 -295q-92 0 -213 26v942q127 31 234 31q375 0 375 -258q0 -131 -123 -207
q162 -75 162 -239z" />
    <glyph glyph-name="C" unicode="C" horiz-adv-x="884" 
d="M53 484q0 222 121 364t348 141q174 0 318 -59l-41 -103q-123 51 -273 52q-188 0 -276 -140q-66 -101 -66 -251t72 -257q90 -135 257 -135t292 62l35 -107q-150 -65 -351 -65t-318.5 138t-117.5 360z" />
    <glyph glyph-name="D" unicode="D" horiz-adv-x="940" 
d="M756 508q0 367 -344 366q-57 0 -181 -12v-753q68 -6 170 -7q199 0 289 142q66 104 66 264zM887 501q0 -214 -107 -347q-131 -162 -403 -162q-84 0 -275 20v946q233 27 316 27q250 0 370 -149q99 -121 99 -335z" />
    <glyph glyph-name="E" unicode="E" horiz-adv-x="733" 
d="M682 0h-580v975h580v-111h-451v-295h402v-110h-402v-348h451v-111z" />
    <glyph glyph-name="F" unicode="F" horiz-adv-x="733" 
d="M231 0h-129v975h600v-111h-471v-307h443v-108h-443v-449z" />
    <glyph glyph-name="G" unicode="G" horiz-adv-x="929" 
d="M476 -14q-188 0 -305.5 138t-117.5 360t121 364t348 141q174 0 318 -59l-41 -103q-123 51 -273 52q-188 0 -276 -140q-66 -101 -66 -251t72 -257q90 -135 254 -135q121 0 209 33v277h-246v108h375v-491l-66 16q-118 -53 -306 -53z" />
    <glyph glyph-name="H" unicode="H" horiz-adv-x="966" 
d="M864 0h-129v463h-504v-463h-129v975h129v-402h504v402h129v-975z" />
    <glyph glyph-name="I" unicode="I" horiz-adv-x="333" 
d="M231 0h-129v975h129v-975z" />
    <glyph glyph-name="J" unicode="J" horiz-adv-x="577" 
d="M475 328q0 -346 -313 -346q-80 0 -174 38l35 107q59 -35 147 -35t132 57.5t44 198.5v627h129v-647z" />
    <glyph glyph-name="K" unicode="K" horiz-adv-x="841" 
d="M231 0h-129v975h129v-430l465 446l125 -33l-422 -403l457 -524l-123 -45l-422 483l-80 -78v-391z" />
    <glyph glyph-name="L" unicode="L" horiz-adv-x="735" 
d="M709 0h-607v975h129v-864h478v-111z" />
    <glyph glyph-name="M" unicode="M" horiz-adv-x="1175" 
d="M1116 0h-125l-53 756l-307 -756h-86l-307 756l-54 -756h-125l70 975h135l324 -811l323 811h136z" />
    <glyph glyph-name="N" unicode="N" horiz-adv-x="966" 
d="M864 0h-123l-510 791v-791h-129v975h129l504 -770v770h129v-975z" />
    <glyph glyph-name="O" unicode="O" horiz-adv-x="1060" 
d="M1008 485q0 -215 -133.5 -360t-344.5 -145t-344 145t-133 360t133 361.5t344 146.5t344.5 -146.5t133.5 -361.5zM881 487q0 168 -96.5 282t-254 114t-254 -114t-96.5 -282t96.5 -281.5t254 -113.5t254 113.5t96.5 281.5z" />
    <glyph glyph-name="P" unicode="P" horiz-adv-x="798" 
d="M618 688q0 186 -258 186q-70 0 -129 -6v-366q70 -12 117 -13q270 0 270 199zM748 688q0 -135 -114 -222t-300 -87q-47 0 -103 6v-385h-129v961q147 25 260 24q180 0 283 -81t103 -216z" />
    <glyph glyph-name="Q" unicode="Q" horiz-adv-x="1060" 
d="M1008 485q0 -164 -77 -283.5t-212 -166.5v-8q164 -41 297 -62l-41 -110q-156 41 -391 116q-10 4 -54 9q-211 0 -344 145t-133 360t133 361.5t344 146.5t344.5 -146.5t133.5 -361.5zM881 487q0 168 -96.5 282t-254 114t-254 -114t-96.5 -282t96.5 -281.5t254 -113.5
t254 113.5t96.5 281.5z" />
    <glyph glyph-name="R" unicode="R" horiz-adv-x="808" 
d="M389 530q232 0 232 171t-254 171q-82 0 -136 -6v-336h158zM395 424h-164v-424h-129v958q147 27 265 27q174 0 276 -73.5t102 -200.5q0 -168 -159 -242q76 -51 117.5 -149.5t74.5 -319.5h-129q-55 424 -254 424z" />
    <glyph glyph-name="S" unicode="S" horiz-adv-x="747" 
d="M694 258q0 -119 -101 -197.5t-258 -78.5t-296 88l55 116q118 -88 236 -88t175.5 44t57.5 118q0 123 -196 186q-289 92 -289 283q0 115 91 189.5t236.5 74.5t251.5 -65l-55 -103q-102 51 -194 51t-146.5 -39.5t-54.5 -97.5q0 -113 196 -176q160 -51 225.5 -118.5
t65.5 -186.5z" />
    <glyph glyph-name="T" unicode="T" horiz-adv-x="862" 
d="M498 0h-129v864h-361v111h846v-111h-356v-864z" />
    <glyph glyph-name="U" unicode="U" horiz-adv-x="987" 
d="M885 416q0 -434 -391.5 -434t-391.5 434v559h131v-559q0 -324 260.5 -324t260.5 324v559h131v-559z" />
    <glyph glyph-name="V" unicode="V" horiz-adv-x="864" 
d="M492 0h-119l-375 975h139l295 -799l295 799h139z" />
    <glyph glyph-name="W" unicode="W" horiz-adv-x="1253" 
d="M991 0h-119l-245 797l-246 -797h-119l-270 975h141l191 -778l241 778h123l242 -778l190 778h142z" />
    <glyph glyph-name="X" unicode="X" horiz-adv-x="872" 
d="M877 0h-154l-283 395l-286 -395h-156l362 500l-348 475h158l270 -381l265 381h159l-348 -475z" />
    <glyph glyph-name="Y" unicode="Y" horiz-adv-x="811" 
d="M471 0h-127v426l-356 549h149l271 -438l268 438h147l-352 -547v-428z" />
    <glyph glyph-name="Z" unicode="Z" horiz-adv-x="923" 
d="M55 0v82l633 782h-600l23 111h755v-84l-633 -780h664l-25 -111h-817z" />
    <glyph glyph-name="bracketleft" unicode="[" horiz-adv-x="479" 
d="M418 -158h-324v1239h324v-106h-203v-1028h203v-105z" />
    <glyph glyph-name="backslash" unicode="\" horiz-adv-x="548" 
d="M618 -55h-131l-532 1044h133z" />
    <glyph glyph-name="bracketright" unicode="]" horiz-adv-x="479" 
d="M385 -158h-324v105h203v1028h-203v106h324v-1239z" />
    <glyph glyph-name="asciicircum" unicode="^" horiz-adv-x="856" 
d="M807 311h-133l-238 518l-237 -518h-133l319 672h104z" />
    <glyph glyph-name="underscore" unicode="_" horiz-adv-x="770" 
d="M770 -358h-770v108h770v-108z" />
    <glyph glyph-name="grave" unicode="`" horiz-adv-x="430" 
d="M340 768h-98l-172 199l116 37z" />
    <glyph glyph-name="a" unicode="a" horiz-adv-x="751" 
d="M518 221v123q-334 -6 -334 -141q0 -109 121 -109q69 0 141 36t72 91zM313 -18q-118 0 -188 56t-72 152q0 260 465 267q-20 154 -168 153q-111 0 -244 -51l-14 117q139 41 264 41q291 0 291 -299v-232q0 -78 29 -180l-121 -24l-20 90q-104 -90 -222 -90z" />
    <glyph glyph-name="b" unicode="b" horiz-adv-x="890" 
d="M711 355q0 118 -63.5 189.5t-159.5 71.5t-172 -57t-76 -135v-160q0 -78 64 -124t172 -46t171.5 71.5t63.5 189.5zM838 356q0 -160 -103.5 -267t-255 -107t-248.5 94q0 -53 -6 -76h-123q8 100 9 186v846h129v-405q96 96 248 96t251 -103.5t99 -263.5z" />
    <glyph glyph-name="c" unicode="c" horiz-adv-x="710" 
d="M408 -18q-154 0 -254.5 103t-100.5 268t100.5 267.5t252.5 102.5t253 -61l-45 -107q-96 59 -199 59t-167 -72.5t-64 -190.5t63 -189.5t167 -71.5t200 60l45 -107q-97 -61 -251 -61z" />
    <glyph glyph-name="d" unicode="d" horiz-adv-x="890" 
d="M651 264v160q0 78 -75.5 135t-171.5 57t-160 -71.5t-64 -189.5t64 -189.5t172 -71.5t171.5 46t63.5 124zM411.5 -18q-151.5 0 -255 107t-103.5 267t99.5 263.5t251.5 103.5t247 -96v405h129v-846q0 -86 8 -186h-122q-6 23 -7 76q-96 -94 -247.5 -94z" />
    <glyph glyph-name="e" unicode="e" horiz-adv-x="800" 
d="M416 616q-84 0 -148.5 -50t-79.5 -130h433q-10 80 -65.5 130t-139.5 50zM418 -18q-150 0 -257.5 99t-107.5 265q-1 166 105 272t268 105q315 0 322 -395h-568q8 -111 79 -171.5t185 -60.5t261 54l14 -113q-151 -55 -301 -55z" />
    <glyph glyph-name="f" unicode="f" horiz-adv-x="520" 
d="M281 0h-129v590h-117v106h119q0 350 272 351q86 0 145 -46l-36 -96q-72 31 -113 31q-141 0 -141 -240h198v-106h-198v-590z" />
    <glyph glyph-name="g" unicode="g" horiz-adv-x="679" 
d="M485 458.5q0 61.5 -44 104.5t-105.5 43t-105.5 -43t-44 -104.5t44 -103.5t112 -42t105.5 42t37.5 103.5zM598 -92q0 -96 -69.5 -155.5t-191.5 -59.5t-239 69l45 103q109 -63 181 -63t114.5 29.5t42.5 70.5q0 61 -114 108q-86 35 -166 78t-80 113q0 33 18 84
q-73 79 -73 181t75.5 173.5t182.5 71.5h294v-88h-102q37 -15 57 -63t21 -91q0 -121 -66.5 -191.5t-191.5 -70.5q-45 0 -88 14q-10 -10 -10 -26q0 -31 147 -72q213 -59 213 -215z" />
    <glyph glyph-name="h" unicode="h" horiz-adv-x="866" 
d="M764 0h-129v391q0 92 -50 152.5t-136.5 60.5t-152 -61.5t-65.5 -134.5v-408h-129v1032h129v-411q95 94 235 94t219 -87t79 -235v-393z" />
    <glyph glyph-name="i" unicode="i" horiz-adv-x="333" 
d="M262 901q0 -41 -28.5 -69.5t-69.5 -28.5t-69.5 28.5t-28.5 69.5t28.5 69.5t69.5 28.5t69.5 -28.5t28.5 -69.5zM231 0h-129v696h129v-696z" />
    <glyph glyph-name="j" unicode="j" horiz-adv-x="350" 
d="M281 901q0 -41 -29 -69.5t-70 -28.5t-69.5 28.5t-28.5 69.5t28.5 69.5t69.5 28.5t70 -28.5t29 -69.5zM248 37q0 -317 -332 -326l-14 105q139 10 178 61t39 213v606h129v-659z" />
    <glyph glyph-name="k" unicode="k" horiz-adv-x="696" 
d="M231 0h-129v1032h129v-588l312 267l141 -25l-313 -276l362 -398l-133 -32l-319 356l-50 -41v-295z" />
    <glyph glyph-name="l" unicode="l" horiz-adv-x="436" 
d="M102 1032h129v-645q1 -158 47 -218t144 -69l-14 -116q-305 16 -306 374v674z" />
    <glyph glyph-name="m" unicode="m" horiz-adv-x="1302" 
d="M1200 0h-129v385q0 94 -46 159q-46 64 -120 64t-132 -53t-58 -115v-440h-129v420q0 188 -158 188q-70 0 -133.5 -62.5t-63.5 -129.5v-416h-129v512q0 127 -16 186h121q14 -35 14 -80q29 41 94.5 70t128.5 29q135 0 218 -115q109 115 262 115q121 0 198.5 -91t77.5 -239
v-387z" />
    <glyph glyph-name="n" unicode="n" horiz-adv-x="866" 
d="M764 0h-129v395q0 213 -195 213q-72 0 -140.5 -64.5t-68.5 -127.5v-416h-129v512q0 127 -16 186h121q14 -35 14 -84q98 102 237.5 102.5t222.5 -85.5t83 -236v-395z" />
    <glyph glyph-name="o" unicode="o" horiz-adv-x="843" 
d="M664 352.5q0 110.5 -68 185t-174.5 74.5t-174 -74.5t-67.5 -185t67.5 -185.5t174 -75t174.5 75t68 185.5zM791 352.5q0 -155.5 -104.5 -262t-264.5 -106.5t-264.5 106.5t-104.5 262t104.5 263t264.5 107.5t264.5 -107.5t104.5 -263z" />
    <glyph glyph-name="p" unicode="p" horiz-adv-x="882" 
d="M705 356q0 116 -67 188t-159 72t-170 -65.5t-78 -144.5v-115q0 -80 66.5 -138.5t172.5 -58.5t170.5 73t64.5 189zM829 358q0 -161 -103.5 -268.5t-253.5 -107.5t-241 84v-359h-129v764q0 170 -8 238h127l15 -76q109 90 253 90t242 -102t98 -263z" />
    <glyph glyph-name="q" unicode="q" horiz-adv-x="882" 
d="M651 291v115q0 80 -77.5 145t-169.5 65t-159 -72t-67 -188t64 -189t170 -73t172.5 58.5t66.5 138.5zM780 -293h-129v359q-89 -84 -239 -84t-254.5 107.5t-104.5 268.5t98.5 263t242.5 102t253 -90l15 76h126q-8 -68 -8 -238v-764z" />
    <glyph glyph-name="r" unicode="r" horiz-adv-x="503" 
d="M231 0h-129v461q0 164 -24 246h115q23 -37 22 -99q18 39 76.5 74t108.5 35t73 -6v-111q-16 4 -47 4q-195 0 -195 -233v-371z" />
    <glyph glyph-name="s" unicode="s" horiz-adv-x="606" 
d="M555 199q0 -96 -74.5 -156.5t-190.5 -60.5t-237 67l51 103q84 -57 181 -58q143 0 143 99q0 76 -139 118q-205 63 -205 195q0 88 68.5 148.5t186.5 60.5t200 -60l-47 -94q-72 53 -144 53t-107.5 -27.5t-35.5 -70.5q0 -53 149 -104q201 -70 201 -213z" />
    <glyph glyph-name="t" unicode="t" horiz-adv-x="528" 
d="M158 219v371h-140v106h140v191l129 55v-246h223v-106h-223v-369q0 -125 80 -125q51 0 114 23l15 -109q-68 -28 -149 -28t-135 63.5t-54 173.5z" />
    <glyph glyph-name="u" unicode="u" horiz-adv-x="856" 
d="M102 315v381h129v-368q0 -231 177 -232q74 0 145.5 56.5t71.5 132.5v411h129v-510q0 -69 43 -178l-125 -24q-20 49 -37 118q-123 -121 -244 -120q-289 0 -289 333z" />
    <glyph glyph-name="v" unicode="v" horiz-adv-x="733" 
d="M418 0h-103l-323 696h135l240 -536l239 536h135z" />
    <glyph glyph-name="w" unicode="w" horiz-adv-x="983" 
d="M817 0h-108l-217 559l-218 -559h-108l-174 696h133l104 -526l209 526h107l209 -526l104 526h133z" />
    <glyph glyph-name="x" unicode="x" horiz-adv-x="714" 
d="M737 0h-157l-224 268l-221 -268h-158l304 356l-285 340h156l206 -245l205 245h156l-285 -340z" />
    <glyph glyph-name="y" unicode="y" horiz-adv-x="739" 
d="M66 -309l-33 106q182 41 268 254l-309 645h141l242 -516l229 516h141l-319 -682q-129 -272 -360 -323z" />
    <glyph glyph-name="z" unicode="z" horiz-adv-x="733" 
d="M41 0v78l463 510h-443l25 108h594v-84l-461 -503h475l-18 -109h-635z" />
    <glyph glyph-name="braceleft" unicode="{" horiz-adv-x="522" 
d="M453 -180h-47q-246 0 -246 209q0 41 14 132t14 128q0 74 -127 78v106q127 4 127 76q0 43 -14 134t-14 128q0 209 246 209h47v-107h-54q-113 0 -118 -106q29 -173 29 -235t-26 -102t-61 -50q86 -35 86 -137q0 -76 -28 -250q4 -109 118 -109h54v-104z" />
    <glyph glyph-name="bar" unicode="|" horiz-adv-x="362" 
d="M240 -340h-117v1417h117v-1417z" />
    <glyph glyph-name="braceright" unicode="}" horiz-adv-x="522" 
d="M340 289q0 -37 14.5 -128t14.5 -132q0 -209 -246 -209h-47v104h53q119 0 119 101q0 47 -14.5 132t-14.5 126q0 102 86 137q-35 10 -60.5 50t-25.5 85t14.5 131t14.5 129q0 98 -119 98h-53v107h47q246 0 246 -209q0 -37 -14.5 -128t-14.5 -134q0 -72 127 -76v-106
q-127 -4 -127 -78z" />
    <glyph glyph-name="asciitilde" unicode="~" horiz-adv-x="864" 
d="M836 498q0 -94 -51 -148.5t-117 -54.5t-233 63.5t-202 63.5q-72 0 -75 -127h-113v39q0 90 54.5 143t121.5 53t231 -60t203 -60q63 0 70 120h111v-32z" />
    <glyph glyph-name="nonbreakingspace" unicode="&#xa0;" horiz-adv-x="462" 
 />
    <glyph glyph-name="exclamdown" unicode="&#xa1;" horiz-adv-x="344" 
d="M270 606q0 -41 -28.5 -69.5t-69.5 -28.5t-69.5 28.5t-28.5 69.5t28.5 70t69.5 29t69.5 -29t28.5 -70zM246 -289h-148l15 690h114z" />
    <glyph glyph-name="cent" unicode="&#xa2;" horiz-adv-x="983" 
d="M592 158q117 0 221 47l43 -99q-109 -59 -272 -63v-158h-113v164q-160 29 -253 140.5t-93 279.5t93 279.5t253 140.5v164h113v-158q164 -4 272 -64l-43 -98q-104 47 -221 47q-162 0 -253 -82t-91 -229t91 -229t253 -82z" />
    <glyph glyph-name="sterling" unicode="&#xa3;" horiz-adv-x="983" 
d="M455 344q0 -150 -86 -248h432v-96h-619v76q168 104 168 254q0 40 -8 98h-158v94h146q-11 118 -11 150q0 287 269 286q82 0 186 -47l-37 -86q-90 37 -153 37q-164 0 -164 -190q0 -78 14 -150h228v-94h-211q4 -32 4 -84z" />
    <glyph glyph-name="currency" unicode="&#xa4;" horiz-adv-x="983" 
d="M748 460q0 106 -76 182.5t-182 76.5t-180 -76.5t-74 -182.5t74 -179.5t180 -73.5t182 73.5t76 179.5zM874 463q0 -121 -69 -217l76 -80l-88 -94l-80 84q-89 -72 -221 -72t-222 72l-80 -84l-88 94l76 80q-70 96 -69.5 217t69.5 217l-76 80l88 94l80 -84q90 72 221 72
t222 -72l80 84l88 -94l-76 -80q69 -96 69 -217z" />
    <glyph glyph-name="yen" unicode="&#xa5;" horiz-adv-x="983" 
d="M786 186h-235v-149h-119v149h-235v103h235v65h-235v103h215l-297 487h143l231 -389l234 389h145l-299 -485h217v-105h-235v-65h235v-103z" />
    <glyph glyph-name="brokenbar" unicode="&#xa6;" horiz-adv-x="329" 
d="M213 -244h-98v527h98v-527zM213 451h-98v524h98v-524z" />
    <glyph glyph-name="section" unicode="&#xa7;" horiz-adv-x="778" 
d="M561 413q0 86 -141 140q-77 26 -160 63q-51 -45 -51 -93t61 -93q70 -35 145 -61t107 -47q39 45 39 91zM666 427q0 -79 -76 -163q39 -47 39 -119q0 -104 -74.5 -163.5t-196.5 -59.5t-219 78l47 86q76 -72 166 -72q91 0 134.5 34t43.5 87q0 72 -98 121q-51 20 -106.5 41.5
t-106.5 44.5q-109 53 -108 168q0 88 79 160q-37 47 -36 106q0 92 69.5 149.5t175.5 57.5t224 -61l-52 -88q-81 59 -157 59t-117 -29.5t-41 -63.5q0 -52 40 -80t148 -65q222 -79 222 -228z" />
    <glyph glyph-name="dieresis" unicode="&#xa8;" horiz-adv-x="698" 
d="M590 869q0 -38 -26.5 -63.5t-61.5 -25.5t-62.5 25.5t-27.5 63.5t27.5 65t62.5 27t61.5 -27t26.5 -65zM287 869q0 -38 -26.5 -63.5t-62.5 -25.5t-62.5 25.5t-26.5 63.5t26.5 65t62.5 27t62.5 -27t26.5 -65z" />
    <glyph glyph-name="copyright" unicode="&#xa9;" horiz-adv-x="1105" 
d="M965 492q0 170 -121 290.5t-291 120.5t-291 -120.5t-121 -290.5t121 -291t291 -121t291 121t121 291zM1051 491.5q0 -204.5 -146.5 -351t-351.5 -146.5t-351.5 146.5t-146.5 351t146.5 351t351.5 146.5t351.5 -146.5t146.5 -351zM252 486q0 134 84 217t216 83t198 -49
l-25 -73q-78 45 -166 45q-213 -1 -213 -223t215 -222q100 0 172 51l27 -75q-78 -60 -213 -60t-215 86t-80 220z" />
    <glyph glyph-name="ordfeminine" unicode="&#xaa;" horiz-adv-x="516" 
d="M354 743q-211 0 -211 -94q0 -72 86 -71q41 0 83 24t42 62v79zM444 598q0 -34 17 -90h-88q-4 10 -6 23.5t-7 29.5q-57 -59 -143 -59q-164 0 -164 147q0 164 301 170q-4 51 -35.5 72.5t-94.5 21.5t-120 -41l-28 70q79 53 184 53q184 0 184 -225v-172z" />
    <glyph glyph-name="guillemotleft" unicode="&#xab;" horiz-adv-x="729" 
d="M418 96h-125l-232 271l228 278h127l-234 -278zM668 96h-123l-234 271l234 276h121l-232 -274z" />
    <glyph glyph-name="logicalnot" unicode="&#xac;" horiz-adv-x="917" 
d="M825 180h-98v299h-657v92h755v-391z" />
    <glyph glyph-name="registered" unicode="&#xae;" horiz-adv-x="1105" 
d="M965 492q0 170 -121 290.5t-291 120.5t-291 -120.5t-121 -290.5t121 -291t291 -121t291 121t121 291zM1051 491.5q0 -204.5 -146.5 -351t-351.5 -146.5t-351.5 146.5t-146.5 351t146.5 351t351.5 146.5t351.5 -146.5t146.5 -351zM680 624.5q0 106.5 -162 106.5
q-51 0 -84 -4v-209h96q150 0 150 106.5zM434 451v-269h-84v604q94 16 186 16t156 -45.5t64 -125.5q0 -106 -101 -152q49 -35 75 -96.5t46 -200.5h-80q-37 268 -159 269h-103z" />
    <glyph glyph-name="macron" unicode="&#xaf;" horiz-adv-x="770" 
d="M770 1081h-770v109h770v-109z" />
    <glyph glyph-name="degree" unicode="&#xb0;" horiz-adv-x="567" 
d="M399 813q0 47 -34.5 82t-81.5 35t-82 -35t-35 -82t35 -82t82 -35t81.5 35t34.5 82zM465 813q0 -76 -53.5 -129t-129 -53t-129 53t-53.5 129t53.5 129t129 53t129 -53t53.5 -129z" />
    <glyph glyph-name="plusminus" unicode="&#xb1;" horiz-adv-x="901" 
d="M819 444h-303v-284h-129v284h-303v113h303v309h129v-309h303v-113zM829 0h-755v113h755v-113z" />
    <glyph glyph-name="twosuperior" unicode="&#xb2;" horiz-adv-x="532" 
d="M348 817q0 78 -74 78q-34 0 -65 -28.5t-35 -84.5l-86 17q10 92 60 140t126 48t124 -43.5t48 -103.5t-26.5 -111t-83.5 -111l-133 -137h254l-13 -92h-389q0 63 46 121.5t100.5 112t100.5 103.5t46 91z" />
    <glyph glyph-name="threesuperior" unicode="&#xb3;" horiz-adv-x="532" 
d="M371 600q0 72 -82 72q-39 0 -80 -31l-33 61q80 37 120 77t40 73q0 45 -57 45q-35 0 -68 -23.5t-49 -70.5l-76 39q64 147 202 147t138 -121q0 -70 -66 -127q107 -29 107 -133t-64.5 -163.5t-162.5 -60.5t-166 50l41 86q48 -41 114 -41t104 34t38 87z" />
    <glyph glyph-name="acute" unicode="&#xb4;" horiz-adv-x="530" 
d="M205 750h-96l153 235h160z" />
    <glyph glyph-name="mu" unicode="&#xb5;" horiz-adv-x="847" 
d="M225 -289h-129v989h129v-372q0 -231 176 -232q76 0 146.5 52.5t70.5 136.5v415h130v-514q0 -68 43 -178l-125 -24q-20 47 -31 98q-127 -100 -241 -100t-169 67v-338z" />
    <glyph glyph-name="paragraph" unicode="&#xb6;" horiz-adv-x="778" 
d="M664 -129h-70v1036h-98v-1036h-72v498h-8q-123 0 -220.5 76.5t-97.5 211.5q0 315 406 316q109 0 160 -10v-1092z" />
    <glyph glyph-name="periodcentered" unicode="&#xb7;" horiz-adv-x="352" 
d="M274 373q0 -41 -28.5 -70t-69.5 -29t-69.5 29t-28.5 70t28.5 69.5t69.5 28.5t69.5 -28.5t28.5 -69.5z" />
    <glyph glyph-name="cedilla" unicode="&#xb8;" horiz-adv-x="509" 
d="M401 -184q0 -66 -43 -104t-115 -38t-134 37l28 66q64 -31 105 -31q66 0 65 61q0 57 -131 80l88 136h88l-57 -80q106 -31 106 -127z" />
    <glyph glyph-name="onesuperior" unicode="&#xb9;" horiz-adv-x="532" 
d="M430 399h-274v80h88v369l-82 -78l-51 70l170 151q31 0 47 -19.5t16 -49.5v-443h86v-80z" />
    <glyph glyph-name="ordmasculine" unicode="&#xba;" horiz-adv-x="602" 
d="M471 735.5q0 69.5 -51 120.5t-121 51t-120 -51t-50 -120.5t50 -120t120 -50.5t121 50.5t51 120zM561 734q0 -110 -76.5 -184.5t-186.5 -74.5t-184.5 74.5t-74.5 184.5t74.5 186.5t184.5 76.5t186.5 -76.5t76.5 -186.5z" />
    <glyph glyph-name="guillemotright" unicode="&#xbb;" horiz-adv-x="729" 
d="M436 96h-125l236 271l-234 278h127l228 -278zM184 96h-123l234 273l-232 274h121l234 -276z" />
    <glyph glyph-name="onequarter" unicode="&#xbc;" horiz-adv-x="1110" 
d="M950 0h-100v123h-229q0 155 61 265t125.5 160t142.5 52v-379h86l-4 -98h-82v-123zM850 221v242q-47 -41 -81 -109.5t-42 -132.5h123zM324 -18h-103l588 989h102zM369 360h-275v80h88v357l-78 -68l-57 74l172 151q63 -4 64 -71v-443h86v-80z" />
    <glyph glyph-name="onehalf" unicode="&#xbd;" horiz-adv-x="1110" 
d="M369 360h-275v80h88v357l-78 -68l-57 74l172 151q63 -4 64 -71v-443h86v-80zM324 -18h-103l588 989h102zM969 438q0 26 -17.5 46t-52.5 20q-84 0 -98 -111l-92 17q8 92 58 140t127 48t126 -43t49 -107t-29.5 -109.5t-69.5 -87.5t-81 -81t-66 -76h254l-12 -94h-389
q6 78 52 137.5t84 95.5t63.5 59t46 48t34 48.5t13.5 49.5z" />
    <glyph glyph-name="threequarters" unicode="&#xbe;" horiz-adv-x="1110" 
d="M950 0h-100v123h-229q0 155 61 265t125.5 160t142.5 52v-379h86l-4 -98h-82v-123zM850 221v242q-47 -41 -81 -109.5t-42 -132.5h123zM76 817q62 147 200 147t138 -122q0 -58 -64 -115q107 -16 107 -143q0 -100 -70 -159.5t-162 -59.5t-162 51l41 88q57 -45 119 -45
t99.5 34.5t37.5 88.5q0 72 -67 71q-51 0 -94 -37l-33 62q90 47 121.5 84t31.5 77t-51 40q-82 0 -116 -101zM324 -18h-103l588 989h102z" />
    <glyph glyph-name="questiondown" unicode="&#xbf;" horiz-adv-x="591" 
d="M412 600q0 -41 -29 -69.5t-68 -28.5t-67.5 28.5t-28.5 69.5t28.5 69.5t67.5 28.5t68 -28.5t29 -69.5zM401 348q0 -112 -111 -230t-112 -194q0 -117 144 -117q88 0 170 60l51 -100q-121 -76 -237 -76t-186.5 62.5t-70.5 168.5t135 246q88 88 95 186q0 35 -15 86h117
q20 -58 20 -92z" />
    <glyph glyph-name="Acircumflex" unicode="&#xc2;" horiz-adv-x="923" 
d="M606 436l-143 406l-152 -406h295zM926 0h-142l-129 326h-391l-127 -326h-139l410 989h110zM655 1067h-110l-84 145l-82 -145h-113l160 236h72z" />
    <glyph glyph-name="Adieresis" unicode="&#xc4;" horiz-adv-x="923" 
d="M606 436l-143 406l-152 -406h295zM926 0h-142l-129 326h-391l-127 -326h-139l410 989h110zM702 1148q0 -38 -26 -64t-62 -26q-34 0 -62 26t-28 64t28 64t62 27q34 -1 62 -27q26 -26 26 -64zM399 1148q-1 -38 -27 -64t-62 -26t-62 26t-27 64q0 38 27 64q26 26 62 27
q36 -1 62 -27t27 -64z" />
    <glyph glyph-name="Aring" unicode="&#xc5;" horiz-adv-x="923" 
d="M606 436l-143 406l-152 -406h295zM926 0h-142l-129 326h-391l-127 -326h-139l410 989h110zM539 1229q0 33 -23 55q-24 22 -56 23q-32 0 -56 -23q-24 -24 -24 -56t24 -56t57 -24t55 24t23 57zM625 1229q0 -68 -48 -116t-116 -48t-116 48t-48 116t48 116t116 48t116 -48
t48 -116z" />
    <glyph glyph-name="AE" unicode="&#xc6;" horiz-adv-x="1193" 
d="M596 500l-39 329l-176 -329h215zM1137 0h-469l-56 389h-286l-207 -389h-139l530 989h602v-112h-446l39 -302h387v-112h-369l53 -350h361v-113z" />
    <glyph glyph-name="Ccedilla" unicode="&#xc7;" horiz-adv-x="884" 
d="M588 -184q0 -66 -43 -104t-116 -38t-134 37l29 66q64 -31 104 -31q66 0 66 59t-132 82l66 102q-157 17 -266 145t-109 350t121 364t348 141q174 0 318 -59l-41 -103q-123 51 -273 52q-188 0 -276 -140q-66 -101 -66 -251t72 -257q90 -135 257 -135t292 62l35 -107
q-139 -61 -328 -65l-31 -43q107 -31 107 -127z" />
    <glyph glyph-name="Ecircumflex" unicode="&#xca;" horiz-adv-x="733" 
d="M682 0h-580v975h580v-111h-451v-295h402v-110h-402v-348h451v-111zM561 1067h-110l-84 145l-82 -145h-113l160 236h71z" />
    <glyph glyph-name="Edieresis" unicode="&#xcb;" horiz-adv-x="733" 
d="M682 0h-580v975h580v-111h-451v-295h402v-110h-402v-348h451v-111zM606 1148q0 -38 -26 -64t-62 -26q-34 0 -62 26t-28 64t28 64t62 27q34 -1 62 -27q26 -26 26 -64zM125 1148q0 38 27 64q26 26 62 27q36 -1 62 -27t27 -64q0 -38 -27 -64q-26 -26 -62 -26t-62 26t-27 64z
" />
    <glyph glyph-name="Icircumflex" unicode="&#xce;" horiz-adv-x="333" 
d="M231 0h-129v975h129v-975zM375 1067h-111l-84 145l-82 -145h-112l159 236h72z" />
    <glyph glyph-name="Idieresis" unicode="&#xcf;" horiz-adv-x="333" 
d="M231 0h-129v975h129v-975zM332 1239q36 -1 62 -27t26 -64t-27 -64t-61 -26t-63 26q-27 26 -27 64t28 64t62 27zM28 1239q36 -1 62 -27t27 -64q0 -38 -27 -64q-26 -26 -62 -26t-63 26t-27 64t28 64q26 26 62 27z" />
    <glyph glyph-name="Eth" unicode="&#xd0;" horiz-adv-x="940" 
d="M756 508q0 367 -344 366q-57 0 -181 -12v-330h328v-110h-328v-313q68 -6 170 -7q199 0 289 142q66 104 66 264zM887 501q0 -214 -107 -347q-131 -162 -403 -162q-84 0 -275 20v410h-84v110h84v426q233 27 316 27q250 0 370 -149q99 -121 99 -335z" />
    <glyph glyph-name="Ntilde" unicode="&#xd1;" horiz-adv-x="966" 
d="M864 0h-123l-510 791v-791h-129v975h129l504 -770v770h129v-975zM393 1116q-24 0 -24 -49h-90q0 61 29 103q30 42 74 42t101 -28q56 -28 78 -27q39 0 39 55h88q-4 -155 -121 -155q-27 0 -137 50q-23 9 -37 9z" />
    <glyph glyph-name="Ocircumflex" unicode="&#xd4;" horiz-adv-x="1060" 
d="M1008 485q0 -215 -134 -360t-344 -145q-211 0 -344 145t-133 360t133 361t344 147q210 -1 344 -147t134 -361zM881 487q-1 168 -97 282t-254 114t-254 -114t-96 -282q0 -167 96 -281t254 -114t254 114t97 281zM725 1067h-111l-84 145l-81 -145h-113l160 236h71z" />
    <glyph glyph-name="Odieresis" unicode="&#xd6;" horiz-adv-x="1060" 
d="M1008 485q0 -215 -134 -360t-344 -145q-211 0 -344 145t-133 360t133 361t344 147q210 -1 344 -147t134 -361zM881 487q-1 168 -97 282t-254 114t-254 -114t-96 -282q0 -167 96 -281t254 -114t254 114t97 281zM592 1148q0 38 28 64t62 27q34 -1 62 -27q26 -26 26 -64
t-27 -64t-61 -26t-62 26t-28 64zM378 1239q36 -1 62 -27t27 -64q0 -38 -27 -64q-26 -26 -62 -26t-63 26t-27 64t28 64q26 26 62 27z" />
    <glyph glyph-name="multiply" unicode="&#xd7;" horiz-adv-x="854" 
d="M428 459l289 303l82 -80l-293 -307l293 -305l-82 -80l-291 303l-289 -303l-82 80l291 303l-291 309l82 80z" />
    <glyph glyph-name="Oslash" unicode="&#xd8;" horiz-adv-x="1060" 
d="M881 487q0 168 -97 281q-12 14 -24 27l-352 -682q55 -20 122 -21q158 0 254.5 113.5t96.5 281.5zM530 883q-158 0 -254 -114t-96 -282t96 -282q14 -18 31 -33l355 686q-59 25 -132 25zM1008 511.5q0 -241.5 -133.5 -386.5t-344.5 -145q-96 0 -176 28l-32 -65h-132l62 120
q-199 154 -199 395.5t133 388t344 146.5q100 0 183 -32l24 47h131l-55 -107q195 -148 195 -389.5z" />
    <glyph glyph-name="Ucircumflex" unicode="&#xdb;" horiz-adv-x="987" 
d="M885 416q0 -434 -391 -434t-392 434v559h131v-559q1 -324 261 -324t260 324v559h131v-559zM688 1067h-110l-84 145l-82 -145h-113l160 236h71z" />
    <glyph glyph-name="Udieresis" unicode="&#xdc;" horiz-adv-x="987" 
d="M885 416q0 -434 -391 -434t-392 434v559h131v-559q1 -324 261 -324t260 324v559h131v-559zM733 1148q-1 -38 -27 -64t-61 -26t-63 26t-27 64q0 38 28 64q29 26 63 27q34 -1 60 -27t27 -64zM252 1148q0 38 27 64t63 27q36 -1 62 -27t26 -64t-27 -64t-63 -26t-62 26t-26 64
z" />
    <glyph glyph-name="Thorn" unicode="&#xde;" horiz-adv-x="806" 
d="M612 510q0 217 -272 217q-63 0 -111 -16v-402q47 -16 111 -16q272 0 272 217zM731 510q0 -158 -104.5 -241t-290.5 -83q-66 0 -107 9v-195h-120v975h120v-150q41 8 107 9q186 0 290.5 -83t104.5 -241z" />
    <glyph glyph-name="germandbls" unicode="&#xdf;" horiz-adv-x="870" 
d="M143 -82v690q0 399 310 400q111 0 181.5 -67t70.5 -183q0 -87 -65 -158.5t-65 -90.5t31 -47t67 -65t66.5 -80t30.5 -94q0 -113 -70.5 -177t-180.5 -64t-206 51l41 110q92 -49 158 -49t102.5 34t36.5 81t-30.5 82t-68.5 68.5t-68.5 70.5t-30.5 75t20.5 69.5t46 63.5
t46 61.5t20.5 54.5q0 137 -148 137q-172 0 -172 -316v-657q0 -114 -55 -211l-117 31q49 93 49 180z" />
    <glyph glyph-name="acircumflex" unicode="&#xe2;" horiz-adv-x="751" 
d="M518 221v123q-334 -6 -334 -141q0 -109 121 -109q69 0 141 36t72 91zM313 -18q-118 0 -188 56t-72 152q0 260 465 267q-20 154 -168 153q-111 0 -244 -51l-14 117q139 41 264 41q291 0 291 -299v-232q0 -78 29 -180l-121 -24l-20 90q-104 -90 -222 -90zM545 788h-111
l-84 146l-82 -146h-112l159 236h72z" />
    <glyph glyph-name="adieresis" unicode="&#xe4;" horiz-adv-x="751" 
d="M518 221v123q-334 -6 -334 -141q0 -109 121 -109q69 0 141 36t72 91zM313 -18q-118 0 -188 56t-72 152q0 260 465 267q-20 154 -168 153q-111 0 -244 -51l-14 117q139 41 264 41q291 0 291 -299v-232q0 -78 29 -180l-121 -24l-20 90q-104 -90 -222 -90zM528 961
q34 0 62 -27q26 -27 26 -65q0 -37 -26 -63t-62 -26q-34 0 -62 26t-28 64t28 64q28 27 62 27zM224 961q36 0 62 -27t27 -65q-1 -37 -27 -63t-62 -26t-62 26t-27 64q0 38 27 64q26 27 62 27z" />
    <glyph glyph-name="aring" unicode="&#xe5;" horiz-adv-x="751" 
d="M518 221v123q-334 -6 -334 -141q0 -109 121 -109q69 0 141 36t72 91zM313 -18q-118 0 -188 56t-72 152q0 260 465 267q-20 154 -168 153q-111 0 -244 -51l-14 117q139 41 264 41q291 0 291 -299v-232q0 -78 29 -180l-121 -24l-20 90q-104 -90 -222 -90zM453 950
q0 33 -23 56q-24 22 -56 22t-56 -22t-24 -56q0 -32 24 -56t57 -24t55 24t23 56zM539 950q-1 -68 -49 -116t-116 -48t-115 48q-48 48 -48 116t48 116t116 48t116 -48t48 -116z" />
    <glyph glyph-name="ae" unicode="&#xe6;" horiz-adv-x="1271" 
d="M883 618q-88 0 -146.5 -48t-77.5 -134h433q-14 76 -67.5 129t-141.5 53zM188 203q0 -53 34 -81t83 -28q98 0 156.5 55.5t58.5 153.5v45q-332 -4 -332 -145zM901 -18q-201 0 -307 143q-76 -143 -293 -143q-105 0 -176.5 55.5t-71.5 152.5q0 266 467 271q-4 70 -47 113.5
t-115 43.5t-247 -53l-17 117q142 43 250 43t168.5 -27.5t95.5 -97.5q98 125 285 125q315 0 326 -397h-572q10 -113 81.5 -172.5t185.5 -59.5t264 54l10 -113q-139 -55 -287 -55z" />
    <glyph glyph-name="ccedilla" unicode="&#xe7;" horiz-adv-x="710" 
d="M502 -184q0 -66 -43 -104t-116 -38t-134 37l29 66q64 -31 104 -31q66 0 66 59t-132 82l66 101q-113 19 -188 97q-100 103 -100 268t100 267t252 103q152 0 253 -61l-45 -107q-96 59 -199 59t-167 -72q-64 -73 -64 -191q0 -117 64 -189t166 -72q104 0 200 60l45 -107
q-97 -61 -236 -61l-28 -39q107 -31 107 -127z" />
    <glyph glyph-name="ecircumflex" unicode="&#xea;" horiz-adv-x="800" 
d="M416 616q-84 0 -149 -50t-79 -130h433q-9 80 -65 130t-140 50zM418 -18q-150 0 -258 99t-107 265q-1 166 105 272t268 105q315 0 322 -395h-568q8 -111 79 -171q140 -119 446 -7l14 -113q-151 -55 -301 -55zM594 788h-111l-84 146l-82 -146h-112l160 236h71z" />
    <glyph glyph-name="edieresis" unicode="&#xeb;" horiz-adv-x="800" 
d="M416 616q-84 0 -149 -50t-79 -130h433q-9 80 -65 130t-140 50zM418 -18q-150 0 -258 99t-107 265q-1 166 105 272t268 105q315 0 322 -395h-568q8 -111 79 -171q140 -119 446 -7l14 -113q-151 -55 -301 -55zM553 961q35 0 61 -27t27 -65q0 -37 -27 -63q-28 -26 -62 -26
t-62 26t-28 64t28 64q28 27 63 27zM249 961q37 0 63 -27t26 -65q0 -37 -27 -63t-63 -26t-62 26t-26 64t26 64q27 27 63 27z" />
    <glyph glyph-name="icircumflex" unicode="&#xee;" horiz-adv-x="333" 
d="M231 0h-129v696h129v-696zM375 788h-111l-84 146l-82 -146h-112l159 236h72z" />
    <glyph glyph-name="idieresis" unicode="&#xef;" horiz-adv-x="333" 
d="M231 0h-129v696h129v-696zM332 961q36 0 62 -27t26 -65q0 -37 -27 -63t-61 -26t-63 26q-27 26 -27 64t27 64q28 27 63 27zM28 961q36 0 62 -27t27 -65q0 -37 -27 -63q-26 -26 -62 -26t-63 26t-27 64t27 64q27 27 63 27z" />
    <glyph glyph-name="eth" unicode="&#xf0;" horiz-adv-x="774" 
d="M559 292q0 87 -54 147.5t-130 60.5t-129 -63.5t-53 -145.5t53 -145.5t129 -63.5t130 61.5t54 148.5zM698 334q0 -166 -93 -266.5t-229 -100.5t-219 93.5t-83 229.5t84 228t206.5 92t182.5 -65q-49 102 -174 200q-2 2 -4 3l-207 -107l-56 90l164 84q-74 41 -145 62l12 102
q143 -29 256 -100l187 96l45 -94l-140 -72q213 -205 213 -475z" />
    <glyph glyph-name="ntilde" unicode="&#xf1;" horiz-adv-x="866" 
d="M764 0h-129v395q0 213 -195 213q-72 0 -140 -64t-69 -128v-416h-129v512q0 127 -16 186h121q14 -35 14 -84q97 102 237 102t223 -85q83 -86 83 -236v-395zM227 788q0 62 30 104t76 42t98 -28t79 -27q39 0 39 55h88q-4 -156 -121 -156q-26 0 -90 29q-63 29 -85 30t-24 -49
h-90z" />
    <glyph glyph-name="ocircumflex" unicode="&#xf4;" horiz-adv-x="843" 
d="M664 352q0 111 -68 186q-68 74 -174 74t-174 -74t-68 -186t68 -186t174 -74t174 74t68 186zM791 352q-1 -156 -105 -262t-264 -106t-264 106t-105 262q1 156 105 264t264 107q160 1 264 -107t105 -264zM616 788h-110l-84 146l-82 -146h-113l160 236h72z" />
    <glyph glyph-name="odieresis" unicode="&#xf6;" horiz-adv-x="843" 
d="M664 352q0 111 -68 186q-68 74 -174 74t-174 -74t-68 -186t68 -186t174 -74t174 74t68 186zM791 352q-1 -156 -105 -262t-264 -106t-264 106t-105 262q1 156 105 264t264 107q160 1 264 -107t105 -264zM662 869q0 -37 -27 -63t-62 -26t-63 26t-27 64q0 38 28 64
q29 27 63 27t61 -27t27 -65zM270 961q36 0 62 -27t26 -65q0 -37 -26 -63t-63 -26t-63 26t-26 64t27 64q27 27 63 27z" />
    <glyph glyph-name="divide" unicode="&#xf7;" horiz-adv-x="854" 
d="M526 641q0 -41 -28.5 -69.5t-67.5 -28.5t-67.5 28.5t-28.5 69.5t28.5 69.5t67.5 28.5t67.5 -28.5t28.5 -69.5zM526 115q0 -41 -28.5 -70t-67.5 -29t-67.5 29t-28.5 70t28.5 69.5t67.5 28.5t67.5 -28.5t28.5 -69.5zM801 322h-748v110h748v-110z" />
    <glyph glyph-name="oslash" unicode="&#xf8;" horiz-adv-x="843" 
d="M422 612q-106 0 -174 -74.5t-68 -189t70 -184.5l227 442q-27 6 -55 6zM422 92q106 0 174 75t68 188.5t-82 195.5l-234 -449q35 -10 74 -10zM791 371.5q0 -174.5 -104.5 -281t-264.5 -106.5q-68 0 -125 18l-31 -59h-131l60 114q-20 14 -37 33q-104 106 -104.5 262
t104 263.5t264.5 107.5q57 0 108 -14l35 65h131l-59 -117q154 -111 154 -285.5z" />
    <glyph glyph-name="ucircumflex" unicode="&#xfb;" horiz-adv-x="856" 
d="M102 315v381h129v-368q0 -231 177 -232q74 0 146 56t71 133v411h129v-510q0 -69 43 -178l-125 -24q-20 49 -37 118q-123 -121 -244 -120q-289 0 -289 333zM623 788h-111l-84 146l-82 -146h-113l160 236h72z" />
    <glyph glyph-name="udieresis" unicode="&#xfc;" horiz-adv-x="856" 
d="M102 315v381h129v-368q0 -231 177 -232q74 0 146 56t71 133v411h129v-510q0 -69 43 -178l-125 -24q-20 49 -37 118q-123 -121 -244 -120q-289 0 -289 333zM580 961q36 0 62 -27t26 -65q0 -37 -27 -63t-61 -26t-63 26q-28 26 -28 64t28 64q28 27 63 27zM365 869
q0 -37 -27 -63t-63 -26q-37 0 -63 26t-26 64t27 64q27 27 63 27t62 -27q27 -27 27 -65z" />
    <glyph glyph-name="thorn" unicode="&#xfe;" horiz-adv-x="897" 
d="M705 357q0 119 -66 190t-166 71t-170 -60t-70 -157v-116q0 -78 71 -134.5t170 -56.5t165 72t66 191zM823 359q0 -164 -101.5 -270.5t-249.5 -106.5t-239 84v-340h-120v1249h120v-346q102 96 250 96t244 -101t96 -265z" />
    <glyph glyph-name="ydieresis" unicode="&#xff;" horiz-adv-x="739" 
d="M66 -309l-33 106q182 41 268 254l-309 645h141l242 -516l229 516h141l-319 -682q-129 -272 -360 -323zM522 961q34 0 62 -27q26 -27 26 -65q0 -37 -26 -63t-62 -26q-34 0 -62 26t-28 64t28 64q28 27 62 27zM218 961q36 0 62 -27t27 -65q-1 -37 -27 -63t-62 -26t-62 26
t-27 64q0 38 27 64q26 27 62 27z" />
    <glyph glyph-name="Abreve" unicode="&#x102;" horiz-adv-x="923" 
d="M606 436l-143 406l-152 -406h295zM926 0h-142l-129 326h-391l-127 -326h-139l410 989h110zM461 1153q57 0 90 40t43 91h108q-39 -229 -241 -229q-201 0 -242 229h111q10 -51 42 -91t89 -40z" />
    <glyph glyph-name="abreve" unicode="&#x103;" horiz-adv-x="751" 
d="M518 221v123q-334 -6 -334 -141q0 -109 121 -109q69 0 141 36t72 91zM313 -18q-118 0 -188 56t-72 152q0 260 465 267q-20 154 -168 153q-111 0 -244 -51l-14 117q139 41 264 41q291 0 291 -299v-232q0 -78 29 -180l-121 -24l-20 90q-104 -90 -222 -90zM375 874
q57 0 90 40t43 92h108q-39 -228 -240 -229t-243 229h111q10 -52 42 -92t89 -40z" />
    <glyph glyph-name="Cacute" unicode="&#x106;" horiz-adv-x="884" 
d="M53 484q0 222 121 364t348 141q174 0 318 -59l-41 -103q-123 51 -273 52q-188 0 -276 -140q-66 -101 -66 -251t72 -257q90 -135 257 -135t292 62l35 -107q-150 -65 -351 -65t-319 138t-117 360zM461 1303l117 -37l-172 -199h-99z" />
    <glyph glyph-name="cacute" unicode="&#x107;" horiz-adv-x="710" 
d="M408 -18q-154 0 -254 103t-100 268t100 267t252 103q152 0 253 -61l-45 -107q-96 59 -199 59t-167 -72q-64 -73 -64 -191q0 -117 64 -189t166 -72q104 0 200 60l45 -107q-97 -61 -251 -61zM373 1024l116 -37l-172 -199h-98z" />
    <glyph glyph-name="Ccaron" unicode="&#x10c;" horiz-adv-x="884" 
d="M53 484q0 222 121 364t348 141q174 0 318 -59l-41 -103q-123 51 -273 52q-188 0 -276 -140q-66 -101 -66 -251t72 -257q90 -135 257 -135t292 62l35 -107q-150 -65 -351 -65t-319 138t-117 360zM477 1067h-71l-158 236h110l84 -146l82 146h113z" />
    <glyph glyph-name="ccaron" unicode="&#x10d;" horiz-adv-x="710" 
d="M408 -18q-154 0 -254 103t-100 268t100 267t252 103q152 0 253 -61l-45 -107q-96 59 -199 59t-167 -72q-64 -73 -64 -191q0 -117 64 -189t166 -72q104 0 200 60l45 -107q-97 -61 -251 -61zM389 788h-72l-157 236h110l84 -145l82 145h113z" />
    <glyph glyph-name="Dcroat" unicode="&#x110;" horiz-adv-x="940" 
d="M756 508q0 367 -344 366q-57 0 -181 -12v-330h328v-110h-328v-313q68 -6 170 -7q199 0 289 142q66 104 66 264zM887 501q0 -214 -107 -347q-131 -162 -403 -162q-84 0 -275 20v410h-84v110h84v426q233 27 316 27q250 0 370 -149q99 -121 99 -335z" />
    <glyph glyph-name="dcroat" unicode="&#x111;" horiz-adv-x="890" 
d="M651 264v160q0 78 -75.5 135t-171.5 57t-160 -71.5t-64 -189.5t64 -189.5t172 -71.5t171.5 46t63.5 124zM411.5 -18q-151.5 0 -255 107t-103.5 267t99.5 263.5t251.5 103.5t247 -96v213h-200v90h200v102h129v-102h119v-90h-119v-654q0 -86 8 -186h-122q-6 23 -7 76
q-96 -94 -247.5 -94z" />
    <glyph glyph-name="Gbreve" unicode="&#x11e;" horiz-adv-x="929" 
d="M476 -14q-188 0 -306 138t-117 360q0 222 121 364t348 141q174 0 318 -59l-41 -103q-123 51 -273 52q-188 0 -276 -140q-66 -101 -66 -251t72 -257q90 -135 254 -135q121 0 209 33v277h-246v108h375v-491l-66 16q-118 -53 -306 -53zM465 1153q57 0 90 40t43 91h109
q-39 -229 -241 -229t-243 229h111q10 -51 42 -91t89 -40z" />
    <glyph glyph-name="gbreve" unicode="&#x11f;" horiz-adv-x="679" 
d="M485 459q0 61 -44 104t-105 43q-62 0 -106 -43t-44 -104t44 -103t112 -43q68 1 106 43t37 103zM598 -92q0 -96 -70 -156t-192 -59q-122 0 -238 69l45 103q109 -63 181 -63t115 29q42 30 42 71q0 61 -114 108q-86 35 -166 78t-80 113q0 33 18 84q-73 79 -73 181t76 174
t182 71h294v-88h-102q37 -15 57 -63t21 -91q0 -121 -67 -191t-191 -71q-45 0 -88 14q-10 -10 -10 -26q0 -31 147 -72q213 -59 213 -215zM350 874q57 0 90 40t43 92h109q-39 -228 -241 -229t-242 229h110q10 -52 42 -92t89 -40z" />
    <glyph glyph-name="Idotaccent" unicode="&#x130;" horiz-adv-x="333" 
d="M231 0h-129v975h129v-975zM268 1115q0 -37 -26 -63t-62 -26q-34 0 -62 26t-28 64t28 64t62 26t62 -26q26 -27 26 -65z" />
    <glyph glyph-name="dotlessi" unicode="&#x131;" horiz-adv-x="333" 
d="M231 0h-129v696h129v-696z" />
    <glyph glyph-name="Lslash" unicode="&#x141;" horiz-adv-x="735" 
d="M709 0h-607v305l-59 -14v127l59 14v543h129v-512l461 108v-127l-461 -108v-225h478v-111z" />
    <glyph glyph-name="lslash" unicode="&#x142;" horiz-adv-x="444" 
d="M104 1032h129v-399l191 57v-110l-191 -58v-135q1 -159 47 -219t144 -68l-14 -116q-305 16 -306 374v125l-88 -24v110l88 25v438z" />
    <glyph glyph-name="OE" unicode="&#x152;" horiz-adv-x="1480" 
d="M580 883q-166 0 -282 -120t-116 -278t116 -276.5t282 -118.5t270 123v543q-104 127 -270 127zM1430 0h-580v55q-123 -76 -279 -75q-227 0 -372.5 145t-145.5 361t145.5 362.5t372.5 146.5q156 0 279 -77v57h580v-111h-451v-295h401v-110h-401v-348h451v-111z" />
    <glyph glyph-name="oe" unicode="&#x153;" horiz-adv-x="1411" 
d="M1025 616q-83 0 -147.5 -50t-78.5 -130h432q-10 82 -66.5 131t-139.5 49zM664 352.5q0 110.5 -68 185t-174.5 74.5t-174 -74.5t-67.5 -185t67.5 -185.5t174 -75t174.5 75t68 185.5zM1044 -18q-207 0 -321 151q-109 -150 -301 -149q-160 0 -264.5 106.5t-104.5 262
t104.5 263t264.5 107.5q199 0 303 -158q123 158 311 158q315 0 322 -395h-567q8 -109 110.5 -198.5t413.5 20.5l14 -113q-150 -55 -285 -55z" />
    <glyph glyph-name="Scedilla" unicode="&#x15e;" horiz-adv-x="747" 
d="M360 -254q66 0 66 59t-131 82l61 95h-16q-162 0 -301 88l55 116q118 -88 236 -88t176 44q57 44 57 118q0 123 -196 186q-289 92 -289 283q0 115 91 190t237 75t251 -66l-55 -103q-102 51 -194 51t-147 -39q-54 -40 -54 -98q0 -113 196 -176q159 -51 225 -119t66 -186
q0 -119 -101 -198q-62 -48 -143 -67l-36 -50q108 -31 106 -127q0 -66 -43 -104t-115 -38t-135 37l29 66q64 -31 104 -31z" />
    <glyph glyph-name="scedilla" unicode="&#x15f;" horiz-adv-x="606" 
d="M279 -18q-104 0 -226 67l51 103q84 -57 181 -58q143 0 143 99q0 76 -139 118q-205 63 -205 195q0 88 69 148t187 60t199 -59l-47 -94q-72 53 -144 53t-107 -28q-36 -28 -36 -70q0 -53 149 -104q201 -70 201 -213q0 -96 -75 -157q-43 -34 -102 -49l-36 -50
q107 -31 107 -127q0 -66 -43 -104t-116 -38t-134 37l28 66q64 -31 105 -31q66 0 65 61q0 57 -131 80l62 95h-6z" />
    <glyph glyph-name="Scaron" unicode="&#x160;" horiz-adv-x="747" 
d="M694 258q0 -119 -101 -198q-101 -78 -258 -78t-296 88l55 116q118 -88 236 -88t176 44q57 44 57 118q0 123 -196 186q-289 92 -289 283q0 115 91 190t237 75t251 -66l-55 -103q-102 51 -194 51t-147 -39q-54 -40 -54 -98q0 -113 196 -176q159 -51 225 -119t66 -186z
M408 1067h-72l-158 236h111l84 -146l82 146h112z" />
    <glyph glyph-name="scaron" unicode="&#x161;" horiz-adv-x="606" 
d="M555 199q0 -97 -75 -157t-190 -60t-237 67l51 103q84 -57 181 -58q143 0 143 99q0 76 -139 118q-205 63 -205 195q0 88 69 148t187 60t199 -59l-47 -94q-72 53 -144 53t-107 -28q-36 -28 -36 -70q0 -53 149 -104q201 -70 201 -213zM350 788h-71l-158 236h110l84 -145
l82 145h113z" />
    <glyph glyph-name="Ydieresis" unicode="&#x178;" horiz-adv-x="811" 
d="M471 0h-127v426l-356 549h149l271 -438l268 438h147l-352 -547v-428zM467 1148q0 38 28 64q29 26 63 27q34 -1 60 -27t27 -64q0 -38 -27 -64q-28 -26 -62 -26t-62 26t-27 64zM253 1239q37 -1 63 -27t26 -64t-27 -64t-63 -26t-62 26t-26 64t26 64t63 27z" />
    <glyph glyph-name="Zcaron" unicode="&#x17d;" horiz-adv-x="923" 
d="M55 0v82l633 782h-600l23 111h755v-84l-633 -780h664l-25 -111h-817zM496 1067h-72l-158 236h111l84 -146l82 146h112z" />
    <glyph glyph-name="zcaron" unicode="&#x17e;" horiz-adv-x="733" 
d="M41 0v78l463 510h-443l25 108h594v-84l-461 -503h475l-18 -109h-635zM401 788h-71l-158 236h111l84 -145l82 145h112z" />
    <glyph glyph-name="florin" unicode="&#x192;" horiz-adv-x="827" 
d="M98 -29q133 0 185 230l69 319h-110l20 107h115l6 32q85 332 328 332q80 0 133 -51l-53 -90q-49 29 -101 29q-135 0 -184 -230l-6 -22h190l-20 -107h-193l-71 -330q-72 -332 -328 -331q-80 0 -133 51l53 90q49 -29 100 -29z" />
    <glyph glyph-name="Ohorn" unicode="&#x1a0;" horiz-adv-x="1060" 
d="M881 487q0 168 -96.5 282t-254 114t-254 -114t-96.5 -282t96.5 -281.5t254 -113.5t254 113.5t96.5 281.5zM1008 488q0 -218 -133.5 -363t-344.5 -145t-344 145t-133 360t133 361.5t344 146.5q147 0 263 -75q53 68 53 161h110q0 -119 -88 -227q140 -146 140 -364z" />
    <glyph glyph-name="ohorn" unicode="&#x1a1;" horiz-adv-x="843" 
d="M664 352.5q0 110.5 -68 185t-174.5 74.5t-174 -74.5t-67.5 -185t67.5 -185.5t174 -75t174.5 75t68 185.5zM791 352q0 -156 -104.5 -262t-264.5 -106t-264.5 106.5t-104.5 262t104.5 263t256.5 107.5t254 -92q41 68 41 145h110q0 -113 -86 -223q58 -90 58 -201z" />
    <glyph glyph-name="Uhorn" unicode="&#x1af;" horiz-adv-x="987" 
d="M885 416q0 -434 -391.5 -434t-391.5 434v559h131v-559q0 -324 260.5 -324t260.5 324v559h131v-82q45 25 72.5 79t27.5 107h111q-6 -96 -66.5 -185t-144.5 -120v-358z" />
    <glyph glyph-name="uhorn" unicode="&#x1b0;" horiz-adv-x="847" 
d="M385 -18q-289 0 -289 333v381h129v-368q0 -231 176 -232q74 0 145.5 56.5t71.5 132.5v411h130v-125q41 23 72.5 79.5t31.5 109.5h111q0 -80 -63 -176t-152 -129v-269q0 -69 43 -178l-125 -24q-18 39 -31 98q-129 -100 -250 -100z" />
    <glyph glyph-name="circumflex" unicode="&#x2c6;" horiz-adv-x="446" 
d="M418 788h-111l-84 146l-82 -146h-112l159 236h72z" />
    <glyph glyph-name="caron" unicode="&#x2c7;" horiz-adv-x="630" 
d="M350 788h-71l-158 236h110l84 -145l82 145h113z" />
    <glyph glyph-name="breve" unicode="&#x2d8;" horiz-adv-x="700" 
d="M350.5 874q57.5 0 90 40t42.5 92h109q-39 -230 -241.5 -230t-241.5 230h110q10 -51 42 -91.5t89.5 -40.5z" />
    <glyph glyph-name="dotaccent" unicode="&#x2d9;" horiz-adv-x="395" 
d="M287 1115q0 -38 -27 -63.5t-61.5 -25.5t-62 25.5t-27.5 63.5t27.5 64.5t62 26.5t61.5 -26.5t27 -64.5z" />
    <glyph glyph-name="ring" unicode="&#x2da;" horiz-adv-x="544" 
d="M350 950.5q0 32.5 -22.5 55t-55 22.5t-56 -22.5t-23.5 -55t23.5 -56.5t56 -24t55 24t22.5 56.5zM436 950.5q0 -67.5 -48 -116t-115.5 -48.5t-115.5 48.5t-48 116t48 115.5t115.5 48t115.5 -48t48 -115.5z" />
    <glyph glyph-name="ogonek" unicode="&#x2db;" horiz-adv-x="522" 
d="M109 -158q0 61 38 197h121q-43 -109 -43 -171t58 -67q41 0 131 39v-119q-84 -35 -157 -35t-110.5 47.5t-37.5 108.5z" />
    <glyph glyph-name="tilde" unicode="&#x2dc;" horiz-adv-x="530" 
d="M172 811q-25 0 -25 -49h-90q0 61 30 103t75 42t98.5 -27.5t79.5 -27.5q39 0 39 55h88q-4 -155 -121 -155q-22 0 -89 29.5t-85 29.5z" />
    <glyph glyph-name="hungarumlaut" unicode="&#x2dd;" horiz-adv-x="735" 
d="M195 655h-86l129 351h129zM453 655h-86l129 351h131z" />
    <glyph glyph-name="gravecomb" unicode="&#x300;" 
d="M-109 788h-98l-172 199l117 37z" />
    <glyph glyph-name="acutecomb" unicode="&#x301;" 
d="M-270 1024l116 -37l-172 -199h-98z" />
    <glyph glyph-name="tildecomb" unicode="&#x303;" 
d="M-381 788h-90q0 61 29.5 103.5t74.5 42.5t98.5 -27.5t80.5 -27.5q39 0 38 55h89q-4 -156 -121 -156q-20 0 -89.5 30t-84.5 30q-25 0 -25 -50z" />
    <glyph glyph-name="hookabovecomb" unicode="&#x309;" 
d="M-86 992q0 -50 -18.5 -77.5t-40 -52t-39 -48t-17.5 -50.5h-92q0 47 41 90t59.5 65.5t18.5 52.5q0 52 -57 52q-35 0 -61.5 -22.5t-35.5 -34.5l-53 45q16 33 55.5 62.5t101.5 29.5t100 -31t38 -81z" />
    <glyph glyph-name="dotbelowcomb" unicode="&#x323;" horiz-adv-x="409" 
d="M301 -197q0 -41 -28.5 -69.5t-67.5 -28.5t-67.5 28.5t-28.5 69.5t28.5 70t67.5 29t67.5 -29t28.5 -70z" />
    <glyph glyph-name="uni0E00" unicode="&#xe00;" 
 />
    <glyph glyph-name="uni0E01" unicode="&#xe01;" horiz-adv-x="800" 
d="M696 0h-127v543q0 84 -51 133t-135 49q-123 0 -186 -104q96 -18 137 -93q-104 -61 -105 -147v-381h-127v389q0 86 84 135q-51 35 -125 25q5 127 95 206t230 79t225 -79t85 -214v-541z" />
    <glyph glyph-name="uni0E02" unicode="&#xe02;" horiz-adv-x="849" 
d="M258 585.5q0 26.5 -18.5 45t-45 18.5t-45 -18.5t-18.5 -45t18.5 -45t45 -18.5t45 18.5t18.5 45zM745 193q0 -100 -62 -154.5t-164.5 -54.5t-165 54t-62.5 155v133q0 59 54 158.5t54 151.5t-32.5 83t-86.5 31t-77 -27q61 -2 99 -39t38 -96t-43 -101.5t-107 -42.5
t-106.5 51t-42.5 133t74.5 144t174.5 62t165 -49.5t65 -143.5q0 -61 -51 -172t-51 -156v-149q0 -35 31.5 -53.5t69.5 -18.5t68.5 19.5t30.5 52.5v653h127v-624z" />
    <glyph glyph-name="uni0E03" unicode="&#xe03;" horiz-adv-x="882" 
d="M266 497.5q0 26.5 -18.5 45t-45 18.5t-45 -18.5t-18.5 -45t18.5 -45t45 -18.5t45 18.5t18.5 45zM778 193q0 -100 -62.5 -154.5t-164.5 -54.5t-164.5 54t-62.5 155v92q0 66 68.5 173t68.5 169q-10 78 -66 108l-76 -78l-90 82q-20 -12 -43.5 -43.5t-25.5 -56.5q31 6 43 6
q61 0 104 -43t43 -104.5t-42 -104.5t-110 -43t-112.5 59t-44.5 149t58.5 178.5t150.5 97.5l67 -70l64 72q184 -41 184 -218q0 -63 -57 -161.5t-57 -155.5v-137q0 -35 31.5 -53.5t69.5 -18.5t68.5 19.5t30.5 52.5v653h127v-624z" />
    <glyph glyph-name="uni0E04" unicode="&#xe04;" horiz-adv-x="825" 
d="M473 487.5q0 26.5 -18.5 45t-45 18.5t-44 -18.5t-17.5 -45t17.5 -44t44 -17.5t45 17.5t18.5 44zM721 0h-127v559q0 74 -62 120t-146 46q-85 0 -140.5 -62.5t-55.5 -144.5q0 -23 9.5 -75t9.5 -91v-57q0 2 7 44t9 64q20 86 64 144q53 74 115 74t103.5 -39.5t41.5 -93.5
t-41 -94t-94 -40t-95 37q-61 -186 -61 -391h-127v131q0 96 -34 210t-34 179q-1 142 99 228t235 86t229 -73t95 -206v-555z" />
    <glyph glyph-name="uni0E05" unicode="&#xe05;" horiz-adv-x="825" 
d="M473 442.5q0 26.5 -18.5 45t-45 18.5t-44 -18.5t-17.5 -45t17.5 -44t44 -17.5t45 17.5t18.5 44zM721 0h-127v559q0 125 -55 164l-127 -80l-142 80q-80 -55 -80 -186q0 -39 11.5 -110t13.5 -138v-19q0 4 5 32t14 86q10 58 56 124t112 66t105.5 -39t39.5 -94.5t-40 -94.5
t-93 -39t-95 35q-61 -182 -61 -346h-127v131q0 100 -34 220t-34 179q0 109 54.5 192t156.5 118l138 -80l145 80q164 -68 164 -248v-592z" />
    <glyph glyph-name="uni0E06" unicode="&#xe06;" horiz-adv-x="927" 
d="M274 497.5q0 26.5 -18 45t-45 18.5t-45.5 -18.5t-18.5 -45t18.5 -45t45.5 -18.5t45 18.5t18 45zM383 148q0 28 -19.5 47.5t-47.5 19.5t-48 -19.5t-20 -47.5t20 -48t48 -20t47.5 20t19.5 48zM823 0h-116q-121 125 -226 160v-21q0 -66 -49 -110.5t-116.5 -44.5t-115.5 48
t-48 117t48 116.5t115 47.5q14 0 25 -2q0 57 61 153q129 201 -4 273l-71 -78l-88 80q-23 -10 -45.5 -42.5t-26.5 -59.5q16 6 43 6q61 0 105 -43t44 -103t-44 -103.5t-110 -43.5t-110.5 53.5t-44.5 150.5t59.5 186t145.5 94l68 -70l65 72q184 -45 184 -205q0 -72 -57 -173.5
t-57 -156.5v-31q121 -43 239 -135v682h127v-817z" />
    <glyph glyph-name="uni0E07" unicode="&#xe07;" horiz-adv-x="651" 
d="M451 680q0 29 -20.5 49.5t-49.5 20.5t-49.5 -20.5t-20.5 -49.5t20.5 -49.5t49.5 -20.5t49.5 20.5t20.5 49.5zM547 0h-125l-383 432l76 88l305 -344v352q-6 -2 -54 -2t-92.5 42t-44.5 107.5t45 112t112 46.5t114 -46.5t47 -119.5v-668z" />
    <glyph glyph-name="uni0E08" unicode="&#xe08;" horiz-adv-x="798" 
d="M326 415.5q0 26.5 -18.5 45t-45 18.5t-45 -18.5t-18.5 -45t18.5 -45t45 -18.5t45 18.5t18.5 45zM694 143q0 -76 -49 -117.5t-127 -41.5q-150 0 -174 133l-31 162q-88 -31 -142 23t-54 113.5t43 102.5t99 43t97 -33.5t52 -85.5l57 -313q6 -37 54 -37t48 41v461
q0 68 -58 100t-136 31q-176 0 -211 -100h-123q27 207 323 209q137 0 226 -52q106 -66 106 -196v-443z" />
    <glyph glyph-name="uni0E09" unicode="&#xe09;" horiz-adv-x="829" 
d="M670 137.5q0 26.5 -18.5 45t-45 18.5t-45 -18.5t-18.5 -45t18.5 -45t45 -18.5t45 18.5t18.5 45zM272 376.5q0 26.5 -17 44t-44 17.5t-44 -17.5t-17 -44t17 -44t44 -17.5t44 17.5t17 44zM760 151q0 -78 -45 -122.5t-107 -44.5t-107.5 39.5t-49.5 99.5q-72 -27 -144 -123
h-117v160q0 57 21 78q-20 0 -29 2q-113 25 -112 137q0 59 42 100t101 41t100 -41t41 -85t-18.5 -92t-18.5 -79v-86q33 33 123 83t127 89q31 41 31 96v189q0 68 -60 100t-144 33q-82 0 -148 -36t-72 -111h-123q31 256 344 256q135 0 232 -60t98 -190v-195q0 -78 -45 -115
q80 -45 80 -123z" />
    <glyph glyph-name="uni0E0A" unicode="&#xe0a;" horiz-adv-x="849" 
d="M258 585.5q0 26.5 -18.5 45t-45 18.5t-45 -18.5t-18.5 -45t18.5 -45t45 -18.5t45 18.5t18.5 45zM745 193q0 -100 -62 -154.5t-164.5 -54.5t-165 54t-62.5 155v133q0 59 54 158.5t54 151.5t-32.5 83t-86.5 31t-77 -27q61 -2 99 -39t38 -96t-43 -101.5t-107 -42.5
t-106.5 51t-42.5 133t74.5 144t174.5 62t165 -49.5t65 -143.5q0 -61 -51 -172t-51 -156v-149q0 -35 31.5 -53.5t69.5 -18.5t68.5 19.5t30.5 52.5v338q0 76 -59 94q8 37 2 72q104 39 105 196h127q-14 -158 -109 -231q61 -49 61 -129v-311z" />
    <glyph glyph-name="uni0E0B" unicode="&#xe0b;" horiz-adv-x="882" 
d="M266 497.5q0 26.5 -18.5 45t-45 18.5t-45 -18.5t-18.5 -45t18.5 -45t45 -18.5t45 18.5t18.5 45zM778 193q0 -100 -62.5 -154.5t-164.5 -54.5t-164.5 54t-62.5 155v92q0 66 68.5 173t68.5 169q-10 78 -66 108l-76 -78l-90 82q-20 -12 -43.5 -43.5t-25.5 -56.5q31 6 43 6
q61 0 104 -43t43 -104.5t-42 -104.5t-110 -43t-112.5 59t-44.5 149t58.5 178.5t150.5 97.5l67 -70l64 72q184 -41 184 -218q0 -63 -57 -161.5t-57 -155.5v-137q0 -35 31.5 -53.5t69.5 -18.5t68.5 19.5t30.5 52.5v338q0 76 -59 94q8 37 2 72q104 39 104 196h127
q-14 -158 -108 -231q61 -49 61 -129v-311z" />
    <glyph glyph-name="uni0E0C" unicode="&#xe0c;" horiz-adv-x="1157" 
d="M694 137.5q0 28.5 -20.5 49t-49 20.5t-49 -20.5t-20.5 -49t20.5 -49t49 -20.5t49 20.5t20.5 49zM297 137.5q0 28.5 -20.5 49t-49 20.5t-49 -20.5t-20.5 -49t20.5 -49t49 -20.5t49 20.5t20.5 49zM1053 0h-113q-47 100 -168 160q4 -29 4 -35q0 -66 -46 -103.5t-107 -37.5
t-107.5 45t-46.5 110q0 94 82 142v262q0 80 -50 130t-124 50q-125 0 -178 -102q94 -18 135 -93q-104 -57 -105 -147v-88q66 0 111 -45.5t45 -109.5t-45.5 -109t-109.5 -45t-109 45t-45 103t26 93v164q0 86 84 135q-51 35 -125 25q3 127 91 206t222 79t219 -78t85 -215v-250
q162 -51 248 -144v670h127v-817z" />
    <glyph glyph-name="uni0E0D" unicode="&#xe0d;" horiz-adv-x="1157" 
d="M338 137.5q0 28.5 -20.5 49t-49 20.5t-49 -20.5t-20.5 -49t20.5 -49t49 -20.5t49 20.5t20.5 49zM721 -215q0 27 -18.5 45t-47 18t-46 -18t-17.5 -45t17.5 -46.5t46 -19.5t47 19.5t18.5 46.5zM1053 193q0 -101 -75 -155t-180 -54t-176 52t-71 157v350q0 80 -50 130
t-124 50q-125 0 -178 -102q88 -16 135 -93q-104 -57 -105 -147v-96q14 8 39 8q63 0 107.5 -44t44.5 -109.5t-45 -110.5t-112 -45t-114 47t-47 119v239q0 86 84 135q-51 35 -125 25q3 127 91 206t222 79t219 -78t85 -215v-367q0 -43 37 -62.5t85 -19.5t87 19.5t39 62.5v643
h127v-624zM1065 -82q0 -152 -72 -247t-227 -95q-100 0 -177 55t-77 152q0 61 42 103t102 42t100.5 -43t40.5 -113t-64 -94q29 -4 39 -4q172 0 182 244h111z" />
    <glyph glyph-name="uni0E0E" unicode="&#xe0e;" horiz-adv-x="870" 
d="M242 139.5q0 28.5 -20.5 49t-49.5 20.5t-49.5 -20.5t-20.5 -49t20.5 -49t49.5 -20.5t49.5 20.5t20.5 49zM305 -270q-84 0 -86 -49q-2 -66 66 -66q73 7 69 109q-18 6 -49 6zM171 -16q-65 0 -110 45t-45 109t45 109.5t107 45.5q25 0 31 -6l-13 127q0 72 70 110
q-55 35 -125 25q2 127 92 206t228 79t226.5 -80t88.5 -213v-1012h-129q-27 109 -188 172q-14 -180 -160 -180q-68 0 -116 43t-48 108q0 145 192 146q29 0 48 -2q10 38 26 64t60 52l84 -45q-63 -35 -76 -92q117 -41 180 -102v850q0 82 -54.5 132t-135.5 50q-125 0 -183 -104
q100 -20 137 -93q-55 -32 -77 -58t-23 -81l21 -250q0 -66 -44 -110.5t-109 -44.5z" />
    <glyph glyph-name="uni0E0F" unicode="&#xe0f;" horiz-adv-x="870" 
d="M171 -16q-65 0 -110 45t-45 109t45 109.5t107 45.5q25 0 31 -6l-13 127q0 72 70 110q-55 35 -125 25q2 127 92 206t228 79t226.5 -80t88.5 -213v-1014h-115l-106 139l-101 -139l-94 129q-8 -57 -53 -97t-105 -40t-105.5 44t-45.5 109q0 152 174 152q39 0 55 -6
q25 76 107 119l72 -87q-76 -20 -84 -83l79 -99l99 125l96 -110v860q0 82 -54.5 132t-135.5 50q-125 0 -183 -104q100 -20 137 -93q-55 -32 -77 -58t-23 -81l21 -250q0 -66 -44 -110.5t-109 -44.5zM242 139.5q0 28.5 -20.5 49t-49.5 20.5t-49.5 -20.5t-20.5 -49t20.5 -49
t49.5 -20.5t49.5 20.5t20.5 49zM135 -326q0 -51 53 -51q70 0 70 96q-20 10 -57 11q-66 0 -66 -56z" />
    <glyph glyph-name="uni0E10" unicode="&#xe10;" horiz-adv-x="761" 
d="M553 -192.5q0 18.5 -13.5 30.5t-34 12t-32.5 -12t-12 -30.5t12 -32t32.5 -13.5t34 13.5t13.5 32zM291 360.5q0 24.5 -17.5 42t-42 17.5t-42 -17.5t-17.5 -42t17.5 -42t42 -17.5t42 17.5t17.5 42zM643 170q0 -186 -191 -186t-192 176v67q-16 -4 -29 -4q-59 0 -98 40
t-39 98t44 97.5t102 39.5t102.5 -38t44.5 -98v-198q0 -74 65 -74t64 74v295q0 43 -179 82t-267 39q12 131 89 192t179 62q39 0 115.5 -20.5t119.5 -20.5q31 0 39 49l105 -27q-37 -141 -150 -141q-39 0 -113.5 25.5t-110.5 25.5t-76 -16.5t-52 -38.5q236 -39 348 -90
q80 -37 80 -109v-301zM643 -334q0 -137 -137 -137h-168l-90 123q-4 -49 -43 -84t-97 -35t-97.5 41t-39.5 104.5t43.5 103.5t99.5 40t72 -10q6 68 74 104l64 -37q-61 -29 -62 -115l100 -135h107q66 0 66 35v27h-25q-55 0 -93 33.5t-38 81.5t38 83t92 35t94 -34.5t40 -82.5
v-141zM51 -322q0 -52 53 -53q72 0 72 94q-27 10 -47 11q-78 0 -78 -52z" />
    <glyph glyph-name="uni0E11" unicode="&#xe11;" horiz-adv-x="1007" 
d="M266 497.5q0 26.5 -18.5 45t-45 18.5t-45 -18.5t-18.5 -45t18.5 -45t45 -18.5t45 18.5t18.5 45zM903 0h-127v657q0 55 -31 55t-40 -28l-240 -684h-143v219q0 82 54 216t54 205t-41 97l-76 -80l-86 82q-20 -10 -43.5 -42.5t-27.5 -57.5q14 6 60 6t89 -44t43 -104
t-43 -103.5t-107 -43.5t-110.5 57.5t-46.5 151.5t57.5 180t147.5 95l67 -70l66 72q152 -33 151 -197q0 -66 -46 -189.5t-46 -203.5q-16 -98 -16 -117l203 582q43 123 135 123q143 0 143 -172v-662z" />
    <glyph glyph-name="uni0E12" unicode="&#xe12;" horiz-adv-x="1128" 
d="M686 137.5q0 28.5 -18.5 47t-47 18.5t-46 -18.5t-17.5 -47t17.5 -46t46 -17.5t47 17.5t18.5 46zM451 465q0 27 -18.5 45t-45.5 18t-45 -18t-18 -45t18 -45.5t45 -18.5t45.5 18.5t18.5 45.5zM1024 0h-119q-51 88 -129 133q0 -63 -42 -106t-110 -43t-111.5 46t-43.5 103
t31.5 98t77.5 54v252q0 139 -62 186l-125 -90l-115 90q-88 -45 -88 -201q0 -31 30 -133.5t30 -144.5t-10 -68q45 102 135 158q-55 4 -87 43t-32 91t39 90t93 38t94 -39t40 -92q0 -100 -122 -236.5t-122 -228.5h-133q2 58 2 154t-24 157q-57 143 -58 209q0 115 56.5 201
t163.5 115l108 -93l101 93q213 -31 213 -295v-273q41 -12 105 -49t87 -63v661h127v-817z" />
    <glyph glyph-name="uni0E13" unicode="&#xe13;" horiz-adv-x="1179" 
d="M338 137.5q0 28.5 -20.5 49t-49 20.5t-49 -20.5t-20.5 -49t20.5 -49t49 -20.5t49 20.5t20.5 49zM1028 141.5q0 28.5 -20.5 49t-49 20.5t-49 -20.5t-20.5 -49t20.5 -49t49 -20.5t49 20.5t20.5 49zM1112 139q0 -63 -41 -109t-104 -46t-108.5 37.5t-55.5 95.5
q-55 -37 -123 -117h-129v543q0 80 -50 130t-124 50q-125 0 -178 -102q80 -6 135 -93q-104 -57 -105 -147v-96q14 8 39 8q63 0 107.5 -44t44.5 -109.5t-45 -110.5t-112 -45t-114 47t-47 119v239q0 86 84 135q-51 35 -125 25q3 127 91 206t222 79t219 -77t85 -214v-414
q31 37 126 111t116 94q29 37 28 96v387h127v-430q0 -80 -43 -113q80 -45 80 -135z" />
    <glyph glyph-name="uni0E14" unicode="&#xe14;" horiz-adv-x="829" 
d="M461 493.5q0 26.5 -17.5 44t-44 17.5t-44 -17.5t-17.5 -44t17.5 -44t44 -17.5t44 17.5t17.5 44zM725 0h-127v549q0 78 -58.5 127t-141.5 49t-146.5 -58.5t-63.5 -140.5q0 -51 34 -145.5t34 -124.5t-4 -55q59 96 133 161q-57 4 -89 42t-32 91q0 52 40 92t95.5 40t94 -40
t38.5 -93q0 -92 -90 -205q-124 -154 -148 -196t-24 -93h-129q2 76 2 163t-21 143q-59 157 -59 212q0 139 97.5 227.5t237.5 88.5t234 -77t93 -216v-541z" />
    <glyph glyph-name="uni0E15" unicode="&#xe15;" horiz-adv-x="829" 
d="M459 462.5q0 26.5 -17.5 44t-44 17.5t-44 -17.5t-17.5 -44t17.5 -44t44 -17.5t44 17.5t17.5 44zM725 0h-127v537q0 131 -72 188l-127 -92l-125 92q-86 -43 -86 -195q0 -49 30 -145t30 -136t-12 -75q12 29 59 80t90 78q-55 4 -87 43t-32 90t38 90t93.5 39t94 -39t38.5 -94
q0 -88 -92 -187q-122 -131 -148 -180t-26 -94h-129q4 78 4 159q1 81 -37 189t-38 202t56 175.5t161 110.5l116 -88l109 88q219 -33 219 -295v-541z" />
    <glyph glyph-name="uni0E16" unicode="&#xe16;" horiz-adv-x="800" 
d="M338 137.5q0 28.5 -20.5 49t-49 20.5t-49 -20.5t-20.5 -49t20.5 -49t49 -20.5t49 20.5t20.5 49zM696 0h-127v543q0 84 -51 133t-135 49q-123 0 -186 -104q96 -18 137 -93q-104 -61 -105 -147v-96q14 8 39 8q63 0 107.5 -44t44.5 -109.5t-45 -110.5t-112 -45t-114 47
t-47 119v239q0 86 84 135q-51 35 -125 25q5 127 95 206t230 79t225 -79t85 -214v-541z" />
    <glyph glyph-name="uni0E17" unicode="&#xe17;" horiz-adv-x="897" 
d="M246 678q0 29 -20.5 49.5t-49.5 20.5t-49.5 -20.5t-20.5 -49.5t20.5 -49.5t49.5 -20.5t49.5 20.5t20.5 49.5zM793 0h-127v662q0 63 -29 63t-39 -31l-244 -694h-143v526q-20 -4 -35 -4q-66 0 -111 46t-45 110t45 110t113 46t114 -47.5t46 -118.5v-306q0 -70 -25 -217
q23 90 58 201l114 365q39 125 154 123q154 -2 154 -175v-659z" />
    <glyph glyph-name="uni0E18" unicode="&#xe18;" horiz-adv-x="733" 
d="M614 174q0 -190 -255 -190t-255 190v268h127v-276q0 -74 128 -74t128 74v270q0 47 -159.5 83t-276.5 59q11 132 67 194t183 62q45 0 127 -19.5t116 -19.5t38 45l100 -27q-23 -68 -53.5 -97.5t-80.5 -29.5t-126 20.5t-117 20.5q-111 0 -119 -68q201 -43 314.5 -81.5
t113.5 -133.5v-270z" />
    <glyph glyph-name="uni0E19" unicode="&#xe19;" horiz-adv-x="886" 
d="M733 137.5q0 28.5 -20.5 49t-49 20.5t-49 -20.5t-20.5 -49t20.5 -49t49 -20.5t49 20.5t20.5 49zM246 678q0 29 -20.5 49.5t-49.5 20.5t-49.5 -20.5t-20.5 -49.5t20.5 -49.5t49.5 -20.5t49.5 20.5t20.5 49.5zM782 387q0 -82 -43 -113q80 -45 80 -137q0 -66 -45 -109.5
t-106 -43.5t-104.5 37.5t-51.5 95.5q-66 -33 -104 -57t-68 -60h-129v526q-20 -4 -35 -4q-66 0 -111 46t-45 110t45 110t113 46t114 -47.5t46 -118.5v-521q33 25 141 70q109 45 143 82t33 104v414h127v-430z" />
    <glyph glyph-name="uni0E1A" unicode="&#xe1a;" horiz-adv-x="911" 
d="M246 678q0 29 -20.5 49.5t-49.5 20.5t-49.5 -20.5t-20.5 -49.5t20.5 -49.5t49.5 -20.5t49.5 20.5t20.5 49.5zM807 184q0 -200 -298 -200t-298 200v342q-20 -4 -35 -4q-66 0 -111 46t-45 110t45 110t113 46t114 -47.5t46 -118.5v-486q0 -41 55.5 -65.5t115.5 -24.5
t115.5 24.5t55.5 65.5v635h127v-633z" />
    <glyph glyph-name="uni0E1B" unicode="&#xe1b;" horiz-adv-x="911" 
d="M246 678q0 29 -20.5 49.5t-49.5 20.5t-49.5 -20.5t-20.5 -49.5t20.5 -49.5t49.5 -20.5t49.5 20.5t20.5 49.5zM807 184q0 -200 -298 -200t-298 200v342q-20 -4 -35 -4q-66 0 -111 46t-45 110t45 110t113 46t114 -47.5t46 -118.5v-486q0 -41 55.5 -65.5t115.5 -24.5
t115.5 24.5t55.5 65.5v963h127v-961z" />
    <glyph glyph-name="uni0E1C" unicode="&#xe1c;" horiz-adv-x="847" 
d="M315 678q0 29 -20.5 49.5t-49 20.5t-49 -20.5t-20.5 -49.5t20.5 -49.5t49 -20.5t49 20.5t20.5 49.5zM743 0h-127l-204 328l-205 -328h-125v668q0 72 48 119t115 47t111.5 -47t44.5 -111t-45 -109t-110 -45q-29 0 -37 2v-350l162 252h82l163 -254v645h127v-817z" />
    <glyph glyph-name="uni0E1D" unicode="&#xe1d;" horiz-adv-x="847" 
d="M315 678q0 29 -20.5 49.5t-49 20.5t-49 -20.5t-20.5 -49.5t20.5 -49.5t49 -20.5t49 20.5t20.5 49.5zM743 0h-127l-204 328l-205 -328h-125v668q0 72 48 119t115 47t111.5 -47t44.5 -111t-45 -109t-110 -45q-29 0 -37 2v-350l162 252h82l163 -254v973h127v-1145z" />
    <glyph glyph-name="uni0E1E" unicode="&#xe1e;" horiz-adv-x="987" 
d="M246 678q0 29 -20.5 49.5t-49.5 20.5t-49.5 -20.5t-20.5 -49.5t20.5 -49.5t49.5 -20.5t49.5 20.5t20.5 49.5zM883 0h-144l-192 635l-199 -635h-137v526q-20 -4 -35 -4q-66 0 -111 46t-45 110t45 110t113 46t114 -47.5t46 -118.5v-306q0 -53 -25 -217q45 186 52 201
l143 436h78l143 -436q4 -12 51 -201q-25 164 -24 217v455h127v-817z" />
    <glyph glyph-name="uni0E1F" unicode="&#xe1f;" horiz-adv-x="987" 
d="M246 678q0 29 -20.5 49.5t-49.5 20.5t-49.5 -20.5t-20.5 -49.5t20.5 -49.5t49.5 -20.5t49.5 20.5t20.5 49.5zM883 0h-144l-192 635l-199 -635h-137v526q-20 -4 -35 -4q-66 0 -111 46t-45 110t45 110t113 46t114 -47.5t46 -118.5v-306q0 -53 -25 -217q45 186 52 201
l143 436h78l143 -436q4 -12 51 -201q-25 164 -24 217v783h127v-1145z" />
    <glyph glyph-name="uni0E20" unicode="&#xe20;" horiz-adv-x="870" 
d="M171 -16q-65 0 -110 45t-45 109t45 109.5t107 45.5q25 0 31 -6l-13 127q0 72 70 110q-55 35 -125 25q2 127 92 206t228 79t226.5 -80t88.5 -213v-541h-127v543q0 82 -54.5 132t-135.5 50q-125 0 -183 -104q100 -20 137 -93q-55 -32 -77 -58t-23 -81l21 -250
q0 -66 -44 -110.5t-109 -44.5zM242 139.5q0 28.5 -20.5 49t-49.5 20.5t-49.5 -20.5t-20.5 -49t20.5 -49t49.5 -20.5t49.5 20.5t20.5 49z" />
    <glyph glyph-name="uni0E21" unicode="&#xe21;" horiz-adv-x="854" 
d="M289 149.5q0 28.5 -20.5 49t-49.5 20.5t-49 -20.5t-20 -49t20 -49t49 -20.5t49.5 20.5t20.5 49zM268 678q0 29 -20.5 49.5t-49 20.5t-49 -20.5t-20.5 -49.5t20.5 -49.5t49 -20.5t49 20.5t20.5 49.5zM750 0h-127q-119 106 -240 150v-11q0 -66 -50 -110.5t-116 -44.5
t-115 49t-49 116.5t49.5 115.5t116.5 48h14v213q-20 -4 -34 -4q-66 0 -111 46t-45 110t45 110t113 46t113.5 -47.5t45.5 -118.5v-389q162 -55 263 -146v684h127v-817z" />
    <glyph glyph-name="uni0E22" unicode="&#xe22;" horiz-adv-x="790" 
d="M332 694.5q0 28.5 -18.5 47t-47 18.5t-47 -18.5t-18.5 -47t18.5 -47t47 -18.5t47 18.5t18.5 47zM686 207q0 -223 -302 -223t-302 223v94q0 98 84 139q-94 63 -94 187q0 90 50 148.5t124 58.5t118 -38t44 -96t-39 -99.5t-87 -41.5t-73 10q16 -78 74 -77h145v-101h-145
q-33 0 -53.5 -28.5t-20.5 -65.5v-94q0 -111 175 -111t175 111v614h127v-610z" />
    <glyph glyph-name="uni0E23" unicode="&#xe23;" horiz-adv-x="673" 
d="M467 139.5q0 28.5 -20.5 49t-49 20.5t-49 -20.5t-20.5 -49t20.5 -49t49 -20.5t49 20.5t20.5 49zM428 469q0 49 -383 115q4 113 59.5 181.5t159.5 68.5q43 0 117.5 -19.5t108.5 -19.5t38 45l101 -27q-37 -125 -135 -125q-37 0 -106 18.5t-103 18.5q-90 0 -103 -70
q158 -33 265.5 -69.5t107.5 -126.5v-322q0 -66 -46 -109.5t-111.5 -43.5t-111.5 45t-46 110.5t46 110.5t111 45q25 0 31 -2v176z" />
    <glyph glyph-name="uni0E24" unicode="&#xe24;" horiz-adv-x="800" 
d="M338 137.5q0 28.5 -20.5 49t-49 20.5t-49 -20.5t-20.5 -49t20.5 -49t49 -20.5t49 20.5t20.5 49zM696 -287h-127v830q0 84 -51 133t-135 49q-123 0 -186 -104q96 -18 137 -93q-104 -61 -105 -147v-96q14 8 39 8q63 0 107.5 -44t44.5 -109.5t-45 -110.5t-112 -45t-114 47
t-47 119v239q0 86 84 135q-51 35 -125 25q5 127 95 206t230 79t225 -79t85 -214v-828z" />
    <glyph glyph-name="uni0E25" unicode="&#xe25;" horiz-adv-x="817" 
d="M340 141.5q0 28.5 -20.5 49t-49 20.5t-49 -20.5t-20.5 -49t20.5 -49t49 -20.5t49 20.5t20.5 49zM713 0h-127v354q0 60 -62 90t-126 30t-114 -35q-50 -34 -51 -95v-51q16 4 37 4q66 0 113 -46t47 -111t-49 -109.5t-115 -44.5t-113 44t-47 111v189q0 121 86 184
q86 64 208 64t186 -70v92q0 63 -66 94t-141 31q-76 0 -136 -39t-73 -108h-123q11 125 105 190q94 66 228 66t233 -64t100 -184v-586z" />
    <glyph glyph-name="uni0E26" unicode="&#xe26;" horiz-adv-x="870" 
d="M171 -16q-65 0 -110 45t-45 109t45 109.5t107 45.5q25 0 31 -6l-13 127q0 72 70 110q-55 35 -125 25q2 127 92 206t228 79t226.5 -80t88.5 -213v-828h-127v830q0 82 -54.5 132t-135.5 50q-125 0 -183 -104q100 -20 137 -93q-55 -32 -77 -58t-23 -81l21 -250
q0 -66 -44 -110.5t-109 -44.5zM242 139.5q0 28.5 -20.5 49t-49.5 20.5t-49.5 -20.5t-20.5 -49t20.5 -49t49.5 -20.5t49.5 20.5t20.5 49z" />
    <glyph glyph-name="uni0E27" unicode="&#xe27;" horiz-adv-x="776" 
d="M578 141.5q0 28.5 -20.5 49t-49.5 20.5t-49.5 -20.5t-20.5 -49t20.5 -49t49.5 -20.5t49.5 20.5t20.5 49zM672 150q0 -72 -47 -118t-115 -46t-113 45t-45 109t45 109.5t111 45.5q23 0 37 -2v301q0 131 -189 131q-78 0 -132 -48t-54 -128h-123q6 135 89 210t219 75t218 -54
q98 -63 99 -194v-436z" />
    <glyph glyph-name="uni0E28" unicode="&#xe28;" horiz-adv-x="825" 
d="M473 487.5q0 26.5 -18.5 45t-45 18.5t-44 -18.5t-17.5 -45t17.5 -44t44 -17.5t45 17.5t18.5 44zM721 0h-127v559q0 74 -62 120t-146 46q-85 0 -140.5 -62.5t-55.5 -144.5q0 -23 9.5 -75t9.5 -91v-53q0 24 18 107t60 143q55 72 117 72t103.5 -39.5t41.5 -93.5t-41 -94
t-94 -40t-95 37q-61 -186 -61 -391h-127v131q0 96 -34 210t-34 179q-1 142 99 228t241 86q80 0 156 -33q47 35 47 98h144q-25 -113 -95 -166q66 -76 66 -178v-555z" />
    <glyph glyph-name="uni0E29" unicode="&#xe29;" horiz-adv-x="944" 
d="M573 479.5q0 26.5 -17 45t-44 18.5t-44 -18.5t-17 -45t17 -45t44 -18.5t44 18.5t17 45zM246 678q0 29 -20.5 49.5t-49.5 20.5t-49.5 -20.5t-20.5 -49.5t20.5 -49.5t49.5 -20.5t49.5 20.5t20.5 49.5zM840 184q0 -200 -314 -200t-315 200v342q-20 -4 -35 -4q-66 0 -111 46
t-45 110t45 110t113 46t114 -47.5t46 -118.5v-478q0 -41 48 -69.5t139 -28.5t139.5 29t48.5 69v123q-47 -10 -86 -10q-250 0 -250 170q0 57 38 97t99 40t98 -37.5t37 -97.5t-43 -90q55 4 107 21v411h127v-340q33 31 51 76l67 -68q-39 -66 -118 -118v-183z" />
    <glyph glyph-name="uni0E2A" unicode="&#xe2a;" horiz-adv-x="817" 
d="M340 141.5q0 28.5 -20.5 49t-49 20.5t-49 -20.5t-20.5 -49t20.5 -49t49 -20.5t49 20.5t20.5 49zM713 0h-127v354q0 60 -62 90t-126 30t-114 -35q-50 -34 -51 -95v-51q29 4 37 4q66 0 113 -46t47 -111t-49 -109.5t-115 -44.5t-113 44t-47 111v189q0 121 86 184
q86 64 208 64t186 -70v92q0 63 -66 94t-141 31q-76 0 -136 -39t-73 -108h-123q11 125 105 190q94 66 210 66t191 -33q43 39 43 98h143q-25 -104 -88 -162q61 -66 62 -151v-586z" />
    <glyph glyph-name="uni0E2B" unicode="&#xe2b;" horiz-adv-x="897" 
d="M737 678q0 29 -20.5 49.5t-49 20.5t-49 -20.5t-20.5 -49.5t20.5 -49.5t49 -20.5t49 20.5t20.5 49.5zM246 678q0 29 -20.5 49.5t-49.5 20.5t-49.5 -20.5t-20.5 -49.5t20.5 -49.5t49.5 -20.5t49.5 20.5t20.5 49.5zM793 0h-127v455q0 55 -23 55q-16 0 -47 -51l-266 -459
h-119v526q-20 -4 -35 -4q-66 0 -111 46t-45 110t45 110t113 46t114 -47.5t46 -118.5v-306q0 -53 -25 -217q20 88 62 162l112 195q37 61 66 69q-41 51 -41 112t45 106t110.5 45t110.5 -46t45 -112t-57 -117q27 -51 27 -110v-449z" />
    <glyph glyph-name="uni0E2C" unicode="&#xe2c;" horiz-adv-x="958" 
d="M246 678q0 29 -20.5 49.5t-49.5 20.5t-49.5 -20.5t-20.5 -49.5t20.5 -49.5t49.5 -20.5t49.5 20.5t20.5 49.5zM762 678q0 29 -20.5 49.5t-49 20.5t-49 -20.5t-20.5 -49.5t20.5 -49.5t49 -20.5t49 20.5t20.5 49.5zM854 0h-129l-193 365l-190 -365h-131v526q-20 -4 -35 -4
q-66 0 -111 46t-45 110t45 110t113 46t114 -47.5t46 -118.5v-328q0 -63 -25 -201q18 49 45 99l129 215h91l129 -215q27 -49 45 -99q-25 137 -25 201v186q-20 -4 -35 -4q-66 0 -110.5 46t-44.5 110t45 110t101 46t91 -23q39 33 49 88h111q-14 -104 -96 -158q16 -33 16 -73
v-668z" />
    <glyph glyph-name="uni0E2D" unicode="&#xe2d;" horiz-adv-x="806" 
d="M342 411.5q0 28.5 -20.5 49t-49 20.5t-49 -20.5t-20.5 -49t20.5 -49t49 -20.5t49 20.5t20.5 49zM702 184q0 -106 -96 -157q-78 -43 -200.5 -43t-198.5 43q-92 51 -92 157v207q0 74 41.5 124t111.5 50t115 -44t45 -108t-45 -109.5t-111 -45.5q-18 0 -30 4v-63
q0 -107 167 -107t166 109v393q0 68 -58 100t-136 31q-195 0 -211 -100h-123q27 207 324 209q137 0 234 -59t97 -189v-402z" />
    <glyph glyph-name="uni0E2E" unicode="&#xe2e;" horiz-adv-x="788" 
d="M324 372.5q0 28.5 -20.5 49t-49.5 20.5t-49.5 -20.5t-20.5 -49t20.5 -49t49.5 -20.5t49.5 20.5t20.5 49zM684 184q0 -106 -96 -157q-78 -43 -201 -43t-199 43q-92 51 -92 157v168q0 74 41 124t112 50t116 -44t45 -108t-45.5 -109.5t-110.5 -45.5q-18 0 -31 4v-24
q0 -107 167 -107t167 109v405q-94 -31 -229 -31q-260 0 -260 109q0 152 301 152q147 0 241 -80q16 31 27 80h123q-25 -123 -84 -187q8 -27 8 -69v-396zM328 743q-142 0 -142 -51q0 -33 137 -33t207 29q-60 55 -202 55z" />
    <glyph glyph-name="uni0E2F" unicode="&#xe2f;" horiz-adv-x="778" 
d="M274 676q0 29 -20.5 49t-49 20t-49 -20t-20.5 -49t20.5 -49.5t49 -20.5t49 20.5t20.5 49.5zM672 0h-127v645q0 74 -23 78q-8 -96 -93 -154.5t-175 -58.5t-147 43t-57 116t44.5 119t110 46t111.5 -46.5t46 -111.5q0 -10 -4 -31q68 51 82 172h92q139 0 140 -147v-670z" />
    <glyph glyph-name="uni0E30" unicode="&#xe30;" horiz-adv-x="696" 
d="M262 200.5q0 26.5 -18.5 45t-45 18.5t-44 -18.5t-17.5 -45t17.5 -44t44 -17.5t45 17.5t18.5 44zM59 192q0 68 40.5 109t102.5 41t102 -42t40 -98t-31 -83q190 8 191 229h114q-10 -326 -305 -325q-123 0 -188.5 50.5t-65.5 118.5zM262 665.5q0 26.5 -18.5 45t-45 18.5
t-44 -18.5t-17.5 -45t17.5 -44t44 -17.5t45 17.5t18.5 44zM313 487q-123 0 -188.5 50.5t-65.5 118.5t40.5 109.5t102.5 41.5t102 -42t40 -98t-31 -83q190 8 191 229h114q-10 -326 -305 -326z" />
    <glyph glyph-name="uni0E31" unicode="&#xe31;" 
d="M-317 1155q0 27 -18.5 45.5t-45.5 18.5t-44 -18.5t-17 -45.5t17 -44t44 -17t45.5 17t18.5 44zM-266 977q-123 0 -188.5 50.5t-65.5 118.5t41 109t102 41t101 -42t40 -98t-30 -83q213 8 248 244h120q-53 -340 -368 -340z" />
    <glyph glyph-name="uni0E32" unicode="&#xe32;" horiz-adv-x="688" 
d="M584 0h-127v596q0 57 -39 93t-106.5 36t-110.5 -45t-45 -115h-123q6 123 80.5 196t193.5 73t198 -58.5t79 -177.5v-598z" />
    <glyph glyph-name="uni0E33" unicode="&#xe33;" horiz-adv-x="688" 
d="M584 0h-127v596q0 57 -39 93t-106.5 36t-110.5 -45t-45 -115h-123q6 123 80.5 196t193.5 73t198 -58.5t79 -177.5v-598zM-113 1124.5q0 34.5 -23.5 59t-58 24.5t-59.5 -24.5t-25 -59t25 -58.5t59.5 -24t58 24t23.5 58.5zM-23 1125q0 -73 -50 -123t-123 -50t-123 50.5
t-50 122t51.5 122.5t123 51t121.5 -50t50 -123z" />
    <glyph glyph-name="uni0E34" unicode="&#xe34;" 
d="M-442 1184q-76 0 -129.5 -30t-67.5 -79q35 8 148 8t260 -41q-12 51 -73.5 96.5t-137.5 45.5zM-565 1004q-96 0 -195 -13q25 274 299 275q158 0 250.5 -95t110.5 -249q-254 82 -465 82z" />
    <glyph glyph-name="uni0E35" unicode="&#xe35;" 
d="M-442 1184q-76 0 -129.5 -30t-67.5 -79q35 8 148 8t260 -41q-12 51 -73.5 96.5t-137.5 45.5zM-565 1004q-96 0 -195 -13q25 274 299 275q145 0 234 -80v141h123v-377l4 -28q-254 82 -465 82z" />
    <glyph glyph-name="uni0E36" unicode="&#xe36;" 
d="M-78 1230q0 -46 -23.5 -79t-60.5 -43q49 -80 62 -186q-254 82 -465 82q-96 0 -195 -13q25 274 299 275q80 0 144 -25q6 45 38.5 76t81.5 31t84 -36t35 -82zM-141 1224.5q0 24.5 -17.5 42t-40 17.5t-41 -17.5t-18.5 -42t18.5 -41t41 -16.5t40 16.5t17.5 41zM-442 1184
q-76 0 -129.5 -30t-67.5 -79q35 8 148 8t260 -41q-12 51 -73.5 96.5t-137.5 45.5z" />
    <glyph glyph-name="uni0E37" unicode="&#xe37;" 
d="M-442 1184q-76 0 -129.5 -30t-67.5 -79q35 8 148 8t260 -41q-12 51 -73.5 96.5t-137.5 45.5zM-565 1004q-96 0 -195 -13q25 274 299 275q31 0 58 -4v65h92v-86q45 -18 84 -55v141h123v-377l4 -28q-254 82 -465 82z" />
    <glyph glyph-name="uni0E38" unicode="&#xe38;" 
d="M-176 -198.5q0 22.5 -16.5 39t-39 16.5t-40 -16.5t-17.5 -39t17.5 -40t40 -17.5t39 17.5t16.5 40zM-104 -481h-123v155h-9q-51 0 -86.5 36t-35.5 86t36 87t88 37t91 -32.5t39 -90.5v-278z" />
    <glyph glyph-name="uni0E39" unicode="&#xe39;" 
d="M-422 -198.5q0 22.5 -16.5 39t-39 16.5t-40 -16.5t-17.5 -39t17.5 -40t40 -17.5t39 17.5t16.5 40zM-104 -373q0 -69 -54 -101t-128 -32q-75 0 -129 31t-54 88v61h-12q-51 0 -87 36t-36 86t36 87t88 37t91 -32.5t39 -90.5v-184q0 -31 64 -31t63 31v289h119v-275z" />
    <glyph glyph-name="uni0E3A" unicode="&#xe3a;" 
d="M-76 -155.5q0 -28.5 -21.5 -50t-50 -21.5t-50 21.5t-21.5 50t21.5 50t50 21.5t50 -21.5t21.5 -50z" />
    <glyph glyph-name="uni0E3F" unicode="&#xe3f;" horiz-adv-x="796" 
d="M532 698q0 127 -200 127q-12 0 -80 -10v-246h113q78 0 122.5 37t44.5 92zM569 307q0 150 -225 150h-92v-299q34 -6 104 -6t142 38t71 117zM686 309q0 -219 -252 -258v-166h-112v158q-72 0 -191 20v842q119 27 191 29v135h112v-141q219 -35 219 -228q0 -113 -96 -184
q129 -76 129 -207z" />
    <glyph glyph-name="uni0E40" unicode="&#xe40;" horiz-adv-x="425" 
d="M332 139.5q0 28.5 -20.5 49t-49.5 20.5t-49 -20.5t-20 -49t20 -49t49 -20.5t49.5 20.5t20.5 49zM418 139.5q0 -65.5 -46 -110.5t-113 -45t-114 47t-47 119v667h127v-526q10 4 37 4q63 0 109.5 -45t46.5 -110.5z" />
    <glyph glyph-name="uni0E41" unicode="&#xe41;" horiz-adv-x="808" 
d="M715 139.5q0 28.5 -20.5 49t-49.5 20.5t-49.5 -20.5t-20.5 -49t20.5 -49t49.5 -20.5t49.5 20.5t20.5 49zM332 139.5q0 28.5 -20.5 49t-49.5 20.5t-49 -20.5t-20 -49t20 -49t49 -20.5t49.5 20.5t20.5 49zM801 139.5q0 -65.5 -46 -110.5t-113 -45t-114 47t-47 119v667h127
v-526q10 4 37 4q63 0 109.5 -45t46.5 -110.5zM418 139.5q0 -65.5 -46 -110.5t-113 -45t-114 47t-47 119v667h127v-526q10 4 37 4q63 0 109.5 -45t46.5 -110.5z" />
    <glyph glyph-name="uni0E42" unicode="&#xe42;" horiz-adv-x="516" 
d="M422 139.5q0 28.5 -20.5 49t-49 20.5t-49 -20.5t-20.5 -49t20.5 -49t49 -20.5t49 20.5t20.5 49zM508 139.5q0 -65.5 -46 -110.5t-113 -45t-114 47t-47 119v813q-10 71 -94 109t-162 38q10 233 209 233q53 0 120 -33.5t91 -33.5t47 61l95 -24q-39 -139 -123 -139
q-39 0 -111 33.5t-132 33.5t-81 -51q268 -70 268 -238v-661q10 4 37 4q63 0 109.5 -45t46.5 -110.5z" />
    <glyph glyph-name="uni0E43" unicode="&#xe43;" horiz-adv-x="550" 
d="M127 1112q0 27 -18.5 45.5t-45 18.5t-45 -18.5t-18.5 -45.5t18.5 -45t45 -18t45 18t18.5 45zM457 139.5q0 28.5 -20.5 49t-49.5 20.5t-49.5 -20.5t-20.5 -49t20.5 -49t49.5 -20.5t49.5 20.5t20.5 49zM543 139.5q0 -65.5 -46 -110.5t-113 -45t-114 47t-47 119v772
q0 47 36 123.5t36 118.5t-31.5 69t-89.5 27t-90 -25q51 0 83 -37t32 -88t-39.5 -91t-97.5 -40t-95 43t-37 100q0 111 71 169q71 59 171 59t172 -50t72 -135q0 -47 -33 -132t-33 -128v-614q10 4 37 4q63 0 109.5 -45t46.5 -110.5z" />
    <glyph glyph-name="uni0E44" unicode="&#xe44;" horiz-adv-x="516" 
d="M422 139.5q0 28.5 -20.5 49t-49 20.5t-49 -20.5t-20.5 -49t20.5 -49t49 -20.5t49 20.5t20.5 49zM508 139.5q0 -65.5 -46 -110.5t-113 -45t-114 47t-47 119v1011l-122 -180l-82 25q-8 193 -58 358h111q25 -162 26 -244l146 228q41 -6 73.5 -39t32.5 -78v-940q10 4 37 4
q63 0 109.5 -45t46.5 -110.5z" />
    <glyph glyph-name="uni0E45" unicode="&#xe45;" horiz-adv-x="428" 
d="M324 -287h-127v883q0 57 -39 93t-106.5 36t-110.5 -45t-45 -115h-123q6 123 80.5 196t193.5 73t198 -58.5t79 -177.5v-885z" />
    <glyph glyph-name="uni0E46" unicode="&#xe46;" horiz-adv-x="894" 
d="M395 508q0 31 -22.5 53.5t-53 22.5t-53 -22.5t-22.5 -53.5t22.5 -53.5t53 -22.5t53 22.5t22.5 53.5zM780 -287h-127v879q0 84 -80 135l-94 -74l-121 76q-35 -23 -49 -63h15q66 0 111.5 -46.5t45.5 -112t-45.5 -111.5t-119.5 -46t-121.5 63.5t-47.5 156.5t64.5 172
t165.5 104l98 -78l88 78q98 -25 157.5 -91.5t59.5 -160.5v-881z" />
    <glyph glyph-name="uni0E47" unicode="&#xe47;" 
d="M-190 1067q0 18 -13.5 31.5t-32 13.5t-32 -13.5t-13.5 -31.5t13.5 -31.5t32 -13.5t32 13.5t13.5 31.5zM-129 1067q0 -43 -30.5 -74.5t-76.5 -31.5q-100 0 -229 86q-27 -8 -58.5 -40t-35.5 -57q-109 72 -109 163t60 134t147 43h139q100 0 101 90v47h98v-45q0 -84 -55 -129
t-141 -45h-150q-33 0 -59.5 -21.5t-26.5 -55.5t12 -54q31 47 92 51q47 -31 113 -53q0 41 32 70t74 29t72.5 -32t30.5 -75z" />
    <glyph glyph-name="uni0E48" unicode="&#xe48;" 
d="M-104 1386h-123v234h123v-234z" />
    <glyph glyph-name="uni0E49" unicode="&#xe49;" 
d="M-272 1609.5q0 22.5 -15.5 38t-38 15.5t-38 -15.5t-15.5 -38t15.5 -38t38 -15.5t38 15.5t15.5 38zM-381 1366h-57v68q82 6 100 59q-104 27 -104 121q0 49 34.5 82t86.5 33t84 -34t32 -87q0 -80 -90 -170q100 20 163.5 95t70.5 177h106q-37 -195 -136 -269.5t-290 -74.5z
" />
    <glyph glyph-name="uni0E4A" unicode="&#xe4a;" 
d="M-354 1478.5q0 22.5 -14.5 38t-37 15.5t-38 -15.5t-15.5 -38t15.5 -37t38 -14.5t37 14.5t14.5 37zM-238 1376v60q80 39 80 123q0 59 -59 75l-64 -65l-65 69q-35 -8 -62 -45q49 0 83 -32.5t34 -79.5t-32.5 -80t-80.5 -33t-81 32t-33 78q0 86 49.5 154.5t142.5 79.5l47 -53
l48 53q63 -2 105 -43t42 -101t-25 -106q96 59 97 236h86q-8 -322 -312 -322z" />
    <glyph glyph-name="uni0E4B" unicode="&#xe4b;" 
d="M-2 1477h-107v-91h-112v91h-98v84h98v86h112v-86h107v-84z" />
    <glyph glyph-name="uni0E4C" unicode="&#xe4c;" 
d="M-190 1431.5q0 22.5 -14.5 38t-37 15.5t-38 -15.5t-15.5 -38t15.5 -37t38 -14.5t37 14.5t14.5 37zM-244 1309q-51 0 -87 36.5t-36 88.5q0 129 140 174q63 20 82 32q41 25 41 70h84q-6 -76 -52 -115q-35 -33 -116 -55q68 -33 67 -108q0 -51 -36 -87t-87 -36z" />
    <glyph glyph-name="uni0E4D" unicode="&#xe4d;" 
d="M-113 1124.5q0 34.5 -23.5 59t-58 24.5t-59.5 -24.5t-25 -59t25 -58.5t59.5 -24t58 24t23.5 58.5zM-23 1125q0 -73 -50 -123t-123 -50t-123 50.5t-50 122t51.5 122.5t123 51t121.5 -50t50 -123z" />
    <glyph glyph-name="uni0E4E" unicode="&#xe4e;" 
d="M-308 932q-58 0 -99.5 33t-41.5 85t32 88t79 44q-20 31 -20 63q0 68 50 100q50 31 112 31t116 -20l-31 -76q-41 14 -82 14q-76 0 -75 -49q0 -55 106 -65l-33 -78q-39 14 -65 14q-102 0 -102 -65q0 -41 77 -41q31 0 76 18v-78q-41 -18 -99 -18z" />
    <glyph glyph-name="uni0E4F" unicode="&#xe4f;" horiz-adv-x="921" 
d="M807 332q0 -141 -101.5 -242.5t-245 -101.5t-244.5 101t-101 244.5t100.5 245t242.5 101.5t245.5 -103.5t103.5 -244.5zM735 335q0 114 -79.5 193.5t-193.5 79.5t-195 -79.5t-81 -194.5t81 -196t193.5 -81t193.5 82t81 196zM664 334q0 -84 -59.5 -144.5t-143.5 -60.5
t-143.5 60.5t-59.5 144.5t59.5 143.5t143.5 59.5t143.5 -59.5t59.5 -143.5zM592 333q0 54 -38 93t-93 39t-93 -39t-38 -93t38 -92t93 -38t93 38t38 92z" />
    <glyph glyph-name="uni0E50" unicode="&#xe50;" horiz-adv-x="933" 
d="M827.5 299q-0.5 -141 -111.5 -229q-112 -88 -250 -88t-250 88t-112 229t112 229t250 88t250 -88t111.5 -229zM692 299q0 94 -66.5 149.5t-158.5 55.5t-158.5 -55.5t-66.5 -149.5t66.5 -149.5t158.5 -55.5t158.5 55.5t66.5 149.5z" />
    <glyph glyph-name="uni0E51" unicode="&#xe51;" horiz-adv-x="933" 
d="M520 250q0 29 -20.5 49t-49 20t-49 -20t-20.5 -49t20.5 -49.5t49 -20.5t49 20.5t20.5 49.5zM836 239q0 -159 -109 -280h-152q139 133 140 285q0 117 -68.5 187.5t-176.5 70.5t-179.5 -62.5t-71.5 -149.5t45 -143.5t121 -56.5q31 0 61 10q-72 0 -112 46t-41 107
q0 60 47 104t116 44t113.5 -51t44.5 -141t-70 -156.5t-184 -66.5t-189 87t-75 220t110.5 227t266.5 94t259.5 -108t103.5 -267z" />
    <glyph glyph-name="uni0E52" unicode="&#xe52;" horiz-adv-x="933" 
d="M455 284.5q0 26.5 -17.5 44t-44 17.5t-43 -17.5t-16.5 -44t16.5 -43t43 -16.5t44 16.5t17.5 43zM862 143q0 -143 -137 -143h-530q-115 0 -115 133v580q0 27 -21 35q-2 0 -36 4v104q90 0 136 -30t46 -115v-539q0 -66 57 -66h422q53 0 53 50v276q0 74 -45 74
q-66 0 -65 -119h-82q-23 123 -96 123q-31 0 -50.5 -26.5t-21.5 -59.5h16q59 0 99 -40t40 -98t-39.5 -98.5t-99.5 -40.5q-160 0 -160 185q1 122 55 204t158 82t134 -79q36 79 116 79t123 -55t43 -127v-293z" />
    <glyph glyph-name="uni0E53" unicode="&#xe53;" horiz-adv-x="933" 
d="M307 131q0 29 -19.5 48.5t-48 19.5t-47 -19.5t-18.5 -48.5t18.5 -47t47 -18t48 18t19.5 47zM852 0h-119v389q0 117 -82 117q-41 0 -69.5 -39t-28.5 -84v-383h-121v383q0 121 -131 121q-74 0 -108 -88q-25 -63 -25 -148q33 18 84 18t96 -41t45 -105t-42 -108t-113 -46
q-98 -2 -142 84t-43 210q0 124 65 230q66 106 188 106t183 -92q57 94 159 93t153 -65.5t51 -160.5v-391z" />
    <glyph glyph-name="uni0E54" unicode="&#xe54;" horiz-adv-x="933" 
d="M512 313.5q0 26.5 -17.5 44t-44 17.5t-44 -17.5t-17.5 -44t17.5 -44t44 -17.5t44 17.5t17.5 44zM645 37q-63 0 -159.5 -25.5t-145.5 -25.5q-135 0 -218 85t-83 212q0 338 438 338q174 0 248 26q121 43 147 209h117q-45 -223 -172 -297q-89 -51 -279 -51t-259 -29
q-113 -49 -113 -188q0 -80 54 -140.5t116 -60.5q12 0 156 23q-188 49 -189 196q0 68 45 111t109 43t104.5 -46t40.5 -112t-61 -115q33 -16 89 -25t112.5 -22.5t140.5 -64.5l-60 -96q-115 55 -178 55z" />
    <glyph glyph-name="uni0E55" unicode="&#xe55;" horiz-adv-x="933" 
d="M565 714.5q0 26.5 -17.5 44t-44 17.5t-44 -17.5t-17.5 -44t17.5 -44t44 -17.5t44 17.5t17.5 44zM512 313.5q0 26.5 -17.5 44t-44 17.5t-44 -17.5t-17.5 -44t17.5 -44t44 -17.5t44 17.5t17.5 44zM645 37q-63 0 -159.5 -25.5t-145.5 -25.5q-135 0 -218 85t-83 212
q0 309 364 335q-39 39 -38.5 98.5t41 99.5t98.5 40t98.5 -40t40.5 -96t-35 -97q68 6 117 24q121 45 147 209h117q-45 -223 -172 -297q-89 -51 -279 -51t-259 -29q-113 -49 -113 -188q0 -80 54 -140.5t116 -60.5q12 0 156 23q-188 49 -189 196q0 68 45 111t109 43t104.5 -46
t40.5 -112t-61 -115q33 -16 93 -26t112.5 -22.5t136.5 -63.5l-60 -96q-115 55 -178 55z" />
    <glyph glyph-name="uni0E56" unicode="&#xe56;" horiz-adv-x="933" 
d="M365 188.5q0 28.5 -19.5 48t-48.5 19.5t-47.5 -19.5t-18.5 -48t18.5 -47t47.5 -18.5t48.5 18.5t19.5 47zM497 616q163 0 270 -76t107 -234q0 -157 -118 -241q-118 -83 -262 -83q-146 0 -215 28q-137 55 -138 174q0 68 42 113t109.5 45t113 -45t45.5 -105t-27 -94
q14 -2 47 -2q115 0 191 49q90 55 90 157t-73 152q-73 48 -171 48q-223 0 -318 -129h-43q-7 167 -29 277t-95 206h139q74 -133 84 -295q88 55 251 55z" />
    <glyph glyph-name="uni0E57" unicode="&#xe57;" horiz-adv-x="933" 
d="M283 147.5q0 28.5 -21.5 50t-50.5 21.5t-49.5 -21.5t-20.5 -50t20.5 -49t49.5 -20.5t50.5 20.5t21.5 49zM895 473q0 -244 -74 -352q-88 -127 -301 -127q84 227 84 391q0 39 -17 82t-52 43t-58 -47q-16 -39 -16 -80v-82h-123v78q0 131 -92 131q-48 0 -72 -62t-24 -139v-22
q37 16 65 16q63 0 110.5 -46t47.5 -113t-45 -109.5t-113 -42.5q-100 0 -149 102q-37 78 -37 199t43 209q57 114 169 114t156 -79q47 79 139 79t140 -72t47 -178q0 -105 -31 -221q86 57 86 304q0 319 41 407h125q-51 -76 -50 -219.5t1 -163.5z" />
    <glyph glyph-name="uni0E58" unicode="&#xe58;" horiz-adv-x="933" 
d="M772 159q0 30 -21.5 52t-52 22t-52 -22.5t-21.5 -52.5t21.5 -51t52 -21t52 21.5t21.5 51.5zM872 161q0 -71 -51 -124t-123 -53q-147 0 -315 155q-45 -16 -97.5 -72.5t-60.5 -99.5q-178 121 -178 340q0 188 111 256q88 53 276 53t248 29q82 41 82 162v18h119q2 -16 2 -45
q0 -180 -148 -237q-88 -35 -319 -35q-254 0 -254 -205q0 -123 57 -160q23 47 84.5 83t112.5 36q47 -61 112 -90q2 68 54 115t120 47t118 -51t50 -122z" />
    <glyph glyph-name="uni0E59" unicode="&#xe59;" horiz-adv-x="933" 
d="M414 131q0 29 -19.5 48.5t-48.5 19.5t-47 -19.5t-18 -48.5t18 -47t47 -18t48.5 18t19.5 47zM336 504q-74 0 -120 -63.5t-46 -136.5t35 -132q31 109 143 109q59 0 102.5 -43.5t43.5 -103.5t-43 -104t-103 -44q-131 0 -215 93t-84 224t87 222t207 91t194 -67q23 66 86 65
q29 0 77 -29.5t76 -29.5q39 -1 39 109t-24 186h100q23 -102 22 -199q0 -207 -118 -207q-27 0 -75 31t-67 31q-37 0 -37 -39q0 -72 109 -225.5t174 -184.5l-84 -77q-150 117 -280 376q-12 27 -24.5 54.5t-37.5 46.5q-63 47 -137 47z" />
    <glyph glyph-name="uni0E5A" unicode="&#xe5a;" horiz-adv-x="1075" 
d="M274 676q0 29 -20.5 49t-49 20t-49 -20t-20.5 -49t20.5 -49.5t49 -20.5t49 20.5t20.5 49.5zM981 0h-127v645q0 74 -23 78q-12 -135 -159 -191v-532h-127v645q0 74 -23 78q-8 -96 -93 -154.5t-175 -58.5t-147.5 43t-57.5 116t45 119t110.5 46t111.5 -46.5t46 -111.5
q0 -10 -4 -31q68 51 82 172h92q139 0 140 -147v-23q66 53 78 170h92q139 0 139 -147v-670z" />
    <glyph glyph-name="uni0E5B" unicode="&#xe5b;" horiz-adv-x="1427" 
d="M1274 344q-56 0 -107 51q-12 -98 -57 -112q-18 1 -44 77t-40 91q0 -188 -55 -189q-12 0 -36 78t-42 100q-12 -201 -78 -200q-12 0 -38 90t-40 110q0 -391 -305 -391q-127 0 -200.5 88t-73.5 240t63.5 235.5t166.5 83.5t156.5 -56t53.5 -150t-39 -160t-121 -66
q-45 0 -77.5 34t-32.5 80t31.5 78.5t81.5 32.5t85 -40v4l4 49q10 131 -124 131q-84 0 -129.5 -72.5t-45.5 -190.5t56.5 -185.5t144.5 -67.5q121 0 185.5 88t64.5 250q0 63 -6 96q115 -23 153 -217q33 107 2 213q86 -25 150 -178q10 51 10 72t-10 79q88 -25 131 -172
q33 45 14 127q10 -2 84 -55t150 -53h10q-40 -23 -96 -23zM438.5 319q57.5 0 57.5 57.5t-57.5 57.5t-57.5 -57.5t57.5 -57.5zM444 641v12h7q10 0 10 8.5t-10 8.5h-11v-29h4zM471 670h-4v-29h4v10l4 4l6 -14h6l-10 16l10 13h-6l-10 -15v15zM352 641v29h-4v-13h-14v13h-4v-29h4
v14h14v-14h4zM434 662q0 8 -9 8t-9 -8q6 -6 16 -13q0 -6 -6 -6t-6 8h-4q0 -10 10 -10t10 8q-6 6 -16 13q0 6 6 6q4 -4 4 -6h4zM322 651q0 -8 -8.5 -8t-8.5 12.5t7 12.5t10 -9h4q-4 10 -13 11q-12 0 -12 -14.5t12.5 -14.5t12.5 10h-4zM377 641v4h-15v25h-4v-29h19zM444 655
v13h7q6 0 6 -6.5t-6 -6.5h-7zM385 641v12h6q10 0 10 8.5t-10 8.5h-10v-29h4zM385 655v13h6q6 0 6 -6.5t-6 -6.5h-6z" />
    <glyph glyph-name="zerowidthnonjoiner" unicode="&#x200c;" 
d="M37 -512h-72v1100h72v-1100z" />
    <glyph glyph-name="zerowidthjoiner" unicode="&#x200d;" 
d="M37 -512h-72v918l-41 -41l-35 34l76 76l-76 80l37 33l74 -76l76 76l37 -33l-76 -80l76 -76l-37 -34l-39 41v-918z" />
    <glyph glyph-name="lefttorightmark" unicode="&#x200e;" 
d="M37 -512h-72v1028h271l-35 37l32 33l107 -107l-107 -106l-32 35l35 36h-199v-956z" />
    <glyph glyph-name="righttoleftmark" unicode="&#x200f;" 
d="M37 516v-1028h-72v956h-198l34 -36l-32 -35l-107 106l107 107q12 -18 32 -33l-34 -37h270z" />
    <glyph glyph-name="endash" unicode="&#x2013;" horiz-adv-x="686" 
d="M668 322h-650v110h650v-110z" />
    <glyph glyph-name="emdash" unicode="&#x2014;" horiz-adv-x="1419" 
d="M1401 322h-1383v110h1383v-110z" />
    <glyph glyph-name="quoteleft" unicode="&#x2018;" horiz-adv-x="518" 
d="M336 764q0 -39 -27.5 -65.5t-66.5 -26.5t-65.5 26.5t-29.5 65.5q2 123 60.5 197.5t105.5 93.5l31 -35q-104 -68 -121 -164l19 2q39 0 66.5 -27.5t27.5 -66.5z" />
    <glyph glyph-name="quoteright" unicode="&#x2019;" horiz-adv-x="518" 
d="M182 934q0 39 28 65.5t66.5 26.5t65.5 -26.5t29 -65.5q-2 -123 -60.5 -197.5t-105.5 -93.5l-31 35q104 68 121 164l-19 -2q-39 0 -66.5 27.5t-27.5 66.5z" />
    <glyph glyph-name="quotesinglbase" unicode="&#x201a;" horiz-adv-x="518" 
d="M182 86q0 39 28 65.5t66.5 26.5t65.5 -26.5t29 -65.5q-2 -123 -60.5 -197.5t-105.5 -93.5l-31 35q104 68 121 164l-19 -2q-39 0 -66.5 27.5t-27.5 66.5z" />
    <glyph glyph-name="quotedblleft" unicode="&#x201c;" horiz-adv-x="786" 
d="M604 764q0 -39 -27.5 -65.5t-66.5 -26.5t-65.5 26.5t-28.5 65.5q2 123 60.5 197.5t105.5 93.5l30 -35q-104 -68 -120 -164l18 2q39 0 66.5 -27.5t27.5 -66.5zM336 764q0 -39 -27.5 -65.5t-66.5 -26.5t-65.5 26.5t-29.5 65.5q2 123 60.5 197.5t105.5 93.5l31 -35
q-104 -68 -121 -164l19 2q39 0 66.5 -27.5t27.5 -66.5z" />
    <glyph glyph-name="quotedblright" unicode="&#x201d;" horiz-adv-x="786" 
d="M451 934q0 39 27.5 65.5t66.5 26.5t65.5 -26.5t28.5 -65.5q-2 -123 -60.5 -197.5t-105.5 -93.5l-31 35q104 68 121 164l-18 -2q-39 0 -66.5 27.5t-27.5 66.5zM182 934q0 39 28 65.5t66.5 26.5t65.5 -26.5t29 -65.5q-2 -123 -60.5 -197.5t-105.5 -93.5l-31 35
q104 68 121 164l-19 -2q-39 0 -66.5 27.5t-27.5 66.5z" />
    <glyph glyph-name="quotedblbase" unicode="&#x201e;" horiz-adv-x="786" 
d="M451 86q0 39 27.5 65.5t66.5 26.5t65.5 -26.5t28.5 -65.5q-2 -123 -60.5 -197.5t-105.5 -93.5l-31 35q104 68 121 164l-18 -2q-39 0 -66.5 27.5t-27.5 66.5zM182 86q0 39 28 65.5t66.5 26.5t65.5 -26.5t29 -65.5q-2 -123 -60.5 -197.5t-105.5 -93.5l-31 35
q104 68 121 164l-19 -2q-39 0 -66.5 27.5t-27.5 66.5z" />
    <glyph glyph-name="dagger" unicode="&#x2020;" horiz-adv-x="778" 
d="M440 -68h-102v650l-258 -9v99l258 -8v309h102v-309l258 8v-99l-258 9v-650z" />
    <glyph glyph-name="daggerdbl" unicode="&#x2021;" horiz-adv-x="778" 
d="M440 -68h-102v297l-258 -6v96l258 -8v271l-258 -9v99l258 -8v309h102v-309l258 8v-99l-258 9v-271l258 8v-96l-258 6v-297z" />
    <glyph glyph-name="bullet" unicode="&#x2022;" horiz-adv-x="462" 
d="M403 409q0 -71 -50 -121t-121.5 -50t-122 50t-50.5 121.5t49.5 122t121.5 50.5t122.5 -51t50.5 -122z" />
    <glyph glyph-name="ellipsis" unicode="&#x2026;" horiz-adv-x="1032" 
d="M954 80q0 -41 -28.5 -69.5t-69.5 -28.5t-69.5 28.5t-28.5 69.5t28.5 69.5t69.5 28.5t69.5 -28.5t28.5 -69.5zM614 80q0 -41 -28.5 -69.5t-69.5 -28.5t-69.5 28.5t-28.5 69.5t28.5 69.5t69.5 28.5t69.5 -28.5t28.5 -69.5zM274 80q0 -41 -28.5 -69.5t-69.5 -28.5
t-69.5 28.5t-28.5 69.5t28.5 69.5t69.5 28.5t69.5 -28.5t28.5 -69.5z" />
    <glyph glyph-name="perthousand" unicode="&#x2030;" horiz-adv-x="1990" 
d="M1788 286q0 192 -123 191q-121 0 -121 -191t121 -192q123 0 123 192zM1911 284q0 -300 -245 -300t-245 300t245 300t245 -300zM1206 286q0 192 -123 191q-121 0 -121 -191t121 -192q123 0 123 192zM1329 284q0 -300 -245 -300q-244 0 -244 300t244 300t245 -300zM444 694
q0 190 -120 191q-120 -1 -121 -191q1 -190 121 -190t120 190zM565 693q-1 -300 -243 -300t-242 300t242 300t243 -300zM444 -18h-125l625 993h125z" />
    <glyph glyph-name="minute" unicode="&#x2032;" horiz-adv-x="268" 
d="M92 760h-55l78 215h112z" />
    <glyph glyph-name="second" unicode="&#x2033;" horiz-adv-x="450" 
d="M274 760h-55l78 215h113zM92 760h-55l78 215h112z" />
    <glyph glyph-name="guilsinglleft" unicode="&#x2039;" horiz-adv-x="479" 
d="M418 96h-123l-234 271l230 278h125l-232 -278z" />
    <glyph glyph-name="guilsinglright" unicode="&#x203a;" horiz-adv-x="479" 
d="M184 96h-123l234 273l-232 276h123l232 -278z" />
    <glyph glyph-name="fraction" unicode="&#x2044;" horiz-adv-x="301" 
d="M12 0h-123l408 977h121z" />
    <glyph glyph-name="franc" unicode="&#x20a3;" horiz-adv-x="804" 
d="M541 184h-262v-184h-123v184h-144v107h144v686h571v-111h-448v-307h419v-110h-419v-158h262v-107z" />
    <glyph glyph-name="dong" unicode="&#x20ab;" horiz-adv-x="890" 
d="M850 -211h-780v119h780v-119zM651 264v160q0 78 -75.5 135t-171.5 57t-160 -71.5t-64 -189.5t64 -189.5t172 -71.5t171.5 46t63.5 124zM411.5 -18q-151.5 0 -255 107t-103.5 267t99.5 263.5t251.5 103.5t247 -96v213h-200v90h200v102h129v-102h119v-90h-119v-654
q0 -86 8 -186h-122q-6 23 -7 76q-96 -94 -247.5 -94z" />
    <glyph glyph-name="Euro" unicode="&#x20ac;" horiz-adv-x="1060" 
d="M59 293v110h97q-6 76 0 150h-97v109h125q72 154 209 241.5t293 87.5t307 -61l-39 -115q-114 63 -252 63t-237.5 -56t-149.5 -160h504v-109h-538q-8 -74 2 -150h536v-110h-500q51 -86 146.5 -141.5t231.5 -55.5t253 56l49 -101q-146 -69 -313 -69q-166 0 -301.5 88
t-200.5 223h-125z" />
    <glyph glyph-name="uni2113" unicode="&#x2113;" horiz-adv-x="520" 
d="M340 731q0 39 -9 61.5t-36 22.5t-33 -19.5t-6 -60.5v-162q27 23 55.5 71t28.5 87zM139 154v221l-69 -47l-50 82l119 73v252q0 94 47 140.5t112 46.5t111 -46.5t46 -112.5q0 -111 -53.5 -183.5t-145.5 -141.5v-276q0 -18 6 -42t41 -24t100 78l33 -84q-87 -100 -180 -100
q-49 0 -83 39t-34 125z" />
    <glyph glyph-name="trademark" unicode="&#x2122;" horiz-adv-x="1245" 
d="M1192 369h-94l-25 432l-170 -432h-69l-164 432l-31 -432h-90l37 604h100l184 -475l185 475h98zM340 369h-92v518h-205v86h502v-86h-205v-518z" />
    <glyph glyph-name="Ohm" unicode="&#x2126;" horiz-adv-x="974" 
d="M911 0h-354v268q199 88 199 283q0 117 -76 193.5t-190.5 76.5t-191.5 -76.5t-77 -193.5q0 -195 199 -283v-268h-354v111h241v79q-84 41 -149.5 140.5t-65.5 214.5q0 186 108.5 286.5t287.5 100.5t288 -101.5t109 -285.5q0 -125 -64.5 -221.5t-150.5 -133.5v-79h241v-111z
" />
    <glyph glyph-name="estimated" unicode="&#x212e;" horiz-adv-x="714" 
d="M356 -14q-279 0 -278 428q0 190 77.5 283.5t206.5 93.5t198 -106.5t73 -305.5h-434q15 -287 157 -287q104 0 154 156h117q-59 -262 -271 -262zM356 686q-129 0 -153 -203h305q-23 203 -152 203z" />
    <glyph glyph-name="onethird" unicode="&#x2153;" horiz-adv-x="1110" 
d="M674 436q62 148 200 148t138 -124q0 -58 -64 -114q107 -16 107 -143q0 -100 -70 -159.5t-162 -59.5t-161 51l40 88q57 -45 119 -45t99.5 34.5t37.5 88.5q0 72 -67 71q-51 0 -94 -36l-33 61q90 47 122 84t32 77t-52 40q-82 0 -116 -101zM369 360h-275v80h88v357l-78 -68
l-57 74l172 151q63 -4 64 -71v-443h86v-80zM291 -18h-101l584 976h100z" />
    <glyph glyph-name="twothirds" unicode="&#x2154;" horiz-adv-x="1110" 
d="M238 967q182 0 182 -160q0 -72 -62.5 -139.5t-110.5 -113.5t-97 -97h243l-12 -84h-365q4 103 144 229q112 104 132.5 141t20.5 64q0 76 -69 76q-41 0 -69 -29t-32 -82l-94 14q10 86 62.5 133.5t126.5 47.5zM674 436q62 148 200 148t138 -124q0 -58 -64 -114
q107 -16 107 -143q0 -100 -70 -159.5t-162 -59.5t-161 51l40 88q57 -45 119 -45t99.5 34.5t37.5 88.5q0 72 -67 71q-51 0 -94 -36l-33 61q90 47 122 84t32 77t-52 40q-82 0 -116 -101zM291 -18h-101l584 976h100z" />
    <glyph glyph-name="uni2155" unicode="&#x2155;" horiz-adv-x="1110" 
d="M868 393q80 0 137.5 -51t57.5 -143t-69.5 -153.5t-169.5 -61.5t-177 59l45 78q29 -16 58.5 -31.5t76.5 -15.5t89 35t42 87t-32 78.5t-66 26.5q-75 0 -94 -45h-68l19 330h332l-19 -90h-217l-6 -117q28 14 61 14zM369 360h-275v80h88v357l-78 -68l-57 74l172 151
q63 -4 64 -71v-443h86v-80zM291 -18h-101l584 976h100z" />
    <glyph glyph-name="uni2156" unicode="&#x2156;" horiz-adv-x="1110" 
d="M238 967q182 0 182 -160q0 -72 -62.5 -139.5t-110.5 -113.5t-97 -97h243l-12 -84h-365q4 103 144 229q112 104 132.5 141t20.5 64q0 76 -69 76q-41 0 -69 -29t-32 -82l-94 14q10 86 62.5 133.5t126.5 47.5zM868 393q80 0 137.5 -51t57.5 -143t-69.5 -153.5t-169.5 -61.5
t-177 59l45 78q29 -16 58.5 -31.5t76.5 -15.5t89 35t42 87t-32 78.5t-66 26.5q-75 0 -94 -45h-68l19 330h332l-19 -90h-217l-6 -117q28 14 61 14zM291 -18h-101l584 976h100z" />
    <glyph glyph-name="uni2157" unicode="&#x2157;" horiz-adv-x="1110" 
d="M76 817q62 147 200 147t138 -122q0 -58 -64 -115q107 -16 107 -143q0 -100 -70 -159.5t-162 -59.5t-162 51l41 88q57 -45 119 -45t99.5 34.5t37.5 88.5q0 72 -67 71q-51 0 -94 -37l-33 62q90 47 121.5 84t31.5 77t-51 40q-82 0 -116 -101zM868 393q80 0 137.5 -51
t57.5 -143t-69.5 -153.5t-169.5 -61.5t-177 59l45 78q29 -16 58.5 -31.5t76.5 -15.5t89 35t42 87t-32 78.5t-66 26.5q-75 0 -94 -45h-68l19 330h332l-19 -90h-217l-6 -117q28 14 61 14zM291 -18h-101l584 976h100z" />
    <glyph glyph-name="uni2158" unicode="&#x2158;" horiz-adv-x="1110" 
d="M377 492v-125h-103v125h-225q4 145 63.5 259.5t123 160.5t141.5 49v-383h88l-4 -86h-84zM274 578v256q-45 -59 -78.5 -130t-39.5 -126h118zM868 393q80 0 137.5 -51t57.5 -143t-69.5 -153.5t-169.5 -61.5t-177 59l45 78q29 -16 58.5 -31.5t76.5 -15.5t89 35t42 87
t-32 78.5t-66 26.5q-75 0 -94 -45h-68l19 330h332l-19 -90h-217l-6 -117q28 14 61 14zM291 -18h-101l584 976h100z" />
    <glyph glyph-name="uni2159" unicode="&#x2159;" horiz-adv-x="1110" 
d="M930 184q0 49 -25.5 82t-67.5 33t-69 -33t-27 -82t27 -80.5t71 -31.5t67.5 31.5t23.5 80.5zM864 377q60 0 112 -49.5t52 -139.5t-48 -144t-142 -54t-147.5 64.5t-53.5 142.5q0 147 96.5 263.5t253.5 139.5l2 -72q-154 -54 -217 -163q32 12 92 12zM369 360h-275v80h88v357
l-78 -68l-57 74l172 151q63 -4 64 -71v-443h86v-80zM291 -18h-101l584 976h100z" />
    <glyph glyph-name="uni215A" unicode="&#x215a;" horiz-adv-x="1110" 
d="M262 776q80 0 137.5 -51t57.5 -143t-70 -153.5t-170 -61.5t-176 59l45 78q29 -16 58.5 -31.5t76.5 -15.5t89 35.5t42 87.5t-32 78t-66 26q-75 0 -94 -45h-68l19 330h331l-18 -90h-217l-6 -117q28 14 61 14zM930 184q0 49 -25.5 82t-67.5 33t-69 -33t-27 -82t27 -80.5
t71 -31.5t67.5 31.5t23.5 80.5zM864 377q60 0 112 -49.5t52 -139.5t-48 -144t-142 -54t-147.5 64.5t-53.5 142.5q0 147 96.5 263.5t253.5 139.5l2 -72q-154 -54 -217 -163q32 12 92 12zM291 -18h-101l584 976h100z" />
    <glyph glyph-name="oneeighth" unicode="&#x215b;" horiz-adv-x="1110" 
d="M369 360h-275v80h88v357l-78 -68l-57 74l172 151q63 -4 64 -71v-443h86v-80zM1047 172q0 -92 -54.5 -140t-147.5 -48t-146.5 48t-53.5 132q0 45 21.5 86t56.5 63q-61 45 -61 114t52 115t131 46t132 -46t53 -115t-61 -114q78 -49 78 -141zM930 428q0 29 -21.5 48.5
t-62.5 19.5t-62.5 -19.5t-21.5 -46.5q0 -50 82 -74q86 25 86 72zM946 159q0 38 -23.5 70.5t-76.5 36.5q-53 -4 -78 -36.5t-25 -70.5t29 -60.5t75 -22.5t72.5 22.5t26.5 60.5zM291 -18h-101l584 976h100z" />
    <glyph glyph-name="threeeighths" unicode="&#x215c;" horiz-adv-x="1110" 
d="M76 817q62 147 200 147t138 -122q0 -58 -64 -115q107 -16 107 -143q0 -100 -70 -159.5t-162 -59.5t-162 51l41 88q57 -45 119 -45t99.5 34.5t37.5 88.5q0 72 -67 71q-51 0 -94 -37l-33 62q90 47 121.5 84t31.5 77t-51 40q-82 0 -116 -101zM1047 172q0 -92 -54.5 -140
t-147.5 -48t-146.5 48t-53.5 132q0 45 21.5 86t56.5 63q-61 45 -61 114t52 115t131 46t132 -46t53 -115t-61 -114q78 -49 78 -141zM930 428q0 29 -21.5 48.5t-62.5 19.5t-62.5 -19.5t-21.5 -46.5q0 -50 82 -74q86 25 86 72zM946 159q0 38 -23.5 70.5t-76.5 36.5
q-53 -4 -78 -36.5t-25 -70.5t29 -60.5t75 -22.5t72.5 22.5t26.5 60.5zM291 -18h-101l584 976h100z" />
    <glyph glyph-name="fiveeighths" unicode="&#x215d;" horiz-adv-x="1110" 
d="M262 776q80 0 137.5 -51t57.5 -143t-70 -153.5t-170 -61.5t-176 59l45 78q29 -16 58.5 -31.5t76.5 -15.5t89 35.5t42 87.5t-32 78t-66 26q-75 0 -94 -45h-68l19 330h331l-18 -90h-217l-6 -117q28 14 61 14zM1047 172q0 -92 -54.5 -140t-147.5 -48t-146.5 48t-53.5 132
q0 45 21.5 86t56.5 63q-61 45 -61 114t52 115t131 46t132 -46t53 -115t-61 -114q78 -49 78 -141zM930 428q0 29 -21.5 48.5t-62.5 19.5t-62.5 -19.5t-21.5 -46.5q0 -50 82 -74q86 25 86 72zM946 159q0 38 -23.5 70.5t-76.5 36.5q-53 -4 -78 -36.5t-25 -70.5t29 -60.5
t75 -22.5t72.5 22.5t26.5 60.5zM291 -18h-101l584 976h100z" />
    <glyph glyph-name="seveneighths" unicode="&#x215e;" horiz-adv-x="1110" 
d="M297 375h-109q9 323 152 497h-283l25 93h401l-12 -82q-94 -115 -134 -226.5t-40 -281.5zM1047 172q0 -92 -54.5 -140t-147.5 -48t-146.5 48t-53.5 132q0 45 21.5 86t56.5 63q-61 45 -61 114t52 115t131 46t132 -46t53 -115t-61 -114q78 -49 78 -141zM930 428
q0 29 -21.5 48.5t-62.5 19.5t-62.5 -19.5t-21.5 -46.5q0 -50 82 -74q86 25 86 72zM946 159q0 38 -23.5 70.5t-76.5 36.5q-53 -4 -78 -36.5t-25 -70.5t29 -60.5t75 -22.5t72.5 22.5t26.5 60.5zM291 -18h-101l584 976h100z" />
    <glyph glyph-name="partialdiff" unicode="&#x2202;" horiz-adv-x="714" 
d="M502 485q-137 0 -215 -80t-78 -184t84 -104q94 0 160 139q47 98 63 229h-14zM645 575q0 -199 -86 -370q-106 -215 -289 -215q-82 0 -141 60.5t-59 170.5q0 179 131 279t301 100h18q-10 211 -87 211t-126 -147l-112 61q94 207 235 207q215 -1 215 -357z" />
    <glyph glyph-name="Delta" unicode="&#x2206;" horiz-adv-x="983" 
d="M977 0h-971l486 967zM805 96l-313 643l-314 -643h627z" />
    <glyph glyph-name="product" unicode="&#x220f;" horiz-adv-x="1009" 
d="M899 -154h-129v1018h-530v-1018h-131v1129h790v-1129z" />
    <glyph glyph-name="summation" unicode="&#x2211;" horiz-adv-x="854" 
d="M831 -154h-780v121l379 469l-379 420v119h750v-111h-619l369 -385v-71l-369 -451h649v-111z" />
    <glyph glyph-name="minus" unicode="&#x2212;" horiz-adv-x="854" 
d="M723 322h-594v110h594v-110z" />
    <glyph glyph-name="radical" unicode="&#x221a;" horiz-adv-x="792" 
d="M49 453v98h201l112 -393l293 809h125l-377 -987h-96l-147 473h-111z" />
    <glyph glyph-name="infinity" unicode="&#x221e;" horiz-adv-x="1294" 
d="M1083 438q0 139 -149 140q-119 0 -211 -138q125 -129 205 -129t117.5 38t37.5 89zM1198 444q0 -104 -64.5 -169.5t-202.5 -65.5t-290 162q-123 -162 -285 -162q-117 0 -188.5 66.5t-71.5 170.5t63.5 170t197.5 66t294 -160q125 160 285 160q119 0 190.5 -67t71.5 -171z
M366 580q-82 0 -118.5 -38t-36.5 -89q0 -139 147 -140q113 1 213 138q-123 129 -205 129z" />
    <glyph glyph-name="integral" unicode="&#x222b;" horiz-adv-x="507" 
d="M0 -201q-43 0 -113 15l23 108q33 -8 57 -8q98 0 115 94l137 785q33 199 207 196q49 0 100 -12l-20 -105q-37 10 -70 11q-86 0 -102 -99l-133 -786q-33 -199 -201 -199z" />
    <glyph glyph-name="approxequal" unicode="&#x2248;" horiz-adv-x="854" 
d="M770 229q0 -94 -51 -148t-117 -54t-183.5 63.5t-152.5 63.5q-72 0 -76 -127h-112v39q0 90 54 143t122 53t182.5 -60.5t153.5 -60.5q63 0 69 121h111v-33zM772 539q0 -94 -51 -148.5t-117 -54.5t-183.5 63.5t-152.5 63.5q-72 0 -75 -127h-113v39q0 90 54 143t122 53
t182.5 -60t153.5 -60q63 0 70 120h110v-32z" />
    <glyph glyph-name="notequal" unicode="&#x2260;" horiz-adv-x="854" 
d="M92 199v108h217q52 92 80 150h-297v108h350l119 228h137l-116 -228h178v-108h-236q-18 -39 -36.5 -73t-41.5 -77h314v-108h-369q-57 -107 -100 -199h-133l98 199h-164z" />
    <glyph glyph-name="lessequal" unicode="&#x2264;" horiz-adv-x="854" 
d="M733 180l-637 254v123l637 254v-127l-495 -190l495 -189v-125zM788 31h-725v106h725v-106z" />
    <glyph glyph-name="greaterequal" unicode="&#x2265;" horiz-adv-x="854" 
d="M733 434l-637 -254v125l496 189l-496 190v127l637 -254v-123zM788 31h-725v106h725v-106z" />
    <glyph glyph-name="lozenge" unicode="&#x25ca;" horiz-adv-x="829" 
d="M649 451l-233 350l-236 -350l236 -351zM772 451l-301 -451h-113l-301 451l301 452h113z" />
    <glyph glyph-name="dottedcircle" unicode="&#x25cc;" horiz-adv-x="831" 
d="M544.5 70q-16.5 0 -27.5 11t-11 27.5t11 26.5t27.5 10t27 -10t10 -26.5t-10.5 -27.5t-26.5 -11zM663.5 217q26.5 0 26.5 -26.5t-10 -37.5t-26.5 -11.5t-28 11t-11.5 28t11.5 26.5t38 10zM762 281.5q0 -27.5 -26.5 -27.5t-38 11t-11.5 27.5t11.5 27t27.5 10.5t26.5 -10.5
t10.5 -38zM248 118.5q0 26.5 26.5 26.5t38 -10t11.5 -26.5t-11.5 -27.5t-28 -11t-26.5 11t-10 37.5zM215 180.5q0 -16.5 -11 -28t-27.5 -11.5t-27 11.5t-10.5 28t10.5 26.5t27 10t27.5 -10t11 -26.5zM143 292.5q0 -16.5 -11 -27.5t-27.5 -11t-26.5 11t-10 27.5t10 27
t26.5 10.5t27.5 -10.5t11 -27zM580 729q0 -16 -10.5 -26.5t-27 -10.5t-27.5 10.5t-11 26.5t11 27.5t27.5 11.5t27 -11.5t10.5 -27.5zM688 647.5q0 -26.5 -26.5 -26.5t-38 10t-11.5 26.5t11.5 27.5t28 11t26.5 -11t10 -37.5zM760 544.5q0 -16.5 -10.5 -26.5t-26.5 -10
t-27.5 10t-11.5 26.5t11.5 28t27.5 11.5t26.5 -11.5t10.5 -28zM324 729q0 -16 -11.5 -26.5t-28 -10.5t-26.5 10.5t-10 26.5t10 27.5t26.5 11.5t28 -11.5t11.5 -27.5zM215 657.5q0 -16.5 -11 -26.5t-27.5 -10t-27 10t-10.5 26.5t10.5 27.5t27 11t27.5 -11t11 -27.5zM94.5 508
q-26.5 0 -26.5 26.5t10 38t26.5 11.5t27.5 -11.5t11 -28t-11 -26.5t-37.5 -10zM739.5 383q-26.5 0 -26.5 26.5t10 38t26.5 11.5t27.5 -11.5t11 -28t-11 -26.5t-37.5 -10zM67.5 383q-26.5 0 -26.5 26.5t10 38t26.5 11.5t28 -11.5t11.5 -28t-11.5 -26.5t-38 -10zM453 84
q0 -16 -11.5 -27.5t-28 -11.5t-27.5 11.5t-11 27.5t11 27.5t27.5 11.5t28 -11.5t11.5 -27.5zM453 753.5q0 -16.5 -11.5 -27.5t-28 -11t-27.5 11t-11 27.5t11 28t27.5 11.5t28 -11.5t11.5 -28z" />
    <glyph glyph-name="uni0E10.alt1" unicode="&#xf700;" horiz-adv-x="761" 
d="M291 360.5q0 24.5 -17.5 42t-42 17.5t-42 -17.5t-17.5 -42t17.5 -42t42 -17.5t42 17.5t17.5 42zM643 170q0 -186 -191 -186t-192 176v67q-16 -4 -29 -4q-59 0 -98 40t-39 98t44 97.5t102 39.5t102.5 -38t44.5 -98v-198q0 -74 65 -74t64 74v295q0 43 -179 82t-267 39
q12 131 89 192t179 62q39 0 115.5 -20.5t119.5 -20.5q31 0 39 49l105 -27q-37 -141 -150 -141q-39 0 -113.5 25.5t-110.5 25.5t-76 -16.5t-52 -38.5q236 -39 348 -90q80 -37 80 -109v-301z" />
    <glyph glyph-name="uni0E34.alt1" unicode="&#xf701;" 
d="M-637 1184q-76 0 -129 -30t-68 -79q35 8 148 8t260 -41q-12 51 -73.5 96.5t-137.5 45.5zM-760 1004q-96 0 -194 -13q25 274 299 275q158 0 250 -95t110 -249q-254 82 -465 82z" />
    <glyph glyph-name="uni0E35.alt1" unicode="&#xf702;" 
d="M-637 1184q-76 0 -129 -30t-68 -79q35 8 148 8t260 -41q-12 51 -73.5 96.5t-137.5 45.5zM-760 1004q-96 0 -194 -13q25 274 299 275q145 0 233 -80v141h123v-377l4 -28q-254 82 -465 82z" />
    <glyph glyph-name="uni0E36.alt1" unicode="&#xf703;" 
d="M-272 1230q0 -46 -23.5 -79t-60.5 -43q49 -80 61 -186q-254 82 -465 82q-96 0 -194 -13q25 274 299 275q80 0 143 -25q6 45 39 76t82 31t84 -36t35 -82zM-336 1224.5q0 24.5 -17.5 42t-40 17.5t-41 -17.5t-18.5 -42t18.5 -41t41 -16.5t40 16.5t17.5 41zM-637 1184
q-76 0 -129 -30t-68 -79q35 8 148 8t260 -41q-12 51 -73.5 96.5t-137.5 45.5z" />
    <glyph glyph-name="uni0E37.alt1" unicode="&#xf704;" 
d="M-637 1184q-76 0 -129 -30t-68 -79q35 8 148 8t260 -41q-12 51 -73.5 96.5t-137.5 45.5zM-760 1004q-96 0 -194 -13q25 274 299 275q31 0 57 -4v65h92v-86q45 -18 84 -55v141h123v-377l4 -28q-254 82 -465 82z" />
    <glyph glyph-name="uni0E48.alt1" unicode="&#xf705;" 
d="M-350 950h-127v289h127v-289z" />
    <glyph glyph-name="uni0E49.alt1" unicode="&#xf706;" 
d="M-502 1206q0 22 -14 35.5t-36 13.5t-36 -13.5t-14 -35.5t14 -36.5t36 -14.5t36 14.5t14 36.5zM-672 924v77q41 2 66.5 28t32.5 50q-45 10 -74 46t-29 86t37 85t92 35t89 -37t34 -91t-28.5 -108.5t-57.5 -84.5q98 20 158.5 97t64.5 179h121q-29 -362 -444 -362h-62z" />
    <glyph glyph-name="uni0E4A.alt1" unicode="&#xf707;" 
d="M-631 1050.5q0 22.5 -16.5 40t-39 17.5t-39.5 -17.5t-17 -40t17 -39t39.5 -16.5t39 16.5t16.5 39zM-504 938v66q86 43 86 133q0 66 -63 82l-70 -70l-72 76q-37 -9 -65 -49q53 0 90 -36t37 -88t-37 -87t-87 -35t-87 33t-37 85q0 105 51 174.5t158 82.5l51 -60l51 60
q72 -2 116 -47.5t44 -111.5t-27 -114q47 29 76 96.5t29 159.5h94q-10 -350 -338 -350z" />
    <glyph glyph-name="uni0E4B.alt1" unicode="&#xf708;" 
d="M-299 1053h-117v-103h-114v103h-117v84h117v98h114v-98h117v-84z" />
    <glyph glyph-name="uni0E4C.alt1" unicode="&#xf709;" 
d="M-406 1062.5q0 22.5 -17 40t-39.5 17.5t-40 -17.5t-17.5 -40t17.5 -39.5t40 -17t39.5 17t17 39.5zM-332 1063q0 -55 -39 -94t-94 -39t-94 39t-39 96q0 147 152 190q86 23 109.5 58t23.5 53h92q-8 -86 -55.5 -124t-126.5 -60q71 -34 71 -119z" />
    <glyph glyph-name="uni0E48.alt2" unicode="&#xf70a;" 
d="M-104 950h-127v289h127v-289z" />
    <glyph glyph-name="uni0E49.alt2" unicode="&#xf70b;" 
d="M-330 1218.5q0 22.5 -15 38t-38 15.5t-37 -15.5t-14 -38t14 -38t37 -15.5t38 15.5t15 38zM-442 924h-68v82q41 2 68.5 28.5t38.5 52.5q-51 8 -81 45.5t-30 91.5t40 91t97 37t92 -39t35 -98.5t-28.5 -115t-59.5 -85.5q102 18 167 99t69 192h122q-39 -214 -147.5 -297.5
t-314.5 -83.5z" />
    <glyph glyph-name="uni0E4A.alt2" unicode="&#xf70c;" 
d="M-508 1050.5q0 22.5 -16.5 40t-39 17.5t-40 -17.5t-17.5 -40t17.5 -39t40 -16.5t39 16.5t16.5 39zM-381 938v66q86 43 86 133q0 66 -63 82l-70 -70l-72 76q-37 -9 -65 -49q53 0 90 -36t37 -88t-37 -87t-87 -35t-87 33t-37 85q0 107 51.5 176t157.5 81l51 -60l51 60
q72 -2 116 -47.5t44 -111.5t-27 -114q47 29 76 96.5t29 159.5h94q-10 -350 -338 -350z" />
    <glyph glyph-name="uni0E4B.alt2" unicode="&#xf70d;" 
d="M6 1053h-117v-103h-114v103h-117v84h117v98h114v-98h117v-84z" />
    <glyph glyph-name="uni0E4C.alt2" unicode="&#xf70e;" 
d="M-205 1062.5q0 22.5 -17.5 40t-40 17.5t-39.5 -17.5t-17 -40t17 -39.5t39.5 -17t40 17t17.5 39.5zM-131 1063q0 -55 -39 -94t-94 -39t-94 39t-39 96q0 147 151 190q86 23 109.5 58t23.5 53h93q-8 -86 -55.5 -124t-127.5 -60q72 -35 72 -119z" />
    <glyph glyph-name="uni0E0D.alt1" unicode="&#xf70f;" horiz-adv-x="1157" 
d="M1053 193q0 -101 -75 -155t-180 -54t-176 52t-71 157v350q0 80 -50 130t-124 50q-125 0 -178 -102q80 -6 135 -93q-104 -57 -105 -147v-88q16 2 35 2q66 0 111 -45t45 -110.5t-45 -110.5t-112 -45t-114 47t-47 119v239q0 86 84 135q-51 35 -125 17q3 135 91 214t222 79
t219 -78t85 -215v-367q0 -43 37 -62.5t85 -19.5t87 19.5t39 62.5v643h127v-624zM336 141.5q0 28.5 -20.5 49t-49 20.5t-49 -20.5t-20.5 -49t20.5 -49t49 -20.5t49 20.5t20.5 49z" />
    <glyph glyph-name="uni0E31.alt1" unicode="&#xf710;" 
d="M-530 1155q0 27 -18.5 45.5t-45.5 18.5t-44 -18.5t-17 -45.5t17 -44t44 -17t45.5 17t18.5 44zM-479 977q-123 0 -188.5 50.5t-65.5 118.5t41 109t102 41t101 -42t40 -98t-30 -83q213 8 248 244h120q-53 -340 -368 -340z" />
    <glyph glyph-name="uni0E4D.alt1" unicode="&#xf711;" 
d="M-412 1124.5q0 34.5 -23.5 59t-58 24.5t-59.5 -24.5t-25 -59t25 -58.5t59.5 -24t58 24t23.5 58.5zM-322 1125q0 -73 -50 -123t-123 -50t-123 50.5t-50 122t51.5 122.5t123 51t121.5 -50t50 -123z" />
    <glyph glyph-name="uni0E47.alt1" unicode="&#xf712;" 
d="M-348 1067q0 18 -13.5 31.5t-32 13.5t-31.5 -13.5t-13 -31.5t13 -31.5t31.5 -13.5t32 13.5t13.5 31.5zM-287 1067q0 -43 -30.5 -74.5t-75.5 -31.5q-100 0 -230 86q-27 -8 -58.5 -40t-35.5 -57q-109 72 -108 174q0 80 59 123t148 43h139q100 0 100 90v47h98v-45
q0 -84 -55 -129t-141 -45h-150q-33 0 -59.5 -21.5t-26.5 -55.5t13 -54q31 47 92 51q47 -31 112 -53q0 41 32 70t74 29t72.5 -32t30.5 -75z" />
    <glyph glyph-name="uni0E48.alt3" unicode="&#xf713;" 
d="M-299 1386h-123v234h123v-234z" />
    <glyph glyph-name="uni0E49.alt3" unicode="&#xf714;" 
d="M-467 1609.5q0 22.5 -15.5 38t-38 15.5t-37.5 -15.5t-15 -38t15 -38t37.5 -15.5t38 15.5t15.5 38zM-575 1366h-58v68q82 6 101 59q-104 27 -105 121q0 49 35 82t87 33t84 -34t32 -87q0 -80 -90 -170q100 20 163.5 95t69.5 177h106q-37 -195 -136 -269.5t-289 -74.5z" />
    <glyph glyph-name="uni0E4A.alt3" unicode="&#xf715;" 
d="M-563 1478.5q0 22.5 -14.5 38t-37 15.5t-38 -15.5t-15.5 -38t15.5 -37t38 -14.5t37 14.5t14.5 37zM-446 1376v60q80 39 79 123q0 59 -59 75l-63 -65l-66 69q-35 -8 -61 -45q49 0 82.5 -32.5t33.5 -79.5t-32.5 -80t-80.5 -33t-81 32t-33 78q0 84 49.5 153.5t142.5 80.5
l48 -53l47 53q63 -2 105 -43t42 -101t-24 -106q96 59 96 236h86q-8 -322 -311 -322z" />
    <glyph glyph-name="uni0E4B.alt3" unicode="&#xf716;" 
d="M-197 1477h-106v-91h-113v91h-98v84h98v86h113v-86h106v-84z" />
    <glyph glyph-name="uni0E4C.alt3" unicode="&#xf717;" 
d="M-385 1431.5q0 22.5 -14.5 38t-37 15.5t-37.5 -15.5t-15 -38t15 -37t37.5 -14.5t37 14.5t14.5 37zM-315 1432q0 -51 -36 -87t-87 -36t-87 36.5t-36 88.5q0 129 139 174q63 20 82 32q41 25 41 70h84q-6 -76 -46 -112t-122 -58q68 -33 68 -108z" />
    <glyph glyph-name="uni0E38.alt1" unicode="&#xf718;" 
d="M-104 -911h-123v155h-9q-51 0 -86.5 36t-35.5 86t36 87t86 37t91 -31.5t41 -91.5v-278zM-176 -628.5q0 22.5 -17.5 39t-40 16.5t-39 -16.5t-16.5 -39t16.5 -39t39 -16.5t40 16.5t17.5 39z" />
    <glyph glyph-name="uni0E39.alt1" unicode="&#xf719;" 
d="M-422 -628.5q0 22.5 -16.5 39t-39 16.5t-40 -16.5t-17.5 -39t17.5 -40t40 -17.5t39 17.5t16.5 40zM-104 -803q0 -69 -54 -101t-128 -32q-75 0 -129 31t-54 88v61h-12q-51 0 -87 36t-36 86t36 87t88 37t91 -32.5t39 -90.5v-184q0 -31 64 -31t63 31v289h119v-275z" />
    <glyph glyph-name="uni0E3A.alt1" unicode="&#xf71a;" 
d="M-92 -585.5q0 -28.5 -21.5 -50t-50.5 -21.5t-50.5 21.5t-21.5 50t21.5 50t50.5 21.5t50.5 -21.5t21.5 -50z" />
    <glyph glyph-name="uni0E0E.alt1" unicode="&#xf71b;" horiz-adv-x="870" 
d="M242 139q0 29 -20 49t-50 20q-29 0 -49 -20q-21 -20 -21 -49t20 -49t50 -20t50 20t20 49zM305 -270q-84 0 -86 -49q-2 -66 66 -66q73 7 69 109q-18 6 -49 6zM766 -471h-129q-27 109 -188 172q-14 -180 -160 -180q-68 0 -116 43t-48 108q0 145 192 146q29 0 48 -2
q10 38 26 64t60 52l84 -45q-63 -35 -76 -92q117 -41 180 -102v850q0 82 -54 132t-136 50q-125 0 -183 -104q100 -20 137 -93q-55 -32 -77 -58t-23 -76q0 -50 10 -135q11 -85 11 -135t-44 -96q-44 -44 -109 -44t-110 45t-45 109t45 110t107 45q25 0 31 -6l-13 127
q0 72 70 110q-55 35 -125 25q2 127 92 206t228 79q139 0 227 -80t88 -213v-1012z" />
    <glyph glyph-name="uni0E0F.alt1" unicode="&#xf71c;" horiz-adv-x="870" 
d="M766 -473h-115l-106 139l-101 -139l-94 129q-8 -57 -53 -97t-105 -40t-106 44q-45 44 -45 109q0 152 174 152q39 0 55 -6q25 76 107 119l72 -87q-76 -20 -84 -83l79 -99l99 125l96 -110v860q0 82 -54 132t-136 50q-125 0 -183 -104q100 -20 137 -93q-55 -32 -77 -58
t-23 -76q0 -50 10 -135q11 -85 11 -135t-44 -96q-44 -44 -109 -44t-110 45t-45 109t45 110t107 45q25 0 31 -6l-13 127q0 72 70 110q-55 35 -125 25q2 127 92 206t228 79q139 0 227 -80t88 -213v-1014zM242 139q0 29 -20 49t-50 20q-29 0 -49 -20q-21 -20 -21 -49t20 -49
t50 -20t50 20t20 49zM135 -326q0 -51 53 -51q70 0 70 96q-20 10 -57 11q-66 0 -66 -56z" />
    <glyph glyph-name="uni0E2C.alt1" unicode="&#xf71d;" horiz-adv-x="972" 
d="M246 678q0 29 -20 49q-20 21 -50 21q-29 0 -49 -20q-21 -20 -21 -50q0 -29 20 -49q20 -21 50 -21t50 20t20 50zM762 678q0 29 -20 49q-20 21 -50 21q-29 0 -49 -20t-20 -50q0 -29 20 -49q20 -21 49 -21q30 0 50 20t20 50zM854 0h-129l-193 365l-190 -365h-131v526
q-20 -4 -35 -4q-66 0 -110 46t-46 110q0 64 46 110t112 46q68 0 114 -48t46 -118v-328q0 -63 -25 -201q18 49 45 99l129 215h91l129 -215q27 -49 45 -99q-25 137 -25 201v186q-20 -4 -35 -4q-66 0 -110 46t-45 110q0 64 45 110t101 46t91 -23q39 33 49 88h111
q-14 -104 -96 -158q16 -33 16 -73v-668z" />
    <glyph glyph-name="uni0E33.alt1" horiz-adv-x="688" 
d="M-412 1124q0 35 -23 60q-24 24 -59 24q-36 0 -60 -24t-24 -60q0 -34 25 -58t59 -24t58 24t24 58zM-322 1125q0 -73 -50 -123t-123 -50t-123 50t-50 122t52 123t122 51q72 0 122 -50t50 -123zM584 0h-127v596q0 57 -39 93t-107 36q-69 0 -111 -45t-44 -115h-123
q6 123 81 196q76 73 194 73t197 -58t79 -178v-598z" />
    <glyph glyph-name="uni0E4E.alt1" 
d="M-344 1319q-94 0 -94 -66t102 -77l-18 -48q-82 26 -130 -8.5t-48 -64.5q0 -55 92 -56q27 0 65 17l2 -51q-39 -17 -92 -17t-90 30t-37 80t41 85t92 35q-41 27 -41 77q0 119 158 119q55 0 92 -14l-18 -51q-35 10 -76 10z" />
    <glyph glyph-name="nonmarkingreturn" 
 />
    </font>
</defs>
</svg>
